<svg id="Layer_1" data-name="Layer 1" xmlns="http://www.w3.org/2000/svg" viewBox="0 0 37.34 8.69"><defs><style>.cls-1{fill:#fff;fill-rule:evenodd;}</style></defs><path class="cls-1" d="M307.68,425.42a.87.87,0,0,1-.87-.87V421.4c0-1-.46-1.46-1.24-1.46s-1.28.5-1.28,1.46v4h-2.05v-7.2h2.05v1a2.57,2.57,0,0,1,2.12-1.15,2.36,2.36,0,0,1,2.45,2.67v4.66Z" transform="translate(-278 -416.89)"/><path class="cls-1" d="M294.61,425.42l-2.4-3.79,2.17-3.42h-1.62a.86.86,0,0,0-.73.4l-.87,1.37L290,418.21H288l2.17,3.42-2.4,3.79h1.62a.87.87,0,0,0,.73-.41l1.09-1.72,1.35,2.13Z" transform="translate(-278 -416.89)"/><path class="cls-1" d="M312.56,425.54a5.07,5.07,0,0,1-3.12-1.09l.42-.63a.87.87,0,0,1,1.14-.29,3.66,3.66,0,0,0,1.61.44c.6,0,.87-.22.87-.54v0c0-.44-.7-.59-1.5-.83-1-.3-2.17-.77-2.17-2.17v0a2.37,2.37,0,0,1,2.66-2.29,5.1,5.1,0,0,1,2.71.83l-.38.68a.91.91,0,0,1-1.12.38,3.34,3.34,0,0,0-1.26-.32c-.5,0-.75.22-.75.5v0c0,.4.69.59,1.47.86,1,.34,2.2.82,2.2,2.14v0c0,1.6-1.21,2.32-2.78,2.32" transform="translate(-278 -416.89)"/><path class="cls-1" d="M301.28,422.53h-5a1.66,1.66,0,0,0,1.74,1.41,2.12,2.12,0,0,0,1.24-.35.86.86,0,0,1,1,.09l.62.56a3.54,3.54,0,0,1-2.9,1.34,3.58,3.58,0,0,1-3.72-3.72v0a3.56,3.56,0,0,1,3.52-3.74c2.37,0,3.46,1.87,3.46,3.91v0c0,.2,0,.32,0,.51m-3.44-2.8c-.84,0-1.38.6-1.54,1.53h3a1.53,1.53,0,0,0-1.5-1.53" transform="translate(-278 -416.89)"/><path class="cls-1" d="M288.14,422.26H282.2l3.11,1.54h0a2.43,2.43,0,0,0,3.38-2,.57.57,0,0,1-.55.45" transform="translate(-278 -416.89)"/><path class="cls-1" d="M288.51,421.26l-2.52-4a.86.86,0,0,0-.73-.4h-1.68a.3.3,0,0,0-.26.14l-5.32,8.4h1.7a.88.88,0,0,0,.75-.42l4.1-6.46a0,0,0,0,1,.05,0l2.08,3.28h1.52a.37.37,0,0,0,.31-.57" transform="translate(-278 -416.89)"/></svg>