<svg id="Layer_1" data-name="Layer 1" xmlns="http://www.w3.org/2000/svg" viewBox="0 0 36.98 8.66"><defs><style>.cls-1{fill:#62526f;}.cls-1,.cls-2{fill-rule:evenodd;}.cls-2{fill:#31b6b3;}</style></defs><path class="cls-1" d="M289.52,421.43l-2.6-4.14a.86.86,0,0,0-.73-.4h-1.66a.3.3,0,0,0-.26.15L279,425.42h1.69a.86.86,0,0,0,.74-.41l4.06-6.46s0,0,.05,0l2.35,3.75h1.16a.54.54,0,0,0,.54-.43.63.63,0,0,0-.07-.44Z" transform="translate(-279 -416.89)"/><path class="cls-1" d="M308.44,425.42a.87.87,0,0,1-.87-.87v-3.14c0-1-.46-1.47-1.24-1.47s-1.28.5-1.28,1.47v4H303v-7.19h2.05v1a2.57,2.57,0,0,1,2.12-1.15,2.36,2.36,0,0,1,2.45,2.67v4.66Z" transform="translate(-279 -416.89)"/><path class="cls-1" d="M295.49,425.41l-2.4-3.78,2.17-3.42h-1.62a.86.86,0,0,0-.73.4L292,420l-1.12-1.77h-2.09l2.16,3.42-2.39,3.78h1.62a.86.86,0,0,0,.73-.4l1.1-1.72,1.34,2.12Z" transform="translate(-279 -416.89)"/><path class="cls-1" d="M313.26,425.54a4.91,4.91,0,0,1-3.06-1.09l.41-.63a.86.86,0,0,1,1.12-.3,3.44,3.44,0,0,0,1.58.45c.58,0,.85-.22.85-.54v0c0-.44-.69-.59-1.48-.83-1-.3-2.12-.77-2.12-2.17v0a2.34,2.34,0,0,1,2.6-2.29,4.91,4.91,0,0,1,2.66.83l-.37.68a.87.87,0,0,1-1.09.38,3.3,3.3,0,0,0-1.23-.32c-.5,0-.75.22-.75.5v0c0,.4.68.59,1.45.86,1,.33,2.15.82,2.15,2.14v0c0,1.61-1.18,2.33-2.72,2.33Z" transform="translate(-279 -416.89)"/><path class="cls-2" d="M289,422.26h-5.94l3.11,1.54h0a2.48,2.48,0,0,0,.95.2,2.54,2.54,0,0,0,2.43-2.19.56.56,0,0,1-.55.45Z" transform="translate(-279 -416.89)"/><path class="cls-1" d="M302,422.5h-5a1.65,1.65,0,0,0,1.74,1.4,2.17,2.17,0,0,0,1.23-.34.86.86,0,0,1,1,.08l.62.56a3.76,3.76,0,0,1-6.63-2.37v0a3.55,3.55,0,0,1,3.52-3.72c2.38,0,3.46,1.85,3.46,3.88v0a2.79,2.79,0,0,1,0,.51Zm-3.44-2.78a1.59,1.59,0,0,0-1.54,1.52h3a1.52,1.52,0,0,0-1.5-1.52Z" transform="translate(-279 -416.89)"/></svg>