<svg xmlns="http://www.w3.org/2000/svg" viewBox="0 0 133.2 45.03"><defs><style>.cls-1{fill:#62526f;}.cls-1,.cls-2{fill-rule:evenodd;}.cls-2{fill:#31b6b3;}</style></defs><g id="Layer_2" data-name="Layer 2"><g id="Layer_1-2" data-name="Layer 1"><path class="cls-1" d="M38,16.24l-9.4-14.8A3.1,3.1,0,0,0,26,0H20A1.12,1.12,0,0,0,19,.52l-19,30H6.08a3.2,3.2,0,0,0,2.71-1.49L23.45,5.93a.1.1,0,0,1,.17,0l8.5,13.43h4.17A2,2,0,0,0,38,16.24"/><path class="cls-1" d="M106.06,30.51a3.09,3.09,0,0,1-3.09-3.1V16.17c0-3.46-1.63-5.23-4.4-5.23S94,12.71,94,16.17V30.51H86.76V4.8H94V8.44c1.67-2.15,3.82-4.12,7.5-4.12,5.5,0,8.71,3.64,8.71,9.54V30.51Z"/><path class="cls-1" d="M59.45,30.5,50.92,17,58.64,4.8H52.87a3.08,3.08,0,0,0-2.61,1.44L47.19,11.1l-4-6.3H35.73L43.45,17,34.92,30.5h5.77a3.08,3.08,0,0,0,2.61-1.44l3.89-6.15L52,30.5Z"/><path class="cls-1" d="M123.34,31a18,18,0,0,1-11-3.88l1.47-2.26a3.09,3.09,0,0,1,4-1.05,12.76,12.76,0,0,0,5.7,1.58c2.11,0,3.07-.77,3.07-1.92v-.09c0-1.59-2.5-2.12-5.32-3-3.59-1.05-7.67-2.73-7.67-7.72v-.1c0-5.22,4.22-8.15,9.39-8.15a17.75,17.75,0,0,1,9.58,3l-1.33,2.42a3.16,3.16,0,0,1-4,1.34,11.8,11.8,0,0,0-4.44-1.12c-1.77,0-2.68.77-2.68,1.78v.09c0,1.44,2.44,2.11,5.22,3.07,3.59,1.2,7.76,2.93,7.76,7.63v.09c0,5.71-4.27,8.3-9.82,8.3"/><path class="cls-2" d="M36.35,19.33H15l11.18,5.38h0a8.68,8.68,0,0,0,3.42.7,9,9,0,0,0,8.73-7.65,2,2,0,0,1-2,1.57"/><path class="cls-1" d="M83.26,20.16H65.42a6,6,0,0,0,6.27,5,7.88,7.88,0,0,0,4.45-1.24,3.09,3.09,0,0,1,3.69.31l2.24,2A12.82,12.82,0,0,1,71.59,31c-7.7,0-13.39-5.41-13.39-13.26v-.09c0-7.32,5.21-13.35,12.68-13.35,8.56,0,12.48,6.65,12.48,13.92v.1c0,.72,0,1.15-.1,1.82m-12.38-10c-3,0-5,2.15-5.55,5.45h11c-.43-3.25-2.34-5.45-5.4-5.45"/><path class="cls-1" d="M.12,42.84V35.52H2.79a2.34,2.34,0,0,1,0,4.67H1.57v2.65Zm3.44-5a.93.93,0,0,0-1-1h-1V38.9h1a.94.94,0,0,0,1-1"/><path class="cls-1" d="M5.52,40.22a2.49,2.49,0,0,1,2.42-2.78c1.58,0,2.41,1.28,2.41,2.78S9.52,43,7.94,43a2.51,2.51,0,0,1-2.42-2.79m3.46,0c0-.87-.32-1.62-1-1.62s-1.05.75-1.05,1.62.33,1.62,1.05,1.62,1-.74,1-1.62"/><polygon class="cls-1" points="15.55 42.8 14.6 39.24 13.63 42.8 12.24 42.8 10.8 37.56 12.17 37.56 13.03 41.11 13.97 37.56 15.18 37.56 16.16 41.11 17.01 37.56 18.39 37.56 16.95 42.8 15.55 42.8 15.55 42.8"/><path class="cls-1" d="M18.84,40.22a2.49,2.49,0,0,1,2.36-2.78c1.45,0,2.26,1.19,2.26,2.83v.39H20.15a1.26,1.26,0,0,0,1.28,1.27,1.59,1.59,0,0,0,1.15-.53l.6.82A2.57,2.57,0,0,1,21.3,43a2.49,2.49,0,0,1-2.46-2.79m2.34-1.7c-.74,0-1,.67-1,1.22h2.06c0-.55-.27-1.22-1-1.22"/><path class="cls-1" d="M24.48,42.88V37.57h1.35v.73a1.88,1.88,0,0,1,1.48-.86v1.3a1,1,0,0,0-.32-.05,1.51,1.51,0,0,0-1.16.65v3.54Z"/><path class="cls-1" d="M28.08,36.2a.73.73,0,1,1,1.46,0,.73.73,0,1,1-1.46,0m.12,1.37h1.21v5.26H28.2V37.57Z"/><path class="cls-1" d="M33.79,42.88V39.39c0-.57-.26-.79-.69-.79a1.19,1.19,0,0,0-1,.66v3.62h-1.3V37.57h1.3v.69a2,2,0,0,1,1.55-.82,1.28,1.28,0,0,1,1.4,1.46v4Z"/><path class="cls-1" d="M36.35,44.34l.51-1a1.83,1.83,0,0,0,1.36.58A1.1,1.1,0,0,0,39.4,42.7V42a1.6,1.6,0,0,1-1.33.82c-1.18,0-2-.95-2-2.69s.76-2.7,2-2.7a1.5,1.5,0,0,1,1.33.81v-.68h1.3V42.7A2.15,2.15,0,0,1,38.29,45a2.68,2.68,0,0,1-1.94-.69m3-3.29V39.22a1.11,1.11,0,0,0-.91-.62c-.68,0-1,.62-1,1.54s.35,1.53,1,1.53a1.11,1.11,0,0,0,.91-.62"/><path class="cls-1" d="M44.4,36.2a.8.8,0,1,1,1.59,0,.8.8,0,0,1-1.59,0m.13,1.37h1.32v5.26H44.53V37.57Z"/><path class="cls-1" d="M50.11,42.88V39.39c0-.57-.26-.79-.69-.79a1.19,1.19,0,0,0-1,.66v3.62h-1.3V37.57h1.3v.69A2,2,0,0,1,50,37.44a1.28,1.28,0,0,1,1.4,1.46v4Z"/><path class="cls-1" d="M53,41.6V38.72h-.68V37.57H53V36.12h1.33v1.45h.87v1.15h-.87v2.57c0,.34.12.55.38.55a.54.54,0,0,0,.4-.15l.26,1a1.53,1.53,0,0,1-1,.31C53.43,43,53,42.53,53,41.6"/><path class="cls-1" d="M55.92,40.22a2.49,2.49,0,0,1,2.36-2.78c1.45,0,2.26,1.19,2.26,2.83v.39H57.23a1.26,1.26,0,0,0,1.28,1.27,1.59,1.59,0,0,0,1.15-.53l.6.82a2.57,2.57,0,0,1-1.88.79,2.49,2.49,0,0,1-2.46-2.79m2.34-1.7c-.74,0-1,.67-1,1.22h2.06c0-.55-.27-1.22-1-1.22"/><path class="cls-1" d="M61.55,44.34l.51-1a1.83,1.83,0,0,0,1.36.58A1.1,1.1,0,0,0,64.6,42.7V42a1.6,1.6,0,0,1-1.33.82c-1.18,0-2-.95-2-2.69s.76-2.7,2-2.7a1.5,1.5,0,0,1,1.33.81v-.68h1.3V42.7A2.15,2.15,0,0,1,63.49,45a2.68,2.68,0,0,1-1.94-.69m3-3.29V39.22a1.11,1.11,0,0,0-.91-.62c-.68,0-1,.62-1,1.54s.35,1.53,1,1.53a1.11,1.11,0,0,0,.91-.62"/><path class="cls-1" d="M67.2,42.88V37.57h1.35v.73A1.88,1.88,0,0,1,70,37.44v1.3a1,1,0,0,0-.32-.05,1.51,1.51,0,0,0-1.16.65v3.54Z"/><path class="cls-1" d="M73.84,42.88v-.67a1.58,1.58,0,0,1-1.33.8c-1.18,0-2-1-2-2.79s.77-2.78,2-2.78a1.49,1.49,0,0,1,1.33.81v-.68h1.3v5.31Zm0-1.66v-2a1.1,1.1,0,0,0-.91-.61c-.68,0-1,.68-1,1.6s.35,1.62,1,1.62a1.09,1.09,0,0,0,.91-.62"/><path class="cls-1" d="M76.76,41.6V38.72h-.68V37.57h.68V36.12h1.33v1.45H79v1.15h-.87v2.57c0,.34.12.55.38.55a.54.54,0,0,0,.4-.15l.26,1a1.55,1.55,0,0,1-1,.31c-.93,0-1.36-.48-1.36-1.41"/><path class="cls-1" d="M79.68,40.22A2.49,2.49,0,0,1,82,37.44c1.45,0,2.26,1.19,2.26,2.83v.39H81a1.26,1.26,0,0,0,1.28,1.27,1.59,1.59,0,0,0,1.15-.53l.6.82a2.57,2.57,0,0,1-1.88.79,2.49,2.49,0,0,1-2.46-2.79M82,38.52c-.74,0-1,.67-1,1.22h2.06c0-.55-.27-1.22-1-1.22"/><path class="cls-1" d="M88.36,42.79v-.67a1.58,1.58,0,0,1-1.33.8c-1.18,0-2-1-2-2.77s.77-2.76,2-2.76a1.49,1.49,0,0,1,1.33.81V35.52h1.3v7.26h-1.3Zm0-1.65v-2a1.1,1.1,0,0,0-.91-.61c-.68,0-1,.68-1,1.6s.35,1.61,1,1.61a1.09,1.09,0,0,0,.91-.62"/><path class="cls-1" d="M93,42.25l.56-.93A2.21,2.21,0,0,0,95,42c.52,0,.79-.22.79-.56,0-.87-2.62-.39-2.62-2.37,0-.85.68-1.59,1.93-1.59a2.78,2.78,0,0,1,1.86.68l-.53.91a1.89,1.89,0,0,0-1.31-.55c-.43,0-.71.22-.71.51,0,.79,2.65.37,2.65,2.37,0,1-.77,1.65-2,1.65a2.87,2.87,0,0,1-2-.76"/><path class="cls-1" d="M97.8,40.22a2.49,2.49,0,0,1,2.42-2.78c1.58,0,2.41,1.28,2.41,2.78S101.8,43,100.22,43a2.51,2.51,0,0,1-2.42-2.79m3.46,0c0-.87-.32-1.62-1-1.62s-1,.75-1,1.62.33,1.62,1,1.62,1-.74,1-1.62"/><path class="cls-1" d="M103.68,41.52v-6H105v5.7c0,.33.13.54.39.54a.47.47,0,0,0,.37-.15l.27,1a1.47,1.47,0,0,1-1,.31c-.9,0-1.32-.47-1.32-1.4"/><path class="cls-1" d="M109.71,42.86v-.67a2,2,0,0,1-1.58.81,1.29,1.29,0,0,1-1.45-1.44v-4H108v3.5c0,.56.26.77.71.77a1.18,1.18,0,0,0,1-.64V37.56h1.35v5.3Z"/><path class="cls-1" d="M112.52,41.6V38.72h-.68V37.57h.68V36.12h1.33v1.45h.87v1.15h-.87v2.57c0,.34.12.55.38.55a.54.54,0,0,0,.4-.15l.26,1a1.55,1.55,0,0,1-1,.31c-.93,0-1.36-.48-1.36-1.41"/><path class="cls-1" d="M115.56,36.2a.8.8,0,1,1,1.59,0,.8.8,0,0,1-1.59,0m.13,1.37H117v5.26h-1.32V37.57Z"/><path class="cls-1" d="M118.08,40.22a2.49,2.49,0,0,1,2.42-2.78c1.58,0,2.41,1.28,2.41,2.78S122.08,43,120.5,43a2.51,2.51,0,0,1-2.42-2.79m3.46,0c0-.87-.32-1.62-1-1.62s-1,.75-1,1.62.33,1.62,1,1.62,1-.74,1-1.62"/><path class="cls-1" d="M126.91,42.88V39.39c0-.57-.26-.79-.69-.79a1.19,1.19,0,0,0-1,.66v3.62H124V37.57h1.3v.69a2,2,0,0,1,1.55-.82,1.28,1.28,0,0,1,1.4,1.46v4Z"/><path class="cls-1" d="M129.12,42.25l.56-.93a2.21,2.21,0,0,0,1.46.64c.52,0,.79-.22.79-.56,0-.87-2.62-.39-2.62-2.37,0-.85.68-1.59,1.93-1.59a2.78,2.78,0,0,1,1.86.68l-.53.91a1.89,1.89,0,0,0-1.31-.55c-.43,0-.71.22-.71.51,0,.79,2.65.37,2.65,2.37,0,1-.77,1.65-2,1.65a2.87,2.87,0,0,1-2-.76"/></g></g></svg>