<svg id="Layer_1" data-name="Layer 1" xmlns="http://www.w3.org/2000/svg" xmlns:xlink="http://www.w3.org/1999/xlink" viewBox="0 0 652.08 273.48"><defs><style>.cls-1{fill:none;clip-rule:evenodd;}.cls-2{clip-path:url(#clip-path);}.cls-3{fill:#fcfcfc;}.cls-4{fill:#d3ced6;}.cls-5{fill:#aea5b4;}.cls-6{fill:#ada4b4;}.cls-7{fill:#d9d5dc;}.cls-8{fill:#afa6b6;}.cls-9{fill:#b3abba;}.cls-10{fill:#aea5b5;}.cls-11{fill:#b4abbb;}.cls-12{fill:#b5acbc;}.cls-13{fill:#635370;}.cls-14{fill:#786884;}.cls-15{fill:#7a6d84;}.cls-16{fill:#685875;}.cls-17{fill:#766682;}.cls-18{fill:#796984;}.cls-19{fill:#786984;}.cls-20{fill:#766683;}.cls-21{fill:#675774;}.cls-22{fill:#695976;}.cls-23{fill:#685874;}.cls-24{fill:#6a5a77;}.cls-25{fill:#6b5b78;}.cls-26{fill:#70607d;}.cls-27{fill:#736380;}.cls-28{fill:#796c84;}.cls-29{fill:#746481;}.cls-30{fill:#6c5c79;}</style><clipPath id="clip-path" transform="translate(-113.96 -288.54)"><path class="cls-1" d="M136.29,288.54H766V539.69A22.34,22.34,0,0,1,743.7,562H114V310.88a22.34,22.34,0,0,1,22.33-22.34Z"/></clipPath></defs><g class="cls-2"><path class="cls-3" d="M114.46,562c-.15-.1-.51.24-.48-.24,0-.29,0-.57,0-.85q0-135.61,0-271.21c0-.91.2-1.12,1.11-1.12l649.81,0c.36,0,.83-.28,1.09.23a1.55,1.55,0,0,1-.41.25,10,10,0,0,1-2.78.15H117.67c-3.11,0-2.8-.22-2.8,2.82q0,91.33,0,182.65c0,1.1-.11,2.2,0,3.3.08.84,0,1.69,0,2.54q0,39.37,0,78.74a8,8,0,0,1-.13,2.29A1.82,1.82,0,0,1,114.46,562Z" transform="translate(-113.96 -288.54)"/><path class="cls-4" d="M765.68,288.89l.29,0v174.9a.28.28,0,0,1-.39-.11,1.47,1.47,0,0,1-.18-.68c-.14-12.11-.06-24.22,0-36.33,0-1.17,0-2.34,0-3.52q0-65.87,0-131.75A3.85,3.85,0,0,1,765.68,288.89Z" transform="translate(-113.96 -288.54)"/><path class="cls-5" d="M480.76,562H329.05a.27.27,0,0,1,.09-.38,1.29,1.29,0,0,1,.41-.16c2-.15,4-.07,6-.05.52,0,1,0,1.55,0,.31,0,.61,0,.92,0,1.33-.08,2.67,0,4,0h39.69a14.23,14.23,0,0,1,1.46,0c2.45,0,4.91,0,7.36,0,.73-.07,1.46,0,2.18,0h65.65a13.62,13.62,0,0,1,1.69,0c1,0,2,0,3.05,0,2.64,0,5.28-.06,7.92,0q1.49-.06,3,0c2,0,4.05,0,6.07,0a1.12,1.12,0,0,1,.64.19A.28.28,0,0,1,480.76,562Z" transform="translate(-113.96 -288.54)"/><path class="cls-6" d="M615.72,562H513.28c0-.08,0-.15,0-.23a.91.91,0,0,1,.37-.27,37.5,37.5,0,0,1,5.3-.12c2.21,0,4.43,0,6.64,0,.6,0,1.2,0,1.8,0a12.71,12.71,0,0,1,1.38,0c6.35-.09,12.7,0,19,0,4.16,0,8.33-.06,12.49,0a15.14,15.14,0,0,1,2.13,0c10.69,0,21.39,0,32.08,0a11.93,11.93,0,0,1,1.69,0c.92,0,1.84,0,2.76,0,.69,0,1.38,0,2.07,0,4.45-.08,8.9,0,13.35,0a2.26,2.26,0,0,1,1.17.23A.41.41,0,0,1,615.72,562Z" transform="translate(-113.96 -288.54)"/><path class="cls-7" d="M765.77,463.75h.2q0,48.59,0,97.16c0,.35.28.82-.23,1.09a2.19,2.19,0,0,1-.26-.41,5.79,5.79,0,0,1-.14-1.81q0-46.92,0-93.84C765.34,465.2,765.14,464.39,765.77,463.75Z" transform="translate(-113.96 -288.54)"/><path class="cls-8" d="M254.77,562H173.45a.38.38,0,0,1,.19-.39,6.87,6.87,0,0,1,2.85-.23c1.57,0,3.14,0,4.7,0,1,0,2,0,3,0,4.81-.12,9.63,0,14.44,0,2.17,0,4.34,0,6.51,0a14.59,14.59,0,0,1,1.62,0c2-.06,4,0,6,0,2.79.08,5.57-.11,8.36,0,.68,0,1.36,0,2,0,.38,0,.76,0,1.14,0q6-.09,12.11,0c.75,0,1.5,0,2.26,0a6.76,6.76,0,0,1,.9,0c2.13-.06,4.25-.06,6.38,0,.83,0,1.66,0,2.48,0,1.87,0,3.73,0,5.59,0a1.26,1.26,0,0,1,.63.19A.28.28,0,0,1,254.77,562Z" transform="translate(-113.96 -288.54)"/><path class="cls-9" d="M765.7,561.72l0,.28H691.45a.41.41,0,0,1,.2-.4,2.21,2.21,0,0,1,1.16-.22c3.26,0,6.51,0,9.76,0q1.39-.06,2.79,0,6.89-.09,13.77,0,9-.07,17.94,0,9.33-.07,18.64,0c1.72,0,3.43,0,5.15,0,1.2-.06,2.4,0,3.6,0A1.68,1.68,0,0,1,765.7,561.72Z" transform="translate(-113.96 -288.54)"/><path class="cls-9" d="M254.77,562v-.22a1.59,1.59,0,0,1,1.34-.41c3.24,0,6.47-.06,9.7,0a13.26,13.26,0,0,1,1.41,0c3.17-.07,6.35,0,9.52,0,.82.1,1.64,0,2.45,0,.58,0,1.16,0,1.74,0h.87c1,0,2,0,3.07,0,.74,0,1.48,0,2.22,0,1.65,0,3.3,0,5,0,.6,0,1.19,0,1.79,0,.3,0,.61,0,.91,0,5.57-.06,11.14-.07,16.71,0a11.42,11.42,0,0,1,1.17,0q6.31-.09,12.63,0h.92c1,.07,2-.31,2.87.39a1.48,1.48,0,0,0,0,.21Z" transform="translate(-113.96 -288.54)"/><path class="cls-9" d="M173.44,561.79c0,.07,0,.14,0,.21h-59v-.25a1.86,1.86,0,0,1,1.36-.38c3.27,0,6.53,0,9.79,0,4.12,0,8.25-.06,12.37,0,3.73-.06,7.45,0,11.17,0,4,0,8.08-.06,12.12,0,3.61-.06,7.22,0,10.83,0a2.23,2.23,0,0,1,1.16.24Z" transform="translate(-113.96 -288.54)"/><path class="cls-10" d="M691.44,561.8a1.34,1.34,0,0,1,0,.2H636.59a.41.41,0,0,1,.21-.4,2.26,2.26,0,0,1,1.17-.23c6.57,0,13.13,0,19.7,0,2.34,0,4.69,0,7,0q1.51-.06,3,0c7.46-.08,14.92,0,22.39,0a2.18,2.18,0,0,1,1.17.25Z" transform="translate(-113.96 -288.54)"/><path class="cls-11" d="M513.29,561.8a1.41,1.41,0,0,1,0,.2H480.76v-.21a1.56,1.56,0,0,1,1.34-.42c4.13,0,8.25-.06,12.38,0a15,15,0,0,1,1.64,0c4-.07,8,0,11.94,0a21.12,21.12,0,0,0,2.25,0,16.35,16.35,0,0,1,2,0A1.13,1.13,0,0,1,513.29,561.8Z" transform="translate(-113.96 -288.54)"/><path class="cls-12" d="M636.59,561.77V562H615.72c0-.07,0-.14,0-.21l.16-.17a2.19,2.19,0,0,1,1.18-.24c2.86,0,5.73,0,8.6,0,3.19-.07,6.38,0,9.57,0a2.2,2.2,0,0,1,1.18.24Z" transform="translate(-113.96 -288.54)"/><path class="cls-13" d="M765.68,288.89c0,.44.05.89.05,1.33V425.41c0,.41,0,.81,0,1.21-.6.19-1.1-.16-1.61-.35-5.22-1.94-10.3-4.26-15.64-5.88a60,60,0,0,1-9.76-3.9,2.92,2.92,0,0,1-1.59-1.24,10.36,10.36,0,0,1-.1-2.78,1.55,1.55,0,0,1,.38-1,3.93,3.93,0,0,0,.09-4.79,1.51,1.51,0,0,1-.35-1c-.25-6.22-.15-12.43-.14-18.65,0-3.3-.28-6.61.24-9.9a3.86,3.86,0,0,0,0-1c0-2.49,0-5,0-7.47,0-2.65.07-5.29-.12-7.94-.1-1.36.19-2.72.13-4.08a8.23,8.23,0,0,1-.22-2.52c.4-4-.21-7.94,0-11.91.11-1.84.15-3.69.29-5.53a5.34,5.34,0,0,0,0-2.86c.05-3.29-.56-6.57-.14-9.87a23.48,23.48,0,0,0-.24-4.81c-.08-.93-.81-1-1.5-1s-1.52.18-2.29.17a6.9,6.9,0,0,1-2.26-.31,3.75,3.75,0,0,0-2.6,0,12.05,12.05,0,0,1-4.4.38,47.74,47.74,0,0,0-6.87,0c-1,0-1.54-.2-1.74-1.16a1.1,1.1,0,0,0-1-.38,21.15,21.15,0,0,0-4.21.18,18,18,0,0,1-2.65-.06c-3.63.2-7.26-.33-10.89.06-1,.11-2.1.05-3.15.06-.91-.21-1.32.06-1.32,1.08,0,4.16-.13,8.32-.13,12.48,0,4.71.17,9.44.15,14.16a32.69,32.69,0,0,1-.32,5.32,17.07,17.07,0,0,0,.18,3.49c.27,5.09.2,10.17.05,15.26a43,43,0,0,0,0,7.86,21.32,21.32,0,0,1,.09,2.53,38.74,38.74,0,0,1-.23,8.61,49.57,49.57,0,0,0,0,8.7c0,4.74.26,9.49-.21,14.23-.07.7-.11,1.39-1,1.62a2.2,2.2,0,0,0-.32.21,3.18,3.18,0,0,0-.12,2.35c-.22,1,.42,1.47,1.25,1.77a1.92,1.92,0,0,1,.35,1.37c-.06,1.57-.2,3.13-.38,4.68-.56.77-1.3.49-2,.29a6.93,6.93,0,0,1-3.79-2.7c-1.76-2.55-4.12-3.19-7-2.63-4.54.89-7.81-1.16-10.53-4.5a9.2,9.2,0,0,0-1.82-1.76,1.38,1.38,0,0,0-1.78,0c-1.44,1-3.1,1.71-4.19,3.23a2,2,0,0,1-2.66.25,5.48,5.48,0,0,0-3.09-.89,4.88,4.88,0,0,1-2.72-.94c-4.08-2.87-8.81-4.15-13.46-5.65-.75-.25-1.6-.4-1.88-1.34-.13-1.94,0-3.87,0-5.81q0-10.75,0-21.52a3.48,3.48,0,0,0-.19-1.66,1.12,1.12,0,0,0-1.32-.6c-2.81.35-5.63-.13-8.44.19a3,3,0,0,1-.73,0,64.24,64.24,0,0,0-8.44,0c-.87-.14-1,.37-1,1.07,0,1.74.13,3.49,0,5.21-.41,4.48.3,8.95,0,13.43-.49,1.69-.55,1.73-2.1.87-2.47-1.37-4.9-2.82-7.34-4.24a9.75,9.75,0,0,0-4.48-1.32,10.92,10.92,0,0,1-5.57-1.8c-5.85-3.9-12.09-7.14-18.22-10.55a14.82,14.82,0,0,0-5.26-1.73c-.54-.07-1-.18-1.26-.77a12.58,12.58,0,0,1-.12-2.81c-.08-1.62,0-3.23,0-4.85q0-21.13,0-42.28c0-.37,0-.73,0-1.09,0-1.64-.21-1.84-1.84-1.68a47.45,47.45,0,0,1-5.2-.11c-.73,0-1.45-.06-2.17,0-2.17,0-2,0-2.18,2.2-.26,4.24-.17,8.48-.21,12.72,0,2.67.4,5.33.2,8-.3,3.83-.1,7.67-.22,11.5,0,5.86,0,11.72,0,17.58a10.82,10.82,0,0,1-.08,2.05,3.78,3.78,0,0,1-1.59,1.91,55.32,55.32,0,0,1-6.83,4.16c-3.92,2.35-7.76,4.84-12,6.49a15.8,15.8,0,0,0-5,3.53,36.12,36.12,0,0,1-8.09,5.31c-6.61,3.53-13.1,7.27-18.74,12.23a29.3,29.3,0,0,1-5.12,3.65,25.42,25.42,0,0,0-4.12,3.18,36,36,0,0,1-8.94,5.55,103.65,103.65,0,0,0-13,7.08,32.72,32.72,0,0,1-5.07,2.59c-3.28,1.36-6.12,3.45-9.09,5.33q-6.19,3.94-12.65,7.42c-3.89,2.08-7.64,4.38-11.35,6.76-2.74,1.77-5.47,3.61-8.94,3.75a6.92,6.92,0,0,0-3.19,1.43,38.48,38.48,0,0,1-9.34,4,18.35,18.35,0,0,0-4.16,1.94c-3.8,2.31-8,2.74-12.27,2.35-.49,0-1-.06-1.45-.06h-.74a4.4,4.4,0,0,1-.73-.06,13.93,13.93,0,0,1-5.61-2.49c-3.29-2.45-7.08-3.86-10.88-5.25-4-1.46-8-2.8-11.56-5.24a22.94,22.94,0,0,1-2.14-1.78,19.4,19.4,0,0,0-6.26-3.38,6.21,6.21,0,0,1-2.06-1,8.69,8.69,0,0,0-2.85-1.43,2.74,2.74,0,0,1-1.1-.56c-1.54-.89-3.17-1.57-4.76-2.36a126.54,126.54,0,0,1-12.09-6.63,41,41,0,0,0-9.17-4l-.35-.11a10.69,10.69,0,0,0-6.73-.84,16.08,16.08,0,0,0-3.67,1.56c-4.22,2.3-8.52,4.44-12.52,7.14a8.21,8.21,0,0,1-5,1.49,2.48,2.48,0,0,1-.54-.06,15,15,0,0,1-4.45-1.86,48.31,48.31,0,0,0-6-3.08,19.09,19.09,0,0,1-8.09-6.37,5.86,5.86,0,0,0-1.53-1.53l-.3-.2a2.67,2.67,0,0,0-1.06-.54,30.56,30.56,0,0,1-7-2.81c-.17,0-.35-.07-.52-.12a4.92,4.92,0,0,0-1.58-.16h-1.46c-4.16.16-8.08,1.05-11.43,3.72-5.45,4.34-11.76,7.24-17.85,10.48-2.07,1.1-4.43,1.5-6.63,2.31a150.1,150.1,0,0,0-15,6.8,34,34,0,0,1-6.55,2.51,31.38,31.38,0,0,0-9.65,5,86.36,86.36,0,0,1-15.92,8.72c-5.87,2.42-11.82,4.63-17.56,7.36a3.83,3.83,0,0,1-2,.57c-.28,0-.55-.15-.82-.21a2.63,2.63,0,0,1-2.39-2.91,12.61,12.61,0,0,0-1.15-5,9.59,9.59,0,0,0-7.23-5.81,16.63,16.63,0,0,0-3.59-.23c-4.33.06-8.66.14-13,0a18.89,18.89,0,0,0-6.33.72c-3.9,1.19-6.3,3.61-7,7.29-.19,1.08-.1,2.17-.2,3.26-.14,1.53-.75,2.51-2.32,2.78a12.15,12.15,0,0,0-6.72,5.2c-.17.24-.19.65-.65.59,0-.48,0-1,0-1.45q0-93.08,0-186.16c0-1.79-.2-1.57,1.52-1.57H765.68Z" transform="translate(-113.96 -288.54)"/><path class="cls-14" d="M114.47,478.06a12.47,12.47,0,0,1,7-6.05,6.68,6.68,0,0,1,4.07,6.94,8.44,8.44,0,0,0-.06,1.81,91.84,91.84,0,0,1,0,10.88c0,2.17-.15,2.34-2.36,2.3-1.79,0-3.54.35-5.33.29a.47.47,0,0,0-.53.31,3.72,3.72,0,0,0,2.48.6c4.24,0,8.48.08,12.72,0a29.81,29.81,0,0,0,3.27-.14,2.12,2.12,0,0,1,2.49,1.25,2.28,2.28,0,0,1-1.27,2.84,23,23,0,0,1-5.23,1.88c-1.5.33-3,.69-4.5,1s-2.06.7-2,2.37c.24,3.79.2,7.58.21,11.38,0,.44,0,.89,0,1.33-.09,1.19-.44,1.58-1.66,1.62-1.9.06-3.8,0-5.7,0-.33,0-.85-.14-.91.33s.43.62.81.76a2.19,2.19,0,0,0,.72.09c3.38,0,6.76.44,10.16.06,1.48-.17,3,.16,4.47.1.64,0,1.28,0,1.93,0,2.29-.29,2.95.22,3.33,2.54a.92.92,0,0,1-.62,1,20.62,20.62,0,0,0-7.94,1.88,19.43,19.43,0,0,1-3,.81,1.66,1.66,0,0,0-1.32,1.63,28.84,28.84,0,0,0,0,7.82c.27,2-.17,4,0,6,.11,1.25-.39,1.64-1.68,1.68-1.66.06-3.32,0-5,0-.42,0-.9-.13-1.3.37a3.43,3.43,0,0,0,2.79.78c4.16,0,8.31.09,12.47.06a29.82,29.82,0,0,0,3.27-.15c2-.23,2.85.62,2.73,2.62a1.36,1.36,0,0,1-.76,1c-2.77-.2-5.22,1.1-7.82,1.72-1.09.27-2.17.6-3.26.89A1.39,1.39,0,0,0,126,552.3c.07,2.69-.57,5.37,0,8.06a1.51,1.51,0,0,1-.32,1.37l-11.16,0c0-.36,0-.72,0-1.09q0-40.87,0-81.76C114.43,478.62,114.46,478.34,114.47,478.06Z" transform="translate(-113.96 -288.54)"/><path class="cls-15" d="M737.33,387.09c0,4.93,0,9.86,0,14.78,0,1.39.47,2.77.06,4.17,0,.09,0,.3.1.32,1.73.39.86,1.79,1,2.76a7,7,0,0,1,0,1.45c0,.24,0,.64-.13.68-1.88.72-.8,2.32-1.07,3.5a3.56,3.56,0,0,0,0,.73,1.23,1.23,0,0,1,.32.89c-.11,1.41.13,2.83,0,4.22a31.85,31.85,0,0,0-.19,4.58c.07,4.36.05,8.72,0,13.09,0,1.24-.06,2.49-.19,3.74a55.44,55.44,0,0,0,.23,6c0,.74.48.91,1.14.93a41.33,41.33,0,0,1,9.84.9c1.59.41,3.23.66,4.8,1.18a20.69,20.69,0,0,1,11.27,9.06,8,8,0,0,1,1.19,3.14c0,.17,0,.34.07.5,0,.53,0,1.05,0,1.58v94.82c0,.52,0,1.05,0,1.57h-4.82a2,2,0,0,1-.37-1.49c0-14.31,0-28.62,0-42.92,0-4.56-.34-9.11-.24-13.67a35.53,35.53,0,0,1,.22-3.86c.31-2.32-.12-4.68.42-7,.19-.83-.34-1.64-.38-2.5a21.41,21.41,0,0,1,.42-5.3,12.59,12.59,0,0,0,.14-4.7,3.89,3.89,0,0,1-.07-1c.33-3.82-.75-7.44-1.49-11.11a5,5,0,0,0-.81-2c-1.36-1.91-2.56-3.92-3.88-5.86a8.19,8.19,0,0,0-3.37-2.49,34,34,0,0,0-3.22-1.4,12.1,12.1,0,0,0-4.62-.85c-3.19,0-6.39.14-9.58-.09a1.58,1.58,0,0,0-1.33.46c-1.77,2.06-4.16,3.48-5.87,5.57a35.85,35.85,0,0,1-4.9,4.49,15.94,15.94,0,0,0-1.88,1.7c-.39.46-.89,1-1.51.83s-.63-1-.73-1.66a4,4,0,0,1,0-1.09A54.28,54.28,0,0,0,718,458c0-4.33.67-8.61.54-12.95-.1-3-.69-6-.56-9.07a42,42,0,0,0,.26-6c-.4-4,0-8-.43-12-.27-2.71,0-3.09,2.69-3.81a19.53,19.53,0,0,1,2.63-.45,68.84,68.84,0,0,0,9.21-2.1c-5.48.58-10.71.23-15.94.16-2.94.31-5.88.24-8.83.26-1.28,0-1.4.17-1.44,1.51,0,.77,0,1.53,0,2.3a1.16,1.16,0,0,1-1.3,1.26c-4.23.05-8.47.07-12.7,0a1.85,1.85,0,0,1-.91-.32c-1.69.36-1.32-.76-1.21-1.69a6.37,6.37,0,0,1,0-2.68,69.13,69.13,0,0,1,11-.59c1.42,0,1.51,0,1.52-1.46,0-4,0-7.92,0-11.87a3.06,3.06,0,0,1,.31-1.88,3,3,0,0,1,2.74-.07,4.47,4.47,0,0,1,.29,3.17c-.22,1.82-.1,3.63-.15,5.45,0,.91.37,1.32,1.3,1.3,3-.09,6,.48,9.07,0,1.29-.2,1.46-.24,1.49-1.52a17.13,17.13,0,0,1,.6-5.73,7.84,7.84,0,0,0,.07-3.61,52.94,52.94,0,0,1-.16-6.78c0-1.5.26-1.71,1.8-1.74a5.36,5.36,0,0,0,1.44-.12,8.68,8.68,0,0,1,2.16-.18h12A2.54,2.54,0,0,1,737.33,387.09Z" transform="translate(-113.96 -288.54)"/><path class="cls-16" d="M765.7,463.25a20.76,20.76,0,0,0-9.8-10.77,16.57,16.57,0,0,0-6.85-2.07c-1.33-.11-2.52-.81-3.88-.84a60.55,60.55,0,0,0-6.6-.2c-.65.06-1.44.12-1.48-.92a65.46,65.46,0,0,1-.2-8.28c.41-5.09.15-10.18.17-15.26,0-3.15.35-6.29.28-9.43a56.94,56.94,0,0,0,9.85,4.19c6.15,1.8,12,4.46,18,6.68a5.44,5.44,0,0,1,.54.27c0,5.62,0,11.24,0,16.86Q765.73,453.37,765.7,463.25Z" transform="translate(-113.96 -288.54)"/><path class="cls-16" d="M355.5,445.32a1.36,1.36,0,0,0,1,.48,5.91,5.91,0,0,0,2.92,1.46,4.8,4.8,0,0,0,1.94,1c.59.88,1.64,1,2.49,1.38,2.76,1.25,4.79,3.5,7.31,5.09a41.16,41.16,0,0,0,6.8,3.09c2.12.85,4.28,1.62,6.44,2.39a41.51,41.51,0,0,1,9.39,5.17,5.22,5.22,0,0,0,4,1.07h.73c1.37,1.41,3.25,1.75,5,2.22a7.27,7.27,0,0,1,3.72,2.34,18.15,18.15,0,0,0,4,3.34,5.25,5.25,0,0,0,2.88.76,41.56,41.56,0,0,1,6.79.14c3.76.64,7.1,2.38,10.38,4.23,3.49,2,7,3.88,11,4.59,5.27.92,10.49,1.1,15.68-.59,3.7-1.21,7.62-1.33,11.46-1.83,1.12-.15,2.22-.38,3.35-.5,1.68-.17,3.37-.09,5.06-.18a62.67,62.67,0,0,0,10.66-1.44,28.22,28.22,0,0,1,4.53-.77,7.12,7.12,0,0,0,6-3.92,15.11,15.11,0,0,0,1.55-3.93c.16-.67.4-1.32.61-2a5.33,5.33,0,0,1,4-3.83c2.58-.69,4.88-2.15,7.4-3a3.14,3.14,0,0,0,1.11-.71,84.08,84.08,0,0,0,8.24-9,13.4,13.4,0,0,0,2.21-4.42,13,13,0,0,1,2.81-4.9c1.38-1.53,2.49-3.27,4-4.71a14.17,14.17,0,0,1,6.93-3.77c2.85-.6,5-2,4.75-6.05a23.22,23.22,0,0,0-.41-3.11,16.5,16.5,0,0,0-1.14-3.57,3,3,0,0,1-.17-2.35,3.47,3.47,0,0,0-.32-2.8c-.52-1.1-1.11-2.16-1.53-3.3a2.76,2.76,0,0,1,.86-3.59A27.57,27.57,0,0,1,545.2,406c1.17-.56,2.26-1.25,3.41-1.85a3.56,3.56,0,0,0,1.91-3.05,19.6,19.6,0,0,0-.09-4.84,2,2,0,0,1,1-2.29c2.54-1.33,5-2.75,7.64-3.95a.85.85,0,0,1,.92,0,.89.89,0,0,1,.19.36,2,2,0,0,1-.07,1.42c-1,1.82-.43,3.77-.51,5.67,0,.47.33.8.53,1.19a3.44,3.44,0,0,1,.18,1.31q0,5.73,0,11.45a3.64,3.64,0,0,1-.15,1.19c-1,1.27-.5,2.79-.62,4.2,0,.26.55.21.61.58a49.06,49.06,0,0,1,.13,6.53,19.44,19.44,0,0,1,0,2c0,1.2.06,2.39,0,3.58a12.34,12.34,0,0,1,0,1.36q0,4.33,0,8.67a5.17,5.17,0,0,0,.18,1.66,33.46,33.46,0,0,1,0,5.75c-.4,1.33-.06,2.68-.17,4,0,1.61,0,3.23,0,4.84,0,7,0,13.93,0,20.89a5.4,5.4,0,0,0,.17,1.79,15.5,15.5,0,0,1,0,3.91,23.72,23.72,0,0,0,0,6.41,19.24,19.24,0,0,1-.08,5.14,3.21,3.21,0,0,0,0,4.45,5.19,5.19,0,0,1,.18,1.8c0,3.87-.13,7.74-.21,11.61-.14,6.89.48,13.79.18,20.69s-.12,13.64-.23,20.45c0,2.47.3,4.91.26,7.38a2.86,2.86,0,0,1-.17,1.42H528.59a.89.89,0,0,1-.31-.65c.07-2.29-.32-4.59-.12-6.88a16,16,0,0,0,0-3.39,60.78,60.78,0,0,1-.17-7.39,7.47,7.47,0,0,1,.57-3,36.78,36.78,0,0,0,2.36-10.13,36.24,36.24,0,0,0-.19-7.85c-.16-1.27-.45-2.54-.65-3.82a21.89,21.89,0,0,0-3.46-8.47c-2-3.15-3.84-6.48-6.66-9.06a40.18,40.18,0,0,0-9-6.08,30.39,30.39,0,0,0-10-3.31,1.6,1.6,0,0,1-1.49-1.5,11.8,11.8,0,0,1-.18-1.44.86.86,0,0,0-1-1c-2.71.06-5.42,0-8.13,0-.75,0-1.14.33-1.11,1.1,0,.24,0,.48,0,.72,0,1.65-.29,2-1.9,2.24a33.26,33.26,0,0,0-6.14,1.39,14.71,14.71,0,0,0-2.46,1c-.92.68-2.1.82-3.06,1.43a39.83,39.83,0,0,0-11.43,10.86,17,17,0,0,0-2.94,5.65,1.94,1.94,0,0,1-2.12,1.57,33.32,33.32,0,0,0-5.9.4c-1.29.27-2.58-.19-3.87-.16-3.51,0-7-.24-10.54.2a1.93,1.93,0,0,1-.48,0c-4.87-.61-9.76-.13-14.64-.21-6.47-.09-12.94,0-19.41,0-1.41,0-2.8-.22-4.23-.07a14,14,0,0,0-7.58,2.9,9.75,9.75,0,0,1-1.54,1,12.17,12.17,0,0,0-6.2,8.22,30,30,0,0,0-1.06,6.69,52.27,52.27,0,0,0,.23,5.31,71.52,71.52,0,0,1-.14,12,39.59,39.59,0,0,0-.22,8.57,4.19,4.19,0,0,1-.31,3.06c-5.58,0-11.16,0-16.74,0l-28.64,0a1.33,1.33,0,0,1-.33-1c0-2.54.06-5.08-.24-7.62a9.59,9.59,0,0,1,.72-4.15,29.08,29.08,0,0,0,1.7-10.34c-.16-4.55-1-8.89-3.58-12.77-1.65-2.49-3.15-5.06-5.44-7.08a31.05,31.05,0,0,0-6.56-4.3,23.32,23.32,0,0,0-7.55-2.54,1.27,1.27,0,0,1-1.16-1.31c-.2-1.71-.23-1.69-2-1.65-1.54,0-3.08,0-4.61,0-1,0-1.49.27-1.49,1.36,0,1.34-.29,1.6-1.64,1.77A23.91,23.91,0,0,0,294.07,517c-.9.67-1.19.65-1.91-.22-1.14-1.38-1.88-3-3-4.39a27.56,27.56,0,0,0-8.57-6.64,28.57,28.57,0,0,0-8.62-3.13c-1.65-.28-1.81-.53-1.95-2.26-.07-.84-.42-1.12-1.21-1.11q-3,0-6.07,0c-1,0-1.38.32-1.34,1.36.08,1.52-.14,1.72-1.61,2a34.31,34.31,0,0,0-5.53,1.35,10.5,10.5,0,0,0-1.86.87c-4.23,1.48-7.2,4.63-10.22,7.73-.34.36-.57.95-1.25.69a67.1,67.1,0,0,0-6-10.56,22.77,22.77,0,0,0-3.92-4.55c-.63-.56-1.51-1-1.51-2,.48-1.71.42-3.52.91-5.23.4-1.37.8-2.64,2.35-3.11a1.92,1.92,0,0,0,.7-.47,10.92,10.92,0,0,1,5.91-2.58,8.57,8.57,0,0,0,3-1,3,3,0,0,0,1.65-2.65,4.65,4.65,0,0,1,2.08-3.75,21.61,21.61,0,0,1,8.14-4.14,15,15,0,0,0,3.28-1.25,4.88,4.88,0,0,0,2.6-2.57,2,2,0,0,1,.51-.82c1.86-1.69,1.82-3.85,1.49-6.06-.19-1.27-.22-2.4,1.17-3.09.6-.3.64-1,.67-1.6.09-1.57-.55-3-.8-4.52-.44-2.58-.08-3.41,2.44-4.12,3-.84,4.24-3.3,5.7-5.62a2.12,2.12,0,0,0,.1-1.66,17.25,17.25,0,0,0-2-5.18,10.2,10.2,0,0,1-1.42-7.42,25.73,25.73,0,0,1,.36-2.76,3.7,3.7,0,0,1,.78-1.87h.73a1.21,1.21,0,0,0,1.7.24H272c1,1.38,2.64,1.76,4.12,2.33s2.81.72,4.13,1.31c1.71,2,3,4.34,5.22,5.79a22,22,0,0,0,5.33,2.78c1.41.45,2.65,1.49,4.06,2.09s2.48,1.78,4,2.13a2.3,2.3,0,0,0,1.53.06h.49c.33.56-.14.82-.45,1.09-.61.54-1.14,1.15-1.75,1.68a4.21,4.21,0,0,0-1.62,3.73,2.1,2.1,0,0,1-1.25,2.17,2.78,2.78,0,0,0-1.66,2.95,3.16,3.16,0,0,1-.61,1.93,10.09,10.09,0,0,0-1.66,4.51,3.54,3.54,0,0,1-2.77,3.28,15,15,0,0,0-6,4,5.26,5.26,0,0,0-1.66,3.16,5.86,5.86,0,0,1-3.56,5,15.19,15.19,0,0,0-3.26,2.09,4.75,4.75,0,0,0-1,1.06c-.35.54-.84,1.08-.54,1.77s1,.57,1.6.59a6.91,6.91,0,0,1,2,.46,3.53,3.53,0,0,0,3.14-.32c1-.57,1.89-1.25,2.81-1.9a2.51,2.51,0,0,1,2.51-.5c3.27,1.43,5.6-.24,7.58-2.45s4.3-3.91,6.42-5.89a3.9,3.9,0,0,1,3.56-.72,5.75,5.75,0,0,0,3.22-.27c2.4-1,4.83-1.93,5.9-4.65a2.88,2.88,0,0,1,2.39-1.81,30.38,30.38,0,0,1,4.93-.64,6,6,0,0,0,1.32-.18c1.77-.42,2-.87,1.62-2.65a12,12,0,0,0-1.15-3.55,1.78,1.78,0,0,1-.08-1.53,9.66,9.66,0,0,0,.09-5.61,17.29,17.29,0,0,1-.3-3.13,4.51,4.51,0,0,1,2.15-4.31c1.49-1,1.19-2.61,1.11-4.08,0-.59-.27-1.17-.34-1.78a2.79,2.79,0,0,1,1.39-3,1.8,1.8,0,0,1,1.7-.29,6.7,6.7,0,0,0,2.34.57h.24c.84.92,2.06,1,3.15,1.42,3.5,1.2,6.46,3.38,9.61,5.21,3.7,2.15,7.53,4,11.36,5.91C354.07,445.08,354.84,445,355.5,445.32Z" transform="translate(-113.96 -288.54)"/><path class="cls-15" d="M252.1,504.75c1.88-1.36,4.12-1.71,6.31-2.18.24-.05.48-.07.71-.12,1.94-.44,2-.44,1.88-2.44,0-.71.26-1.08,1-1.08,2.51,0,5,0,7.52,0,.55,0,.86.17.81.76v.12c.14,2.16.12,2.27,2.21,2.62a28.4,28.4,0,0,1,7.67,2.78,27.91,27.91,0,0,1,10,8c.88,1.14,1.47,2.49,2.36,3.65.41.54.62.53,1.12.13a22.65,22.65,0,0,1,12-5.16c.88-.09,1.37-.39,1.32-1.43-.09-1.72,0-1.68,1.72-1.73,2-.06,4,.23,6-.19.36-.07.63,0,.7.45a4.12,4.12,0,0,1,.2,1.06c-.26,1.57.78,1.69,1.91,1.86a18.21,18.21,0,0,1,5.25,1.69A39.24,39.24,0,0,1,329,517c3.17,2.28,5.29,5.45,7.36,8.68,3.18,5,3.88,10.45,3.54,16.12a24.15,24.15,0,0,1-1.68,7.36,9.27,9.27,0,0,0-.66,4.75c.37,2.61.11,5.23.22,7.85h-.74a16,16,0,0,1-.49-6.2c.19-4.63.23-9.27.08-13.9a3.94,3.94,0,0,0-.45-1.92,6,6,0,0,0-1.56,2.64,70.5,70.5,0,0,1-4.24,9c-1,1.51-1.79,3.18-3.73,3.79-.6.18-.41.82-.34,1.27a27.2,27.2,0,0,1,.15,4.23,1.49,1.49,0,0,1-.34,1.13h-.73a6.08,6.08,0,0,1-.55-3.05c0-2.58,0-5.16.13-7.75.23-3.62-.15-7.25-.2-10.88a.35.35,0,0,0-.25-.38c-.4.11-.49.5-.61.82a33.72,33.72,0,0,1-4,6.89,42.1,42.1,0,0,1-3.79,5.32c-.73.79-1.44,1.53-2.68,1.3-.7-.13-.79.4-.78.92a32.62,32.62,0,0,0,.14,4.84,2.28,2.28,0,0,1-.25,2h-1a7.66,7.66,0,0,1-.4-3.79c.11-5.49,0-11,0-16.48a2.67,2.67,0,0,0-.49-1.64,41.83,41.83,0,0,1-2,5,20,20,0,0,1-1.89,3.38c-.69,1-1.34,1.13-2.21.33-1.61-1.48-3.27-2.9-4.82-4.43-1.16-1.14-1.74-2.8-2.67-4.17-.15-.22-.18-.54-.57-.67a8.38,8.38,0,0,0-.64,3.51c-.06,4.32-.07,8.65,0,13a19.37,19.37,0,0,1,0,3.73c-.13.78,0,1.65-1.08,1.85-.09,0-.15.26-.26.39h-.74c-.59-.28-.58-.84-.58-1.36.1-5.69-.06-11.38.12-17.08.1-3.13-.07-6.29-.16-9.44,0-.31,0-.73-.38-.81s-.52.33-.65.6c-1.36,2.8-2.51,5.69-3.83,8.51a26,26,0,0,1-3.48,5.8,3.72,3.72,0,0,1-2.1,1.55c-.69.14-.7.68-.71,1.22,0,1.74.34,3.45.25,5.2-.06,1.13,0,2.26,0,3.39a3.56,3.56,0,0,1-.59,2.42H281a2.51,2.51,0,0,1-.35-1.85q0-12.42,0-24.85a5.73,5.73,0,0,0-.15-1.8c-.05-.19-.11-.42-.37-.4s-.26.17-.34.3a2.53,2.53,0,0,0-.21.44,61.77,61.77,0,0,1-8.75,13.6,2.81,2.81,0,0,1-2.69,1.3c-.68-.08-.85.32-.84.88.05,2.74-.12,5.49.13,8.23.12,1.38.43,2.81-.25,4.15h-1.22c-.48-.55-.34-1.22-.34-1.85q0-12.42,0-24.84a3.45,3.45,0,0,0-.47-2.25,36.21,36.21,0,0,1-2,5.12A29.78,29.78,0,0,1,261,542c-.92,1.45-1.59,1.56-2.9.4-1-.88-1.82-2-2.87-2.79-3-2.36-4.63-5.65-6.11-9a39.48,39.48,0,0,1-1.65-5.69,4.16,4.16,0,0,1,0-1.92,46.42,46.42,0,0,0,.64-6.86A20.26,20.26,0,0,1,252.1,504.75Z" transform="translate(-113.96 -288.54)"/><path class="cls-16" d="M460.12,561.73l-9.22,0H392l-1.57,0a1.71,1.71,0,0,1-.38-1.37c.15-4.44-.48-8.88-.22-13.32.28-5,.09-9.93.24-14.9a12.84,12.84,0,0,1,1.65-6.5,8.61,8.61,0,0,1,4.5-3.69c1.41-.52,2.86-.91,4.21-1.55a2.4,2.4,0,0,1,1.19-.16,92.14,92.14,0,0,0,11.75,0c2.5-.18,5,.13,7.5.15,3.76,0,7.53-.09,11.28.06,3.91.16,7.83-.08,11.72.43a5.58,5.58,0,0,0,1.58,0,40.25,40.25,0,0,1,6.4-.42,35.6,35.6,0,0,0,4.73-.14c1.4-.17,1.93.43,1.63,1.74a24.15,24.15,0,0,0-.19,8.56c.42,3.23.72,6.51,2.16,9.53a5.72,5.72,0,0,1,.29,2.14c.23,3.8-.06,7.59,0,11.38,0,2.18,0,4.36,0,6.54A2.19,2.19,0,0,1,460.12,561.73Z" transform="translate(-113.96 -288.54)"/><path class="cls-17" d="M460.12,561.73c0-4-.1-8,0-12,.09-2.49-.07-5,0-7.46a5.74,5.74,0,0,0-.53-2.81c-1.35-2.68-1.37-5.67-1.91-8.53a37.07,37.07,0,0,1-.26-5.67,10.41,10.41,0,0,1,.51-3.56c.3-.92-.14-1.28-.91-1.16-3.88.56-7.8-.09-11.69.63a14.65,14.65,0,0,1-4.92-.27c-.84-.14-1.6.15-2.37.08-5.68-.46-11.38-.16-17.06-.26-1.9,0-3.82-.18-5.75-.08a111.57,111.57,0,0,1-12.67,0c-2.43-.15-4.29,1.07-6.36,1.75-3.63,1.2-5,4.18-5.54,7.74a51.31,51.31,0,0,0-.19,8.22c.06,3.88-.46,7.74-.25,11.61s.19,7.82.23,11.73h-7.3a42.25,42.25,0,0,0-.19-4.34,31.55,31.55,0,0,1,.29-6.86,77.15,77.15,0,0,0,.21-12.16,35.51,35.51,0,0,1,.68-11.84c1-4,3-7.06,6.7-9,1.87-1,3.46-2.47,5.56-3.11a15.1,15.1,0,0,1,5.89-.69c.4,0,.81.05,1.21.05,10,0,20,.06,30-.05,1.77,0,3.52.42,5.23.25,3-.31,5.89-.11,8.83-.18a16.91,16.91,0,0,1,3.62.18,7,7,0,0,0,2.64-.12,28.28,28.28,0,0,1,5.6-.31c.6,0,1.09,0,1.27-.79.7-3,2.57-5.27,4.3-7.71,2.48-3.5,5.72-6.07,9-8.65a20.65,20.65,0,0,1,4.59-2.27,5.61,5.61,0,0,1-1.11,2.63,25.32,25.32,0,0,0-3,8.6c-.36,2.69-.15,5.39-.58,8.07a15.87,15.87,0,0,1-.21,1.67,8.31,8.31,0,0,0,.41,5.45c.62,1.52.75,3.21,1.43,4.74a21.33,21.33,0,0,0,1.5,3,29.14,29.14,0,0,1,1.91,3.23,5.2,5.2,0,0,0,1.44,1.78c1.78,1.47,3.35,3.16,5,4.76a7.16,7.16,0,0,0,.73.63c1,.76,1.22.75,1.91-.32a43.19,43.19,0,0,0,4.56-9.73c.24-.71.3-1.79,1.2-1.75s.89,1.16,1,1.94a53.85,53.85,0,0,1,.21,7.62c.07,3.63.18,7.27-.07,10.88-.29,4.29.27,8.54.07,12.81,0,.56.09,1.14-.34,1.61l-13.83.07-.51-.06a10.77,10.77,0,0,1-5-2.34c-.71-.6-.91-.46-1,.46-.06.63.17,1.31-.3,1.87H471a1.85,1.85,0,0,1-.33-1.37c0-.89,0-1.78,0-2.66a3.1,3.1,0,0,0-1.33-2.91c-1.83-1.41-3.07-3.4-4.65-5.07a10.38,10.38,0,0,0-1.15-1.28c-.35.36-.2.78-.2,1.15,0,3.51,0,7,0,10.52a2.26,2.26,0,0,1-.33,1.62Z" transform="translate(-113.96 -288.54)"/><path class="cls-14" d="M326.13,561.72a40,40,0,0,0-.21-5.79c-.11-.6-.34-1.62,1-1.25.4.11.63-.3.88-.55a21.39,21.39,0,0,0,4.13-6.49c1.11-2.51,2.2-5,3.33-7.52.2-.45.46-1.08,1.06-.94s.43.76.49,1.24c.51,3.94.15,7.9.22,11.85,0,2-.15,4-.22,6,0,1.16.39,2.3.23,3.48h-1.46a2,2,0,0,1-.3-1.5c0-1.48,0-3,0-4.43a21,21,0,0,1-6,5.93l-.26.06Z" transform="translate(-113.96 -288.54)"/><path class="cls-16" d="M463.05,561.72v-14.2A4.79,4.79,0,0,1,464.6,549a24.79,24.79,0,0,0,4.29,4.82,5.33,5.33,0,0,1,2.17,5.41,23.89,23.89,0,0,0,0,2.54Z" transform="translate(-113.96 -288.54)"/><path class="cls-16" d="M329.3,561.73c1.33-1.45,2.85-2.7,4.23-4.09.82-.82,1.11-1.92,2.06-3v7.07Z" transform="translate(-113.96 -288.54)"/><path class="cls-16" d="M474,561.72c0-.84,0-1.69,0-2.52,0-.36.21-1.12.78-.57,1.58,1.5,3.58,2.19,5.47,3.1Z" transform="translate(-113.96 -288.54)"/><path class="cls-16" d="M559.89,398.5c-.66-.06-.73-.51-.73-1,0-1.49,0-3,0-4.46,0-1,1.09-1.68.72-2.76a2.36,2.36,0,0,1,1.73-.39c2.86,0,5.73.1,8.59,0,1.67-.1,1.67-.1,1.68-1.84,0-1.95,0-3.91,0-5.87-.07-1.23,0-2.46,0-3.7a1.66,1.66,0,0,1,.38-1.33,20.81,20.81,0,0,1,7.27,2.42c5.85,3.39,11.91,6.41,17.52,10.22a8.24,8.24,0,0,0,4.61,1.6,13.48,13.48,0,0,1,6.88,2.32c2,1.17,4.08,2.28,6.05,3.54.81.51,1.11.33,1.36-.45.44.43.34,1,.35,1.51-.39,5.67.25,11.34,0,17a7.34,7.34,0,0,1-.1,1.32,29.2,29.2,0,0,0,0,6.2,10.57,10.57,0,0,1,.1,1.78c0,.59,0,1.17,0,1.76-.06,1,0,2,0,3a3.46,3.46,0,0,1-.09.85,3.43,3.43,0,0,0-.13,1.46c0,2.11,0,4.23,0,6.34,0,3.45.14,6.9-.08,10.34a6.24,6.24,0,0,1-.28,1.54c-1.32,1.29-1.31,2.6,0,3.7A3.28,3.28,0,0,1,616,456a11.27,11.27,0,0,0,0,3.62,3.92,3.92,0,0,1,.07.84c0,5.61.45,11.21.27,16.82,0,1.05-.22,2.09-.26,3.14-.22,4.88.12,9.75.19,14.62.08,5.45.17,10.9,0,16.34,0,1.38.1,2.75,0,4.12a5,5,0,0,1-.17,1.68,1,1,0,0,1-.22.28c-.32.29-1,.1-1.11.59a5.78,5.78,0,0,0,0,1.66c0,.87,1,.64,1.3,1.24a3.78,3.78,0,0,1,.18,1.56c-.08,3.92.09,7.83-.18,11.75a66.72,66.72,0,0,0,.25,7.86,48.2,48.2,0,0,1-.07,8.58,88.24,88.24,0,0,0-.24,9.2c0,.64.09,1.31-.4,1.84l0,.06-14.81-.06a15.93,15.93,0,0,1-.78-4.72c.07-1.25.17-2.5.14-3.76,0-2.14.28-4.28.21-6.41-.27-7.84,0-15.68-.27-23.51-.16-4.61,0-9.2.13-13.8a65,65,0,0,0-.2-9.67,15.71,15.71,0,0,1,.15-2.9c.25-5-.1-9.93-.12-14.89a76.53,76.53,0,0,0-.12-8.83,10.3,10.3,0,0,0-4.13-7,11.61,11.61,0,0,0-8.71-2.25,71.07,71.07,0,0,1-10.42.08c-1.1,0-2.18.13-3.27.08-1.26-.07-1.56-.34-1.63-1.6,0-.44,0-.89,0-1.33q0-20.68,0-41.36a11.16,11.16,0,0,1,.36-3.24,5.32,5.32,0,0,0,0-2.88c-.6-2.12-.36-4.26-.4-6.39,0-2.42,0-4.85,0-7.28,0-1.26-.15-1.38-1.4-1.41-1.57,0-3.15,0-4.73,0A45.86,45.86,0,0,1,559.89,398.5Z" transform="translate(-113.96 -288.54)"/><path class="cls-18" d="M494.59,561.72c0-2.36.11-4.73,0-7.09a42.61,42.61,0,0,1-.19-5.3c.38-5.74.13-11.49.24-17.23,0-1.3-.19-2.56-.26-3.85,0-.49-.08-1.14-.56-1.22s-.65.61-.78,1A42.15,42.15,0,0,1,488,539c-.52.81-.86,1-1.67.33s-1.78-1.64-2.66-2.46-1.91-2-3-2.81a7.69,7.69,0,0,1-2.39-3,25.18,25.18,0,0,0-1.55-2.58,18.45,18.45,0,0,1-2.5-6.35,5.18,5.18,0,0,0-.44-1.5,8.43,8.43,0,0,1-.5-5.64,41.64,41.64,0,0,0,.5-6.6A23.81,23.81,0,0,1,477,496.78c.53-.9,1.06-1.8,1.58-2.71a19.83,19.83,0,0,1,6.7-2.18c.83-.15,1.66-.34,2.49-.42s1-.55,1-1.31c0-2.93-.43-2.59,2.64-2.64,2.39,0,4.77.12,7.15-.09.7-.06,1.29.2,1.13,1.12a3.1,3.1,0,0,0,0,.61c.09,1.83.19,2.14,2,2.34,4,.46,7.58,2.17,11.05,4,4.08,2.17,7.88,4.86,10.52,8.71a55.64,55.64,0,0,1,6.15,10.38,29.36,29.36,0,0,1,1.8,8.33c.47,5.26.3,10.57-1.59,15.56-1.51,4-1.33,8-1,12a12,12,0,0,1-.14,4.09c-.24.87.19,1.67.18,2.51,0,1.54,0,3.07,0,4.61h-1.23a2,2,0,0,1-.35-1.49c0-6-.1-12,0-17.93.1-4.36-.18-8.71,0-13.06,0-.16,0,0,0-.12,0-.51.13-1.24-.45-1.38s-.77.6-1,1c-1.7,3.61-3.26,7.29-4.91,10.93a29.28,29.28,0,0,1-4.57,7,2.1,2.1,0,0,1-1.44.83c-.86.06-1.06.56-1,1.32s.17,1.68.26,2.52a54,54,0,0,1,0,7.74,4.26,4.26,0,0,1-.6,2.63v.09l-1-.07a2.55,2.55,0,0,1-.35-1.86q0-15,0-30.07a6.85,6.85,0,0,0-.13-1.81c-.06-.2-.12-.43-.33-.48s-.39.21-.52.41a2.11,2.11,0,0,0-.2.43,38.46,38.46,0,0,1-5.1,8.92c-1.76,2.56-3.29,5.28-5.47,7.55-.93,1-1.78,1.71-3.23,1.34-1-.24-1.09.36-1,1.12.37,4.23.13,8.48.43,12.71a2.13,2.13,0,0,1-.34,1.74Z" transform="translate(-113.96 -288.54)"/><path class="cls-16" d="M596.29,561.72l-23.64,0c-3.44,0-6.87,0-10.31,0,.15-.66.71-.52,1.14-.57a11,11,0,0,0,2.37-.18,9,9,0,0,0,2.46-.59,4.31,4.31,0,0,1,2.75-.07c.61.16.82-.08.81-.65v-1q0-28.86,0-57.71a11.86,11.86,0,0,1,.35-3.35,5.5,5.5,0,0,0,0-3,12.24,12.24,0,0,1-.35-3.35q0-10.25,0-20.49a17.63,17.63,0,0,1,.12-2.3,1,1,0,0,1,.2-.41c.63-.48,1.37-.26,2.07-.3a13.85,13.85,0,0,0,2.73-.13c.62-.13,1.25-.11,1.87-.27a14.7,14.7,0,0,1,1.88-.09,4.7,4.7,0,0,1,1.06.1,20,20,0,0,0,3.79.14h3.35a6.39,6.39,0,0,1,1,.11,8.9,8.9,0,0,1,3.87,1.78,7.86,7.86,0,0,1,2.82,5.15,93.1,93.1,0,0,1,.14,15.12,22.58,22.58,0,0,0,0,3.39,114.44,114.44,0,0,1,.18,12.83c-.09,5.16-.29,10.32-.19,15.48.15,8.19-.58,16.38-.25,24.57.19,4.64.24,9.28.23,13.92A2.46,2.46,0,0,1,596.29,561.72Z" transform="translate(-113.96 -288.54)"/><path class="cls-19" d="M565.72,398.25c1.82,0,3.64,0,5.46,0,.84,0,1.11.24,1.11,1.1,0,3.92,0,7.84,0,11.76,0,1.67.64,3.24.51,5-1.16,15.39-.19,30.8-.54,46.2,0,1.28.38,1.58,1.57,1.51,3.12-.19,6.25,0,9.38.1,1.8.06,3.61-.26,5.41-.35a11,11,0,0,1,7.47,2.32,10.55,10.55,0,0,1,4.38,7.59c.26,2.86,0,5.72.1,8.55.13,3.46.09,6.92.27,10.38a35.56,35.56,0,0,1-.34,7,8.26,8.26,0,0,0,.21,2.51c.53,3.1.08,6.18-.15,9.26,0,.59.12,1.19.12,1.78,0,1.86-.23,3.73-.17,5.55.25,7.67.06,15.35.23,23a42,42,0,0,1,.14,6c-.39,3.26.16,6.54-.42,9.77a4.81,4.81,0,0,0,.43,2.11,6.35,6.35,0,0,1,0,2.38H599a3.59,3.59,0,0,1-.88-3.26,7.54,7.54,0,0,0,.08-2.88,17.77,17.77,0,0,1,.13-4c.15-3.88-.31-7.76-.14-11.62.26-6.27-.33-12.52,0-18.78.19-4-.21-8.06.17-12.1a29.22,29.22,0,0,0-.12-6.54,15.2,15.2,0,0,1,0-3.63,61.82,61.82,0,0,0,.13-10.18c-.2-3.68-.09-7.35-.18-11-.05-1.77.1-3.57-.75-5.23a14.6,14.6,0,0,0-1-1.68,7.19,7.19,0,0,0-2.88-3.15,1.67,1.67,0,0,1-.28-.18,5.52,5.52,0,0,0-1.13-.65,8.36,8.36,0,0,0-.91-.43,6.1,6.1,0,0,0-2.29-.58c-1.56,0-3.13,0-4.69,0-.58,0-1.17,0-1.75,0a9.93,9.93,0,0,1-2.88.14c-2.7-.14-5.4-.11-8.1-.09a2.12,2.12,0,0,0-1.79,1.26A21.77,21.77,0,0,1,567,471c-.34.34-.67.93-1.15.75s-.38-.89-.46-1.4c-.59-4,.16-8,0-12-.1-3,0-6,0-9,0-2-.15-4-.23-6a84,84,0,0,1,.43-9.78c.1-1.23-.2-2.42-.2-3.62,0-3.07,0-6.14,0-9.21a2.09,2.09,0,0,1,1.12-2,8.74,8.74,0,0,1,2.78-1.26c-2.66,0-5.62.16-8.58-.12a1.24,1.24,0,0,1-.8-.19.74.74,0,0,1-.22-.1c-1.18-1-.2-2.32-.5-3.47-.13-.51.13-.85.72-.8,1.27-.6,2.63-.25,3.94-.36s1.5-.14,1.5-1.57c0-3.63,0-7.26,0-10.89A2.39,2.39,0,0,1,565.72,398.25Z" transform="translate(-113.96 -288.54)"/><path class="cls-17" d="M596.3,470.3a6.84,6.84,0,0,1,2.07,4.66c.38,4.34,0,8.68.28,13a61.9,61.9,0,0,1-.11,10.63,23.89,23.89,0,0,0,.1,4.7,36.84,36.84,0,0,1-.06,7.12,23.86,23.86,0,0,0,0,6,18.77,18.77,0,0,1-.13,2.62c0,4-.15,8,.06,12a73.5,73.5,0,0,1,0,7.57c-.17,3.67.44,7.32.21,11a26.65,26.65,0,0,1-.19,4.18,4.52,4.52,0,0,0,.12,2.27,2,2,0,0,1,.05,1.31c-.65,1.51-.12,2.9.28,4.32h-2.68c-.09-3.23,0-6.45-.12-9.68-.2-6.76-.19-13.54,0-20.31,0-1.94.28-3.93.27-5.87,0-4-.19-7.9-.06-11.84.19-6,.21-12,.21-18,0-1.89-.45-3.78-.23-5.67.45-3.86.1-7.74.25-11.61.06-1.54-.34-3-.26-4.58-.12-.75.24-1.51-.23-2.29a4.54,4.54,0,0,0-2.44-2.32c-1.21-.56-2.27-1.47-3.64-1.69-.32-.4-.65-.26-1,0h-.25a1.27,1.27,0,0,0-.89-.26c-1.8.1-3.61-.09-5.41.1a.86.86,0,0,1-.73-.08h-1a1.88,1.88,0,0,0-1.94,0c-.51.47-1.13.15-1.69.25a8.58,8.58,0,0,1-4.09-.19c-.43-.17-.69,0-.77.43v.24a48.24,48.24,0,0,1-5.45,9.81,3.6,3.6,0,0,0-.76,2.35c.15,4.08-.38,8.15-.26,12.23,0,1.39-.16,1.54-1.53,1.5-.89,0-1.76.22-2.66.17-.51,0-1.06.08-1.48-.35v-5.33a35,35,0,0,1,0-6.31v-3.88a2.65,2.65,0,0,1-.11-1.31q0-8.85,0-17.71a5.49,5.49,0,0,1,.29-2.62c.22-.44,0-.85-.42-1.16v-4.86a1,1,0,0,0,.38-1.35,3.79,3.79,0,0,1-.14-2.53v-5.82c-.09-3.09-.42-6.19.2-9.27a1.12,1.12,0,0,0-.44-1.16v-1.21c.52-.43.8-.89.3-1.53a1,1,0,0,1-.07-1,.85.85,0,0,0-.23-1.08V424a4.55,4.55,0,0,1,1.63-.78,7.17,7.17,0,0,0,3.22-2.07c.26-.28.47-.69,1-.55v51.12a16.52,16.52,0,0,0,3.47-4.52,2.76,2.76,0,0,1,3-1.74c2.79.26,5.61-.22,8.4.26.66.12,1.26-.24,1.9-.24a1.2,1.2,0,0,0,1.7,0h5.1a3.67,3.67,0,0,0,2.19.73l.72.48a6.57,6.57,0,0,0,1.22.73A13,13,0,0,1,596.3,470.3Z" transform="translate(-113.96 -288.54)"/><path class="cls-17" d="M565.72,561.27c-.62.48-1.33.14-2,.24-.46.07-1-.16-1.39.22h-2a3.36,3.36,0,0,1-.22-.81c-.42-8.3-.4-16.61-.17-24.91.14-5.32.24-10.64.08-16-.1-3.46-.29-6.94-.09-10.38.22-3.83,0-7.66.17-11.48a1.73,1.73,0,0,1,1.36-.38c2.62,0,5.25,0,7.88,0a3.42,3.42,0,0,1,.84.08c.28.06.59.14.65.46s-.27.55-.56.67a20.93,20.93,0,0,0-3,1.26,2.5,2.5,0,0,0-1.29,2.58,107.61,107.61,0,0,1-.07,13,15.91,15.91,0,0,0-.06,1.69c.16,7.71-.11,15.41,0,23.11,0,2.34.31,4.67.24,7-.14,4.22-.19,8.45-.25,12.68A2.77,2.77,0,0,1,565.72,561.27Z" transform="translate(-113.96 -288.54)"/><path class="cls-20" d="M513.53,559.09a61.2,61.2,0,0,0,0-7.78,13.52,13.52,0,0,1-.28-3.24c.05-.35,0-.9.45-.82,1.85.3,2.42-1.23,3.27-2.25a30,30,0,0,0,4.35-7.76c1.31-3.06,2.75-6.07,4.14-9.1,0-.11.11-.22.17-.33.23-.38.5-.9.93-.85s.66.7.72,1.14a19.53,19.53,0,0,1,.05,2.3c.07,3.18.24,6.38.15,9.53-.15,4.93,0,9.84-.14,14.76,0,2.34,0,4.69,0,7h-1.71a5.68,5.68,0,0,1-.22-3.43,21.72,21.72,0,0,0,0-4.7,34.11,34.11,0,0,1,0-5.62c.06-.35-.23-.27-.07-.25s0,0,0,0a5.26,5.26,0,0,1-1.46,2.84,81.93,81.93,0,0,1-6.06,5.72c-1.14.9-2.33,1.73-3.53,2.56A.8.8,0,0,1,513.53,559.09Z" transform="translate(-113.96 -288.54)"/><path class="cls-16" d="M513.53,559.09a45.17,45.17,0,0,0,7.32-5.85c1.72-1.77,3.79-3.32,4.68-5.84.05,4.82.55,9.57.12,14.32H513.28C513.36,560.84,513.44,560,513.53,559.09Z" transform="translate(-113.96 -288.54)"/><path class="cls-15" d="M229.52,496.26c1.23,1.64,3.1,2.67,4.26,4.38,2.66,3.87,5.41,7.69,7.11,12.12a1.87,1.87,0,0,1,0,.48c1.07,1.11.95,2.61,1.31,4,.87,3.21.27,6.52.69,9.76a7.71,7.71,0,0,1-.3,2.52c-.67,3-1.06,6-2.26,8.9a9.13,9.13,0,0,0-.54,3.33c0,2.75,0,5.49.25,8.23-.16,3.26.09,6.53,0,9.79,0,.72.07,1.47-.6,2h-.75a.91.91,0,0,1-.29-.65c.11-2.09-.48-4.17-.12-6.27.27-1.62-.16-3.21-.19-4.83-.06-4.24.26-8.47.21-12.7,0-3.66,0-7.33-.2-11a3.34,3.34,0,0,0-.12-.84c-.18-.55-.49-.62-.86-.17A7.75,7.75,0,0,0,236,527.5c-1.43,3.78-3.25,7.39-4.92,11.06a24.91,24.91,0,0,1-4.17,5.93,1.7,1.7,0,0,1-1.27.61c-.87,0-1.08.52-1.06,1.27,0,1.38.14,2.75.27,4.11.22,2.18-.08,4.35,0,6.52a14.75,14.75,0,0,1-.59,4.72h-1c-.6-1-.3-2.14-.31-3.19q-.14-9.71,0-19.4c.06-4.32-.12-8.63,0-13a2.51,2.51,0,0,0,0-.61c-.06-.3,0-.72-.44-.76s-.45.32-.54.57c-1.6,4.72-4.93,8.42-7.41,12.62a24.33,24.33,0,0,1-4,4.89,2.67,2.67,0,0,1-2.6.91c-.88-.21-1.29.14-1.27,1.06.06,4.68.21,9.36.41,14,0,1,.33,1.93-.28,2.82h-1.46a1.93,1.93,0,0,1-.34-1.49c0-1.58,0-3.15,0-4.73,0-8.91,0-17.83,0-26.75a12.65,12.65,0,0,0-.45-3.56c-.6.08-.52.53-.62.83a43.32,43.32,0,0,1-4.75,10.18c-1,1.57-1.78,1.67-3.09.39a71.64,71.64,0,0,0-5.89-5.4,2.74,2.74,0,0,1-.65-.71c-2.06-3.64-4.56-7-5.42-11.29-.41-2.05-1.28-4-.92-6.15.24-1.4.4-2.79.53-4.2.08-.93.14-1.85.14-2.78a24.18,24.18,0,0,1,3.38-12.57c.48-.8.83-1.66,1.31-2.46a3,3,0,0,1,1.69-1.12,26.23,26.23,0,0,1,6-1.55,9.58,9.58,0,0,0,1.07-.19c1.87-.37,1.91-.42,1.73-2.28-.13-1.31.22-1.83,1.45-1.83,2.82,0,5.64-.25,8.47-.26,1.77,0,2,.28,2.08,2,0,1.91,0,1.94,1.89,2.24a35.2,35.2,0,0,1,12.61,5.09,25.79,25.79,0,0,1,3.82,2.57A.8.8,0,0,1,229.52,496.26Z" transform="translate(-113.96 -288.54)"/><path class="cls-14" d="M188.74,491.16c-1,2.15-2.19,4.21-3.19,6.37a16.54,16.54,0,0,0-1.3,6.21c-.15,3.74-.64,7.44-.85,11.16a4.51,4.51,0,0,0,.38,2.24c.87,1.79,1,3.78,1.73,5.63,1.08,2.69,2.94,4.89,4.17,7.48.38.8,1.27,1.21,2,1.76,1.71,1.36,3.16,3,4.73,4.5,1.07,1,1.41,1,2.24-.24a46.94,46.94,0,0,0,4.87-10.09c.22-.59-.13-1.67.8-1.63s.65,1.09.74,1.76c.51,3.94.13,7.9.22,11.85.06,2.82,0,5.65,0,8.48v15.08h-6.58a41.74,41.74,0,0,1-4.5-.66c-3.29-1-6.54-2.05-9.39-4.42-.19,1.78.13,3.51-.64,5.06l-2.93,0a1.84,1.84,0,0,1-.32-1.38c0-1.61-.09-3.23,0-4.83a3.72,3.72,0,0,0-1.54-3.2,29.27,29.27,0,0,1-5-5.78,3,3,0,0,0-.77-3.12,2.54,2.54,0,0,1-.47-1.95c0-3.51.44-7,.21-10.53-.15-2.37,0-4.74-.1-7.11a2,2,0,0,1,.58-1.53c.82-.93,1-1.77.23-2.72a4.83,4.83,0,0,1-.9-3.88,41.26,41.26,0,0,0,0-8.09,13.18,13.18,0,0,1,.06-3.26,35.19,35.19,0,0,1,6.49-7.75,40.41,40.41,0,0,1,6.28-4.69A4,4,0,0,1,188.74,491.16Z" transform="translate(-113.96 -288.54)"/><path class="cls-14" d="M239.72,549.87a72.83,72.83,0,0,1-.25-8,12.22,12.22,0,0,1,.84-4.46,40.37,40.37,0,0,0,2.05-8.87,41.68,41.68,0,0,0-.06-8.65,24.22,24.22,0,0,0-1.37-6.69c.57,0,.66-.51.95-.81,2.37-2.38,4.66-4.84,7.63-6.55a9.48,9.48,0,0,1,2.59-1.13c-.84,1.83-1.67,3.66-2.52,5.49a16.67,16.67,0,0,0-1.08,5.87,47.85,47.85,0,0,1-.71,7.06,3.06,3.06,0,0,0,0,1.56c.76,2.4,1,5,2.3,7.2,1.46,2.57,2.63,5.34,5.17,7.18a37.73,37.73,0,0,1,3.2,3.13c1,1,1.41.93,2.13-.24a34.36,34.36,0,0,0,3.95-8.65c.07-.23.15-.46.23-.69s.18-.38.4-.4.42.18.52.41a4.91,4.91,0,0,1,.27,1.78q0,13.63,0,27.28l-11.16,0-.51,0a10.16,10.16,0,0,1-5.12-2.5c-.54.81-.13,1.77-.67,2.48l-2.45,0c-.59-1-.33-2.06-.28-3.08a4.07,4.07,0,0,0-1.56-3.42A22.11,22.11,0,0,1,239.72,549.87Z" transform="translate(-113.96 -288.54)"/><path class="cls-14" d="M206.71,561.72c-.14-3.62-.17-7.25-.32-10.87-.08-2.17-.07-4.35-.18-6.52,0-.68.18-1.25.92-1,2.35.84,3.44-.9,4.53-2.28a132.08,132.08,0,0,0,8.07-12,36.26,36.26,0,0,0,1.79-4c.21-.45.38-1.2,1-1.06s.7.85.71,1.42c0,1.82,0,3.64,0,5.45,0,2.13.23,4.29.13,6.39-.15,3.39-.06,6.77-.12,10.15s0,6.95,0,10.42a25.64,25.64,0,0,1,0,3.82h-2a1.85,1.85,0,0,1-.32-1.37c0-.67-.35-.84-.93-.69a11.72,11.72,0,0,0-2.64.81,10.68,10.68,0,0,1-4.58,1.26Z" transform="translate(-113.96 -288.54)"/><path class="cls-14" d="M224.43,556.91a88.28,88.28,0,0,0-.26-10.91c0-.94.22-1.38,1.21-1.23.61.1,1-.23,1.4-.69,3.16-3.36,4.76-7.6,6.7-11.66,1.11-2.33,1.76-4.86,3.18-7,.29-.46.59-1.24,1.14-1s.74,1,.7,1.67c-.08,1.55.09,3.1.05,4.67-.08,3,.32,5.92.14,8.87-.19,3.39-.09,6.77-.2,10.15,0,1.18.36,2.32.24,3.49-.28,2.85.11,5.69,0,8.54h-2.19c-.38-.48-.09-1-.09-1.52,0-4.67,0-9.34,0-14.08-2.72,4.12-6.4,7.13-10.25,10C225.7,556.46,225.21,557,224.43,556.91Z" transform="translate(-113.96 -288.54)"/><path class="cls-16" d="M224.43,556.91a48.16,48.16,0,0,0,8.23-6.69c1.48-1.53,3.09-3,3.82-5.12l.28.12c0,.34,0,.68,0,1,0,4.12,0,8.24,0,12.37a10.51,10.51,0,0,1-.26,3.11H224.2C224,560.1,224.53,558.52,224.43,556.91Z" transform="translate(-113.96 -288.54)"/><path class="cls-21" d="M174.42,546.72c.15,0,.39,0,.44.14.73,1.43,2.24,2.16,3,3.56.59,1.08,1.75,1.64,2.62,2.48a2.12,2.12,0,0,1,.74,1.69c-.05,2.38,0,4.76,0,7.14l-7.77.06,0-.06a2,2,0,0,1-.58-2c.7-3.6.34-7.23.44-10.85C173.35,548,173.31,547.06,174.42,546.72Z" transform="translate(-113.96 -288.54)"/><path class="cls-16" d="M239.72,549.87a47.39,47.39,0,0,1,3.43,3.92,3.29,3.29,0,0,0,1.06,1.13c1.63.87,2,2.22,1.84,3.92a27.81,27.81,0,0,0,0,2.89h-6.53a32.84,32.84,0,0,0,.12-7.8C239.51,552.55,240,551.22,239.72,549.87Z" transform="translate(-113.96 -288.54)"/><path class="cls-16" d="M184.14,561.71a39,39,0,0,0,.21-5.5.85.85,0,0,1,.91.32c2.51,2.3,5.67,3.11,8.8,4.13,1.53.49,3.12.54,4.61,1.07Z" transform="translate(-113.96 -288.54)"/><path class="cls-16" d="M212.79,561.73c2.65-.41,4.88-2.06,7.54-2.49.88-.14,1,.11.94.8s0,1.12,0,1.68Z" transform="translate(-113.96 -288.54)"/><path class="cls-16" d="M248.47,561.71c0-.32,0-.64,0-1,0-.68,0-1.61.44-1.87s.9.6,1.38.92a11.77,11.77,0,0,0,2.81,1.36,2.19,2.19,0,0,1,1.17.57Z" transform="translate(-113.96 -288.54)"/><path class="cls-14" d="M716.46,411.35c5.68.22,11.37.2,17.08.11-.8.73-1.81.56-2.69.86a55.69,55.69,0,0,1-9.4,2,18.41,18.41,0,0,0-2.78.82.79.79,0,0,0-.51,1c.52,3.88.05,7.8.42,11.7a32.06,32.06,0,0,1-.11,5.79,32.24,32.24,0,0,0,.28,8.32,7.63,7.63,0,0,1,.13,1.07c.26,7.11-.76,14.18-.53,21.28,0,1.38-.4,2.78.18,4.22a4.17,4.17,0,0,0,1-.66,34.31,34.31,0,0,1,5.1-4.37,16.3,16.3,0,0,0,1.6-1.8,29.77,29.77,0,0,1,4.33-3.91,12,12,0,0,0,1.61-1.79,2.38,2.38,0,0,1,2.35-.77c1.79.23,3.63,0,5.45.1,2.13.07,4.3-.34,6.39.23a25.49,25.49,0,0,1,7.86,3.56,3.33,3.33,0,0,1,.8.88c1.4,2,2.67,4.1,4.06,6.12,1.09,1.59,1,3.62,1.55,5.4,1,3.34.51,6.8,1,10.17.25,1.83-.4,3.59-.59,5.38a10.46,10.46,0,0,0,.18,4.66c.4,1.1-.06,2.07-.19,3.08a4.71,4.71,0,0,0-.06,2c.38,1.24-.07,2.4-.12,3.58-.19,4.79-.51,9.58.22,14.35a16.72,16.72,0,0,1-.18,2.75q.06,22.13,0,44.26h-5.11a2.36,2.36,0,0,1-.36-1.73q0-4.92,0-9.82a22.52,22.52,0,0,0-.39-5.31,5.44,5.44,0,0,1-.07-1.93,72.31,72.31,0,0,0,.11-8.71c0-1.83.46-3.67.34-5.54-.21-3.12.62-6.19.48-9.3s-.49-6.2-.6-9.3-.16-6,0-9a94.1,94.1,0,0,0,0-11.14,41,41,0,0,1,0-6.65,49.42,49.42,0,0,0-.26-8.34c-.12-1.77-.28-3.54-.46-5.3a9.39,9.39,0,0,0-5.2-7.81,7.36,7.36,0,0,0-4.18-.37,20.81,20.81,0,0,1-4.1,0,7.69,7.69,0,0,0-3.94.39c-.16,0,0,.05-.12,0-1.9-.41-2-.46-3,1.33a22.27,22.27,0,0,1-4,5c-2.15,2.13-4.24,4.32-6.2,6.64-1.15,1.37-2.73,2.27-4,3.52a3.66,3.66,0,0,0-1.16,2.79c0,3.14.21,6.29,0,9.43-.09,1.42-.25,1.59-1.66,1.63-2,.06-4,.37-6.05.25a20.1,20.1,0,0,1-2.45-.23,12.76,12.76,0,0,1-2.62-.07,1.09,1.09,0,0,1-.76-1.24c.15-2.93-.48-5.9.06-8.8.63-3.35,0-6.65,0-10,0-.22,0-.44,0-.66a11.28,11.28,0,0,1,.13-5.17c.51-2.6,0-5.14,0-7.71,0-.32-.1-.64-.11-1-.07-1.56-.05-3.13,0-4.69,0-.88-.25-1.72-.26-2.6,0-1.09,0-2.19,0-3.29a18,18,0,0,1,.23-2.84c0-2,0-4.08,0-6.12a26.39,26.39,0,0,0,.07-5.55,16.4,16.4,0,0,1,.2-4.58,2.94,2.94,0,0,1,0-.42c0-2.37,0-4.74,0-7.11,0-.46.25-1.21-.61-1.15-.69.05-1.36.3-1.36,1.22,0,1.81,0,3.62,0,5.43,0,1.16,0,2.33,0,3.5a16.85,16.85,0,0,0,.21,3.4,4.52,4.52,0,0,1,0,.64c-.52,2.45-.33,5-.86,7.43a8.29,8.29,0,0,0,.12,2.17,5.57,5.57,0,0,1,0,1.08c-.16,1.75.44,3.48.24,5.24a8.56,8.56,0,0,1,0,1.34c.06,4.22-.22,8.44.23,12.65a5,5,0,0,1,0,1.16c-.65,2.87-.37,5.74-.28,8.64.16,5.19,0,10.39.05,15.58,0,.77-.18,1.52-.23,2.28a5.78,5.78,0,0,1,0,.93c0,2,0,4,0,5.93,0,1.3-.32,1.61-1.56,1.61a21.71,21.71,0,0,1-2.42,0h-.65c-2.31.21-4.63,0-7,.15-.28-.12-.57-.24-.41-.64a4.19,4.19,0,0,0,.34-2q0-9.27,0-18.53c0-6.58-.19-13.15-.32-19.72a65.85,65.85,0,0,1,.16-8.32c.46-4.2-.08-8.38.15-12.55a40.71,40.71,0,0,0-.36-6.89,5.44,5.44,0,0,1,0-1.21,22,22,0,0,0,0-5.19,1.92,1.92,0,0,1,.29-1.61c-.15-1.65.25-3.27.24-4.91a2.5,2.5,0,0,0-.24-1.4c4.5,0,9,0,13.5,0,.73,0,1.19-.13,1.07-1,.81.2.54.89.55,1.38,0,.87.31,1.21,1.18.87a61.29,61.29,0,0,1,8.31-2.21c.71-.17,1.69-.17,1.7-1.22s.6-2.33-1-2.87C716.44,411.63,716.43,411.48,716.46,411.35Z" transform="translate(-113.96 -288.54)"/><path class="cls-15" d="M705.53,471.51V472a5.75,5.75,0,0,0-.46,4.09,11.4,11.4,0,0,1,.15,2.26c0,3.52-.6,7,.16,10.56a4,4,0,0,1-.28,2c-.27.86,0,1.1.92,1h2.67a1.61,1.61,0,0,0,2.43.24c2.18.18,4.34-.3,6.51-.24.4,0,.77-.05.75-.56,0-.93.3-1.88.19-2.75-.36-2.83,0-5.65-.18-8.46a1.63,1.63,0,0,1,.55-1.28,26.75,26.75,0,0,1,3.45-3,20.26,20.26,0,0,0,3.12-3.36c1.21-1.37,2.49-2.65,3.77-3.92a35.84,35.84,0,0,0,5.22-6.42c.9-1.45,1-1.37,2.35-.31.45.46.35,1.05.38,1.6.1,1.91-.27,3.8-.21,5.69.21,7,.64,14,.47,21.08a1.3,1.3,0,0,0,.71,1.41,1.25,1.25,0,0,1,.7,1.19,23.55,23.55,0,0,1,0,2.91,1.25,1.25,0,0,1-.47,1.08c-1.26.76-1.32,2-1.17,3.2a44.53,44.53,0,0,1,.2,7.39q-.16,5.26,0,10.53c.12,3.55-.2,7.1-.41,10.65a73.42,73.42,0,0,0,.31,8,63.79,63.79,0,0,1,0,9,41,41,0,0,0,.19,5c.08,3.27-.52,6.53,0,9.8a1.74,1.74,0,0,1-.36,1.49h-18a1.48,1.48,0,0,1-.36-1.12c-.07-5.41-1.22-10.75-1-16.19.06-1.6-.61-3.2-.43-4.82.4-3.43,0-6.85,0-10.28-.08-3.65.44-7.24.69-10.86.15-2.3,0-4.6.3-6.9a38.75,38.75,0,0,0,0-9.07,5,5,0,0,1,.08-1.8,1.5,1.5,0,0,1,.18-.41,4.18,4.18,0,0,1,2.63-1.1A64.45,64.45,0,0,0,731,497.1c.7-.23,1.45,0,2.13-.3-5.66.57-11.31.22-17,.07a66.64,66.64,0,0,1-9.37.19,1.54,1.54,0,0,1-.37-.09c-.28-.06-.55-.53-.82-.21s.22.69.22,1.08a13.28,13.28,0,0,1-.07,3.45,2.83,2.83,0,0,1-2.83,1.82c-.84.05-1.69,0-2.53.05a2,2,0,0,0-1.73.64.88.88,0,0,1-.72.15c-1.28-1-1.28-1-2.38-.09a.52.52,0,0,1-.32-.09,1.38,1.38,0,0,0-1.58-.55c-1,.17-2,0-3,.56-.21.14-.55,0-.81-.12-.5-.52-.14-1.13-.2-1.7a8.88,8.88,0,0,1,.19-2.52c.3-.41.65-.61,1.13-.27a.48.48,0,0,0,.48.24c1.6.9,5.54.76,6.8-.24h.49a1.21,1.21,0,0,0,1.25.53,3.55,3.55,0,0,1,1.77.1c.79.19,1.31-.2,1.18-.88-.4-2.11-.09-4.23-.2-6.34,0-.24.07-.49-.12-.69v-.73a1.77,1.77,0,0,0,.6-1.85,27.31,27.31,0,0,1-.23-5.42c0-3.18,0-6.36,0-9.54a17.16,17.16,0,0,0-.17-3.91,10.42,10.42,0,0,1,.41-4c.13-.64.51-1.32-.13-1.92v-1c.63-.86.23-1.8.12-2.68a82.41,82.41,0,0,1-.25-8.89c0-.43.13-.88-.12-1.29v-1.21a1.73,1.73,0,0,0,.56-2.14,12.62,12.62,0,0,1-.8-3.2v-1a7.65,7.65,0,0,0,.51-4.22,5.33,5.33,0,0,1,.18-2.35c.31-1,.77-2.08,0-3.13v-.49c.7-1.19.2-2.29-.24-3.39v-3.64a30.07,30.07,0,0,0,.11-4.55,1.63,1.63,0,0,1,.72-1.55c1-.58,1.68-.2,1.71,1,.07,2.28-.15,4.56.13,6.84v.24a3.09,3.09,0,0,0-.7,3.23,8,8,0,0,1,0,3.33,11.29,11.29,0,0,0,.4,3.63v6.3a1.91,1.91,0,0,0-.24,2.67v3.4c-.53.87-.67,1.7.24,2.43v4.85a2.28,2.28,0,0,0-.26,2.7,2.6,2.6,0,0,1,.13,2.32,2.9,2.9,0,0,0-.25,1.3,59.5,59.5,0,0,1-.22,6.12A1.58,1.58,0,0,0,705.53,471.51Z" transform="translate(-113.96 -288.54)"/><path class="cls-16" d="M737.1,561.73c.12-1.5-.36-3-.23-4.45a46,46,0,0,0,.19-7.13c-.26-3.87.2-7.72,0-11.58-.13-2.77-.46-5.54-.44-8.31,0-4.55.73-9.1.39-13.64-.29-4,.22-8,.08-12.07a29.33,29.33,0,0,0-.29-4.69c-.19-.94.31-1.73.29-2.61,0-.27.13-.49.42-.48,1,0,1-.66,1-1.4s0-1.37,0-2.06.18-1.45-1-1.51c-.61,0-.47-.75-.47-1.22,0-4,0-8,0-12,0-3.14-.7-6.26-.45-9.4.2-2.46.22-4.91.23-7.37a3.27,3.27,0,0,1,2.35-.74,47.45,47.45,0,0,0,6.85,0c3.64-.48,6,1.48,7.58,4.46a10.64,10.64,0,0,1,1.39,5.6,63.34,63.34,0,0,0,.62,6.81,33.81,33.81,0,0,1,0,5.78,26.94,26.94,0,0,0-.06,5.31c.23,1.94.1,3.87.19,5.8.16,3.34-.25,6.68-.24,10a108.75,108.75,0,0,0,.68,12.76A22,22,0,0,1,756,524c-.31,1.82-.09,3.62-.22,5.43-.25,3.48-.18,7-.25,10.44-.12,6.84.55,13.66.26,20.5,0,.45,0,.89,0,1.34Z" transform="translate(-113.96 -288.54)"/><path class="cls-14" d="M718.64,500.38c-.07,2.58.41,5.14.24,7.72-.24,3.73-.44,7.46-.72,11.18a88.86,88.86,0,0,0-.43,13.74c.17,2.1-.22,4.18,0,6.23.51,5.2.3,10.43,1.08,15.61a30.79,30.79,0,0,1,.32,6.86H705.29a1.5,1.5,0,0,1-.32-1.36,20.36,20.36,0,0,0,0-4,74.25,74.25,0,0,1,.33-9.89,1,1,0,0,0,0-.24c-.21-3.51.25-7-.05-10.52,0-.64-.14-1.28-.13-1.93.08-4.92,0-9.84.05-14.76,0-3.83.35-7.66.2-11.49,0-1.48,0-1.5-1.4-1a3.13,3.13,0,0,1-1.17.27.43.43,0,0,1-.36-.21,4,4,0,0,1,0-2.79,2,2,0,0,1,1.58-.36c.93,0,1.48-.23,1.27-1.3a1,1,0,0,1,.19-.79v-3.88c-.27-.76,0-1,.73-.73h0a2.52,2.52,0,0,1,0,1.67c-.38,1.46.07,2.88.07,4.32,0,.62.34.79.87.56,3.35-1.47,7-1.68,10.47-2.88A1.08,1.08,0,0,1,718.64,500.38Z" transform="translate(-113.96 -288.54)"/><path class="cls-14" d="M702.62,561.72l-11.18.08,0-.08a2.08,2.08,0,0,1-.39-1.6c0-4.89-.12-9.79,0-14.67.11-3.27.55-6.52.45-9.8-.12-4.08-.2-8.15-.46-12.23-.17-2.67.29-5.32.3-8a15.12,15.12,0,0,0,.21-4c0-1.39.18-1.74,1.48-1.94a35.32,35.32,0,0,0,8.15-2.65,1.66,1.66,0,0,1,1.39-.19,8.12,8.12,0,0,1,.58,4,94.16,94.16,0,0,1-.36,14.15,23.34,23.34,0,0,0,.17,2.89c0,2.18-.24,4.37-.16,6.52.21,6.21,0,12.42.35,18.63a42.49,42.49,0,0,1-.22,8A1.32,1.32,0,0,1,702.62,561.72Z" transform="translate(-113.96 -288.54)"/><path class="cls-15" d="M702.62,561.72v-55c1-.32,2.16-1.36,3-.85.49.3.12,2,.18,3,.13,2.43-.28,4.83-.22,7.25.06,2.91-.31,5.84-.15,8.7.21,3.75-.19,7.49.3,11.23a16.93,16.93,0,0,1-.09,5.07,9.74,9.74,0,0,0,.08,2.58,9.33,9.33,0,0,1,0,2.89,13.56,13.56,0,0,0-.16,4.71c.09.75-.27,1.42-.24,2.15a24.92,24.92,0,0,0,.21,4.22c.3,1.35-.34,2.71-.21,4.08Z" transform="translate(-113.96 -288.54)"/><path class="cls-14" d="M294.58,561.73v-1.2c.34,0,.46.53.76.36s.2-.59.2-.89c0-5.27,0-10.54,0-15.81a17.41,17.41,0,0,1,.92-6,22.6,22.6,0,0,1,1.77,2.9c1.37,3.25,4.53,4.83,6.69,7.34.51.59,1.07.56,1.55-.21a35.58,35.58,0,0,0,3.7-7.84c.13-.38.08-1,.65-1s.47.73.62,1.14a3.35,3.35,0,0,1,.12,1.19q0,7.58,0,15.15v4.92Z" transform="translate(-113.96 -288.54)"/><path class="cls-14" d="M267.15,561.72c0-4.15-.39-8.29-.26-12.44,0-.95,0-1.63,1.3-1.16a1.68,1.68,0,0,0,1.87-.58,82.3,82.3,0,0,0,8.13-11.79,27.44,27.44,0,0,0,1.24-2.88c.17-.39.35-.9.89-.84s.35.57.48.89a4,4,0,0,1,.18,1.54v27.27h-1.7c-.8-.56-1.6-.1-2.41,0Z" transform="translate(-113.96 -288.54)"/><path class="cls-14" d="M282,559.33c.1-3-.07-6-.25-9.06,0-.8.16-1.24,1.06-1.14.72.09,1.07-.5,1.46-.94a23.12,23.12,0,0,0,3.76-6c1.32-2.94,2.62-5.89,3.95-8.82.21-.46.39-1.19,1-1s.67.91.68,1.52v5.34q0,10.51,0,21a2.6,2.6,0,0,0,.23,1.53h-1.7c-.5-1.64-1.81-2.71-2.86-4a9,9,0,0,1-1.72-2.3c-.3,1.53.29,3.35-.17,5.12-.1.38,0,.81-.33,1.13h-2.2c-.5-.63-.23-1.39-.31-2.09-.06-.49.25-1.19-.24-1.44s-.78.43-1.19.65S282.47,559.48,282,559.33Z" transform="translate(-113.96 -288.54)"/><path class="cls-14" d="M312.54,561.73c-.11-2.34-.31-4.66-.26-7,0-1,.22-1.48,1.31-1.06a1.26,1.26,0,0,0,1.52-.42,26.24,26.24,0,0,0,3.41-4.36c.91-1.56,2-3,3-4.53a19.21,19.21,0,0,0,2.24-4.4c.15-.42.37-1.1.85-1s.55.78.56,1.31c.08,3.27.32,6.54.2,9.81-.1,2.61-.21,5.23-.19,7.85,0,1.28.15,2.56.23,3.84Z" transform="translate(-113.96 -288.54)"/><path class="cls-16" d="M287.06,561.72v-6.54l.36,0,4.5,5.07c.39.45.18,1,.22,1.52Z" transform="translate(-113.96 -288.54)"/><path class="cls-16" d="M282,559.33c.61-.46,1.19-1,1.83-1.37.28-.18.54-.63.93-.39s.15.59.15.9c0,1.09,0,2.18,0,3.26h-3.14C281.67,560.91,282.1,560.15,282,559.33Z" transform="translate(-113.96 -288.54)"/><path class="cls-22" d="M276.87,561.73c.51-.43,1.17-.39,1.74-.6s.68.14.67.6Z" transform="translate(-113.96 -288.54)"/><path class="cls-15" d="M174.42,546.72a2.79,2.79,0,0,0-.75,2.18c.06,1.89,0,3.79,0,5.68a17.8,17.8,0,0,1-.45,4.77,5.82,5.82,0,0,0,.21,2.38H161.31a2,2,0,0,1-.37-1.48c0-3.48,0-7,0-10.43,0-1.73.25-1.89,2-2,2.7-.21,5.41-.2,8.12-.23.24,0,.48,0,.72,0a1,1,0,0,0,1-1.1,1.1,1.1,0,0,0-1-1.14,7.49,7.49,0,0,0-1.57.09c-4.17.06-8.34.11-12.5,0a19.2,19.2,0,0,1-4.35-.18,3.16,3.16,0,0,1-1.23-.46,1.19,1.19,0,0,1-.45-1.19c.08-.47.44-.64.85-.75a5.34,5.34,0,0,1,1.69-.11,45.49,45.49,0,0,0,5.09,0c1.46-.07,1.67-.33,1.67-1.77,0-5.1,0-10.19,0-15.28,0-2.09.09-2.11,2.14-2.36,2.55-.31,5.09-.14,7.64-.2,1.49,0,2.09-.42,2-1.32s-.78-1.14-2.13-1a20.61,20.61,0,0,1-4.84,0,31.28,31.28,0,0,0-4.84.13c-2.43.06-4.84-.36-7.26-.21a2.35,2.35,0,0,1-1.71-.51,1.47,1.47,0,0,1-.61-1.6c.18-.57.77-.53,1.24-.54,2-.05,4.05,0,6.07,0,2.29,0,2.29,0,2.29-2.35,0-4.85,0-9.71,0-14.56,0-2,.13-2.06,2.07-2.29a70.61,70.61,0,0,1,7.27-.21,12,12,0,0,0,1.34-.05.88.88,0,0,0,.88-.83,1.13,1.13,0,0,0-.55-1.24,2.08,2.08,0,0,0-1.17-.21c-5.82.36-11.64.13-17.46-.08a2.37,2.37,0,0,1-2.24-1.54c-.35-.76-.05-1,.59-1.23a5.45,5.45,0,0,1,1.56-.16c2.06,0,4.13,0,6.19,0,1.37,0,1.5-.14,1.51-1.43,0-3.56,0-7.12,0-10.67a8.86,8.86,0,0,0-1.71-5.34,2.78,2.78,0,0,0-2.36-1.23c-1.1,0-2.27.32-3.31-.34-.3-.73.25-1.05.73-1.31a10,10,0,0,1,3.55-1.5c.82-.1,1.14-.49.91-1.32a17.34,17.34,0,0,1-.38-2.27c-.32-2.34-1.86-3.78-3.61-5.08a1.34,1.34,0,0,0-.79-.29c-1.73,0-3.44-.52-5.19-.14a13.38,13.38,0,0,1-2.89-.15c-3.68,0-7.36.06-11,0a6.42,6.42,0,0,0-6.44,5.7.49.49,0,0,1,0,.12c-.37,2.71-.36,2.7,2.05,3.9a39.56,39.56,0,0,1,4,2.46c1.39.92,1.86,2.51,2.6,3.88a16.25,16.25,0,0,1,1.55,4.83c.46,2.93.17,5.88.23,8.83a4.69,4.69,0,0,0,.62,2.53,2.94,2.94,0,0,1,0,3.21,7.84,7.84,0,0,0-.86,4.91,64.42,64.42,0,0,1,.14,11.11c-.06,1.25-.1,2.5-.11,3.74a3.15,3.15,0,0,0,.77,1.87,2.33,2.33,0,0,1,.15,2.82c-.25.37-.5.75-1.05.66a3.54,3.54,0,0,1-.25-.52c-.49-1.86-1.09-2.19-3-1.84a19.44,19.44,0,0,1-4.38,0,10.53,10.53,0,0,0-2.17-.05c-3.49.51-7-.2-10.44,0a1.82,1.82,0,0,1-1.21-.49,1.17,1.17,0,0,1-.39-1.21c.1-.45.61-.22.93-.22,2.15,0,4.29,0,6.43,0,.82,0,1.17-.27,1.17-1.12,0-3.31,0-6.63,0-9.94a22.75,22.75,0,0,1-.11-4.21,1.29,1.29,0,0,1,1.12-1.2c1.84-.41,3.67-.87,5.52-1.22a32,32,0,0,0,5.25-1.82,2,2,0,0,0,1.07-2.54,1.82,1.82,0,0,0-2.27-.91,20.37,20.37,0,0,1-4,.14c-2.75,0-5.51.14-8.25,0-1.87-.12-3.76.36-5.62-.18-.26-.08-.57,0-.79-.24s-.67-.44-.52-.87.59-.37,1-.35c2.22.11,4.42-.42,6.64-.25.67.05,1.09-.11,1-.91-.19-2.67.33-5.32.22-8-.07-1.61-.3-3.21-.23-4.82a6,6,0,0,1,0-.85c.6-2.47-.83-4.18-2.17-5.94-.4-.53-1.29-.32-1.48-1.09,2.15-.73,2.49-1.06,2.4-3.68-.17-4.78,2.25-7.85,6.43-9.47a14.82,14.82,0,0,1,6.8-1,97,97,0,0,0,9.8.05c1.77,0,3.58-.2,5.3-.09a11.07,11.07,0,0,1,6.24,2.15c3.5,2.67,4.19,6.38,4.51,10.32,0,.61.18,1,.79,1.14s1.43.54,2.14.81a5.53,5.53,0,0,1,3.74,2.19,31.34,31.34,0,0,0,2.12,2.33,4.46,4.46,0,0,1,1.16,2,22,22,0,0,1,1.1,6.54c0,2.34,0,4.68,0,7a3.35,3.35,0,0,0,.66,2.26,2.14,2.14,0,0,1,.25,2.61c-1.16,1.66-.88,3.55-1.13,5.36a3.11,3.11,0,0,1-.36,1.5c-.18,3,.36,6,.24,8.93a40.9,40.9,0,0,0-.25,4.57,1.65,1.65,0,0,0,.51,1.26,2.45,2.45,0,0,1-.1,3.89,1.09,1.09,0,0,0-.31,1.2,5.24,5.24,0,0,1,0,2.86c-.3,1.06.17,2.07.19,3.11.1,4-.2,8-.26,12.07a1.66,1.66,0,0,0,.65,1.56A2.33,2.33,0,0,1,174.42,546.72Z" transform="translate(-113.96 -288.54)"/><path class="cls-14" d="M153.54,473.93c1.16.54,2.38.24,3.56.22a2.48,2.48,0,0,1,2.18,1,9,9,0,0,1,2,5.56c0,3.92,0,7.84,0,11.76,0,.87-.29,1.11-1.12,1.1-2.42-.05-4.85,0-7.28,0h-.36a2.13,2.13,0,0,0-1.45.37c.77.31.24,1.58,1.26,1.7a3.84,3.84,0,0,0,.59.11c4.11-.06,8.2.44,12.33.17,1.94-.13,3.92.08,5.89-.14,1.22-.14,1.75.54,1.79,1.73s-.72,1.41-1.74,1.41c-2.94,0-5.88-.06-8.82.19-.95.08-1.13.38-1.12,1.23,0,5.46,0,10.91,0,16.37,0,1.6,0,1.6-1.66,1.6-2.39,0-4.77,0-7.16,0-.31,0-.82-.25-.92.24a1.24,1.24,0,0,0,.42,1.21,2.35,2.35,0,0,0,1.46.48,69.2,69.2,0,0,0,8.63.16c3-.32,6,.4,9-.13,1.38-.25,2.13.4,2.17,1.46a1.42,1.42,0,0,1-1.6,1.65c-1.57,0-3.15.07-4.73,0s-3.21.31-4.82.26c-.94,0-.74.66-.74,1.19,0,5.45-.07,10.91,0,16.36,0,1.39-.54,1.8-1.67,1.83-1.86,0-3.72.06-5.57,0a13.29,13.29,0,0,0-1.42.05c-.41,0-.83,0-.85.59a.85.85,0,0,0,.73,1,9.58,9.58,0,0,0,3.45.31,5.08,5.08,0,0,1,1.29,0,120.27,120.27,0,0,0,13.56-.09c1.57-.14,2.4.39,2.33,1.87a1.11,1.11,0,0,1-1.29,1.23c-2.08,0-4.17,0-6.25,0-1.25,0-2.47.3-3.73.25-.86,0-.62.7-.62,1.17q0,6.18,0,12.36H149.16c-.53-.26-.52-.77-.6-1.24a36.66,36.66,0,0,1-.22-6.54c0-1.62-.12-3.23-.1-4.84a1.52,1.52,0,0,0-.53-1.17,3.24,3.24,0,0,1-.25-4.63,3.11,3.11,0,0,0,.87-2.4,69.44,69.44,0,0,0-.22-7.63,10.9,10.9,0,0,1,.16-2.9c.25-2-.37-3.94,0-5.92.09-.48-.31-.79-.65-1.1a3.07,3.07,0,0,1-.15-4.75,2.34,2.34,0,0,0,.69-2c-.13-4.89,0-9.78,0-14.68,0-1.34,0-2.55-1.2-3.59-1.06-.9-.63-3.4.59-4.36a1.88,1.88,0,0,0,.83-1.87,18.09,18.09,0,0,1,0-4.35,14.28,14.28,0,0,0-.14-3.63,8.72,8.72,0,0,1,.94-5.28,17.7,17.7,0,0,1,2.68-3.85C152.23,474.44,152.65,473.75,153.54,473.93Z" transform="translate(-113.96 -288.54)"/><path class="cls-21" d="M149.42,478.55c-.16,1.52-1.21,2.81-1,4.44a23.6,23.6,0,0,1,0,7,12.62,12.62,0,0,0,.21,1.79c0,1,.28,1.95-1.13,2.53-1.25.52-1.12,3.64.09,4.32a1.51,1.51,0,0,1,.82,1.56c0,5.09,0,10.18,0,15.28a4,4,0,0,0,0,1.2,1.58,1.58,0,0,1-.77,2.17,2.65,2.65,0,0,0,.2,4.3,1.36,1.36,0,0,1,.75,1.69,8.29,8.29,0,0,0,0,3.1c.22,1.44-.26,2.9-.17,4.33.2,3.14.17,6.29.21,9.43a1.76,1.76,0,0,1-.75,1.63,2.82,2.82,0,0,0,.21,4.48,1,1,0,0,1,.53,1c0,3.3,0,6.6,0,9.89a23.1,23.1,0,0,0,.45,3.08H138a.76.76,0,0,1-.21-.67c.43-2.35-.16-4.73.27-7.1a10.62,10.62,0,0,0-.3-4.07c-.15-.7-.32-1.46.47-2l.49-.72a3,3,0,0,0,0-3,7.94,7.94,0,0,1-.83-4c0-2.54,0-5.07,0-7.61s-.38-5.06-.23-7.59c0-.56-.08-1.15.37-1.6l.49-.73c1.41-1.22,1.56-2.27.37-3.59a2.29,2.29,0,0,1-.63-1.74c.14-4,.35-7.89.26-11.85a23.44,23.44,0,0,0-.23-2.88,7.62,7.62,0,0,1,1-5.38,2.42,2.42,0,0,0-.27-3,2.18,2.18,0,0,1-.49-1.55c0-1.13,0-2.26,0-3.4a40.13,40.13,0,0,0-.23-6.39,1.54,1.54,0,0,1,.94-.69,95.66,95.66,0,0,0,9.21-3.63C148.72,478.43,149.07,478.27,149.42,478.55Z" transform="translate(-113.96 -288.54)"/><path class="cls-15" d="M138.25,547.93a2.06,2.06,0,0,0-.19,1.64,14,14,0,0,1,.22,6c-.29,1.7.31,3.43,0,5.14-.08.35-.15.7-.22,1.05H125.63a20.12,20.12,0,0,0-.25-3.47c-.09-2.22.42-4.4.25-6.61-.06-.68.34-.92.9-1.07a43.39,43.39,0,0,0,6.34-1.78A12.12,12.12,0,0,1,138.25,547.93Z" transform="translate(-113.96 -288.54)"/><path class="cls-16" d="M691.7,515.18c.2,15.52-.29,31-.24,46.54H667.68c-.38-.42-.2-.92-.16-1.39.34-3.77,1.05-7.53.72-11.34a82.15,82.15,0,0,1-.44-10.16c.13-3.22.15-6.45.42-9.67a25.26,25.26,0,0,0-.25-4c-.14-1.66,0-3.3,0-4.95,0-4.28.64-8.54.55-12.82,0-2.17-.34-4.35-.21-6.53a50.87,50.87,0,0,0,.22-6.41,56.4,56.4,0,0,0-.8-9c-.93-4.08-2.55-7.84-6.09-10.46-.88-.65-1.76-1.28-2.63-1.94a4.9,4.9,0,0,0-3.22-1.21,4.07,4.07,0,0,1-1.52-.39,4.15,4.15,0,0,0-2.62-.17,14.58,14.58,0,0,1-4.7.32,4.12,4.12,0,0,0-2.41,0,20.59,20.59,0,0,1-2.94,0,4.73,4.73,0,0,1-1.21-.33,13.37,13.37,0,0,0-3.52-.09c-.62-.25-.61-.82-.61-1.33,0-5,0-10.08,0-15.12a2,2,0,0,1,.36-1.26,2.68,2.68,0,0,0,.06-3.35,4.78,4.78,0,0,1-.16-1.68q0-20,0-40.09c0-.63-.17-1.31.34-1.85a34.14,34.14,0,0,0,5.93,2.06,29.49,29.49,0,0,1,8.33,3.79,7.11,7.11,0,0,0,4.4,1.45,3.21,3.21,0,0,1,2.13.75,1.8,1.8,0,0,0,2.85-.47c1.2-1.63,3.19-2.15,4.68-3.37.27-.23.62.05.89.21a9.39,9.39,0,0,1,2.39,2.19c2.19,2.7,4.82,4.67,8.51,4.53,1.16,0,2.31-.29,3.47-.38a4.94,4.94,0,0,1,4.65,2,12,12,0,0,0,2.84,2.77,5.07,5.07,0,0,0,3.3,1c.09,1.8.28,3.6.26,5.42-.05,5.66.27,11.32.29,17,0,3.21-.46,6.37-.53,9.56a7.35,7.35,0,0,0,.11,2.29,2.87,2.87,0,0,1,.11.83c0,5.08.13,10.16.21,15.24.13,8.22,0,16.44,0,24.65,0,.52.23,1.23-.72,1.19a1.57,1.57,0,0,0-1,.24,6,6,0,0,0,0,2.67c.18.49-.4,1,0,1.46.57.4,1.32-.24,1.86.33a12.4,12.4,0,0,1,.17,5.35c-.21,1.64-.14,3.27-.21,4.9A2,2,0,0,1,691.7,515.18Z" transform="translate(-113.96 -288.54)"/><path class="cls-16" d="M657.7,561.72l-18.94,0h-2.17l0,0a2,2,0,0,1-.4-1.6q0-18.84,0-37.67a3.8,3.8,0,0,1,.63-2.15,2.81,2.81,0,0,0-.19-3.09,5,5,0,0,1-.14-1.68q0-15.7,0-31.4c0-2.18.43-2.48,2.63-2.6,4-.22,8,.17,12,0a12.55,12.55,0,0,1,2.29.17,5.18,5.18,0,0,1,4.59,4.79,57.31,57.31,0,0,1,.66,12.56,48.82,48.82,0,0,0,.07,7.74,29,29,0,0,1-.49,9.52,14,14,0,0,0-.13,4c.14,6.75-.36,13.48-.28,20.23,0,3.4.42,6.78.28,10.17-.06,1.49,0,3-.2,4.48a10,10,0,0,0,.21,3.49A3.77,3.77,0,0,1,657.7,561.72Z" transform="translate(-113.96 -288.54)"/><path class="cls-20" d="M657.7,561.72a14.94,14.94,0,0,0-.18-4.16c-.35-1.49.16-3,.19-4.57.1-6.3-.49-12.59-.22-18.89.21-4.68.33-9.36.17-14-.08-2.25.52-4.35.68-6.53a51.25,51.25,0,0,0,0-6.9,54.68,54.68,0,0,1,0-8.68,18.07,18.07,0,0,0-.07-4.22c-.21-1.51-.23-3-.36-4.56a19.9,19.9,0,0,0-.38-3.1,5.28,5.28,0,0,0-5.46-4.13c-1.3,0-2.59,0-3.89,0-3.41,0-6.83,0-10.24-.07a.88.88,0,0,0-.86.5,2.75,2.75,0,0,0-.28,1.64v33.11c-.8-.21-.58-.89-.59-1.39,0-2.34,0-4.68,0-7V484.84a1.38,1.38,0,0,0-.7.94c-1,2.81-2.91,5-4.67,7.31a55.11,55.11,0,0,0-4.52,7.15A3.3,3.3,0,0,0,626,502c.15,4.56-.37,9.11-.27,13.67,0,1.65-.23,1.86-1.91,1.82-2.11-.06-4.2.27-6.3.21-.55,0-1.14.1-1.6-.36,0-5.44,0-10.88,0-16.31,0-5-.05-10-.26-14.94-.24-5.95.73-11.89.24-17.83-.3-3.64-.07-7.29-.43-10.92-.13-1.25.59-2.53,0-3.8a.91.91,0,0,1,.57-.3,14.55,14.55,0,0,1,2-.05q3.5-.07,7,0c2.42,0,4.85,0,7.27,0a6.25,6.25,0,0,1,1,0c.39.06.93,0,.94.55s-.52.53-.91.58a26.59,26.59,0,0,0-5.92,1.2,1.69,1.69,0,0,0-1.35,1.85c.11,2.82-.17,5.66.22,8.48a14,14,0,0,1-.31,4.09,40.42,40.42,0,0,0,0,7.7,57.68,57.68,0,0,1-.12,9.2,1.58,1.58,0,0,0,.22,1.2,13.38,13.38,0,0,0,2.85-3,25.36,25.36,0,0,1,3.92-5.07c.88-.78,1.8-1.51,2.62-2.35a2.44,2.44,0,0,1,2-.66c2.21.15,4.42-.41,6.65,0,1.49.27,2.95-.3,4.44-.46,2.68.43,5.31.77,7.73,2.37a20,20,0,0,1,8.06,11,16.05,16.05,0,0,1,.71,4.17,76.38,76.38,0,0,1,.13,12.1,25.4,25.4,0,0,0,.08,5.08,48.27,48.27,0,0,1-.23,9.31c-.08.81-.15,1.61-.15,2.42,0,3.63-.15,7.24.16,10.88a60.88,60.88,0,0,1-.31,8.94,46.06,46.06,0,0,0,0,6.54,109.5,109.5,0,0,1,.41,11,1.82,1.82,0,0,1-.37,1.37Z" transform="translate(-113.96 -288.54)"/><path class="cls-18" d="M664.75,561.72a85.91,85.91,0,0,0-.28-11.12c-.54-4.41,0-8.78.13-13.16.09-2.75-.25-5.44-.26-8.16s0-5.56.26-8.33a56.27,56.27,0,0,0,.22-10.22,29,29,0,0,1,.07-5.43,37.87,37.87,0,0,0,.05-6.9c-.22-2.36,0-4.75-.66-7.07-1.14-4.24-2.8-8.15-6.53-10.82-.88-.63-1.75-1.28-2.63-1.92a4.69,4.69,0,0,0-3.14-1c-1.19.06-2.21-1-3.49-.7-.94-.79-2-.31-2.9-.06-1.42.42-2.75-.14-4.12,0a31.11,31.11,0,0,1-4-.08,2.83,2.83,0,0,0-2,.79c-1.22,1.07-2.37,2.2-3.62,3.23a15.14,15.14,0,0,0-2.43,3.15,20.48,20.48,0,0,1-1.76,2.47c-.3.32-.68.67-1.15.51s-.48-.7-.5-1.14c0-1.21,0-2.42,0-3.63,0-3-.31-6-.3-8.91a26.54,26.54,0,0,1,.56-5.16,6.29,6.29,0,0,0,.18-2.16,62.67,62.67,0,0,1-.19-8.11c0-1.44.3-1.93,1.69-2.27a43.86,43.86,0,0,1,5.82-1.08,3.87,3.87,0,0,0,.48,0c.43-.09,1-.11,1-.67s-.63-.52-1-.52a49,49,0,0,0-6.06.13c-.56.08-1.1-.19-1.67-.14s-1,0-1.35.38H617.9c-.64-.78-1.29-.58-1.94,0h-.48c-.71.09-1.06-.17-1-.93a2.78,2.78,0,0,0,0-1.19c-.43-1.09,0-1.39,1-1.28a.75.75,0,0,1,.85-.06,1.68,1.68,0,0,0,1.44.44c2.29,0,4.59,0,6.89,0,1.21,0,1.38-.17,1.38-1.42,0-3.06,0-6.12,0-9.18a5.83,5.83,0,0,1,.09-1.56.84.84,0,0,1,.19-.33c.14-.08.32-.13.43,0,.76.88,1.36.4,2-.19a2.76,2.76,0,0,1,1.61,0c.65.7,1.32.94,2,.05a1.13,1.13,0,0,1,.9,0,2.06,2.06,0,0,0,2.19.61c.41-.09,1-.52,1.28.32q0,5.07,0,10.15a2,2,0,0,0,.12,1.17c.4,0,.73.08.72.59v2.18c0,.11,0,.31-.06.34-1.64.77-.84,2.25-.86,3.38-.1,4.4,0,8.8,0,13.19,0,.43-.27,1,.47,1.19a12.18,12.18,0,0,1,2.56-.12c.65-.1,1.05,1,1.81.36h3.16a3.14,3.14,0,0,0,2.18,0c1.64-.08,3.32.26,4.91-.44a1.57,1.57,0,0,1,.72,0,17.07,17.07,0,0,1,8.9,3.39A18.72,18.72,0,0,1,668,484.94a12,12,0,0,1,.47,5.58c-.19.85.48,1.66.44,2.59-.11,2.37,0,4.74-.23,7.12a64.43,64.43,0,0,0,.19,7.48c.07,4.23-.44,8.44-.57,12.67-.08,2.58.37,5.11.27,7.64s-.06,5.23-.29,7.83a58,58,0,0,0,0,8.34c.23,4.13.81,8.25,0,12.39-.33,1.68-.39,3.42-.57,5.13Z" transform="translate(-113.96 -288.54)"/><path class="cls-20" d="M496.05,561.73c0-4.32-.4-8.62-.26-12.94a20.9,20.9,0,0,1-.22-2.51c0-.29-.06-.83.43-.63,3.07,1.27,4.21-1.28,5.52-3,2.68-3.46,5-7.2,7.33-10.9a30.38,30.38,0,0,0,1.82-4.08c.19-.42.35-1.05.92-1s.48.7.59,1.1a5.28,5.28,0,0,1,.13,1.32v32.59h-1.95c-.72-.48-1.44-.11-2.16,0Z" transform="translate(-113.96 -288.54)"/><path class="cls-22" d="M508.2,561.73a3.58,3.58,0,0,1,1.78-.52c.5-.08.35.28.38.52Z" transform="translate(-113.96 -288.54)"/><path class="cls-18" d="M616,517.36c3,.22,5.91-.5,8.88-.09a.46.46,0,0,0,.53-.39,4.2,4.2,0,0,0,.06-.72c.08-4.88.18-9.76.23-14.64,0-1.62,1.11-2.72,1.8-4,1.82-3.43,4.51-6.26,6.63-9.48.89-1.34.91-3.14,2.38-4.22a2.4,2.4,0,0,1,.12,1.24q0,15.34,0,30.69c0,.46-.18,1,.24,1.38a2.59,2.59,0,0,1,0,3.7c-.44.36-.26.82-.26,1.23q0,12.13,0,24.26,0,7.71,0,15.41H625.67c-.67-1.44-.45-3-.59-4.51s0-2.91,0-4.36a53.58,53.58,0,0,0-.19-5.94c-.2-1.68.24-3.4.14-5.07-.28-4.49.47-8.94.32-13.43,0-1.29-.27-2.57-.26-3.86,0-1.56.24-1.87,1.68-2.41A18.53,18.53,0,0,1,633,521c.29,0,.63.15.81,0-1.32,0-2.72.18-4.13.18H617.81a2.58,2.58,0,0,1-1.85-.38c-1.55,0-1.62,0-1.59-2.82C614.38,516.85,615.42,517.57,616,517.36Z" transform="translate(-113.96 -288.54)"/><path class="cls-17" d="M616,520.76h18.58c-1.07.81-2.21.47-3.23.66a37.72,37.72,0,0,0-4.9,1.22c-.75.25-1.06.61-1,1.38.23,2.37.26,4.74.26,7.12a30.71,30.71,0,0,1-.47,5.75,11.68,11.68,0,0,0,.23,2.64c0,1.69-.3,3.38-.22,5.05.22,4.4.12,8.79.25,13.18,0,1.31.2,2.64.2,4h-10C616.24,548.08,615.81,534.42,616,520.76Z" transform="translate(-113.96 -288.54)"/><path class="cls-21" d="M399.2,466.42a39.82,39.82,0,0,0,6.37.06,15.63,15.63,0,0,0,7-2.18,27.23,27.23,0,0,1,6.51-2.76,28.13,28.13,0,0,0,6.4-2.82,13.24,13.24,0,0,1,6.28-2.28,6.3,6.3,0,0,0,2.82-1c4.79-2.74,9.25-6,14.17-8.56,4.36-2.25,8.56-4.79,12.75-7.33,2.06-1.25,4.06-2.61,6.07-3.95a17.45,17.45,0,0,1,2.89-1.47,75.09,75.09,0,0,0,10.36-5.7,85.16,85.16,0,0,1,8.39-4.32,42.14,42.14,0,0,0,10.61-6.84,12.83,12.83,0,0,1,5.4-3.33,1.33,1.33,0,0,0,.88-.61c1.07-2,3.08-3,4.77-4.34a94.84,94.84,0,0,1,13-8.29,98.06,98.06,0,0,0,8.66-5,17.91,17.91,0,0,0,2.67-2.24,12.74,12.74,0,0,1,4.72-3.11,59.06,59.06,0,0,0,9.69-5.14c2.91-1.81,6.08-3.19,8.78-5.33.51-.4,1-.82,1.49-1.23.48.5.34,1.13.38,1.72a24.78,24.78,0,0,0,.1,4.22,3.4,3.4,0,0,1,0,1.31,13.12,13.12,0,0,0-.19,2.87,1.26,1.26,0,0,1-.2.57c-2.29,1.37-4.67,2.55-7.06,3.74a15.4,15.4,0,0,0-1.41.7c-1.18.72-1.39,1.15-1.17,2.49a21,21,0,0,1,.09,4.95,3.63,3.63,0,0,1-2.11,3,49.14,49.14,0,0,0-8.09,5.06c-1.77,1.44-2,2.39-1.11,4.51.36.82.78,1.6,1.18,2.39a4.25,4.25,0,0,1,.41,3.51,2.84,2.84,0,0,0,.29,2.21,18,18,0,0,1,1.48,7.42c0,2.69-1.29,4.38-3.94,4.91a15.1,15.1,0,0,0-6.64,3.06,37.43,37.43,0,0,0-4.55,5,18,18,0,0,0-3.69,6.58c-.83,2.68-2.84,4.66-4.61,6.75-1.57,1.85-3.29,3.56-5,5.27a4.58,4.58,0,0,1-1.77,1.25c-2.93.93-5.57,2.59-8.55,3.39a3.73,3.73,0,0,0-2.24,2.39,35.12,35.12,0,0,0-1.46,4.49,11.32,11.32,0,0,1-2.39,4.17,5.7,5.7,0,0,1-3.78,2c-3.14.31-6.19,1.12-9.29,1.67a36.17,36.17,0,0,1-5.77.58c-4.8.07-9.53.82-14.29,1.31-4,.41-7.86,1.81-11.84,2.44a20.08,20.08,0,0,1-5,0,58.45,58.45,0,0,1-5.88-.67,33.43,33.43,0,0,1-10-4.18c-3.45-2-6.93-3.84-10.89-4.57a23.08,23.08,0,0,0-5.81-.12,8.08,8.08,0,0,1-6.3-2.53c-.84-.76-1.6-1.59-2.39-2.4a4.63,4.63,0,0,0-2.61-1.42,33.69,33.69,0,0,1-3.57-1.14C399.74,467.41,399.15,467.16,399.2,466.42Z" transform="translate(-113.96 -288.54)"/><path class="cls-21" d="M173.45,504c-.17-1.74.35-3.45.24-5.18,0-.51.33-.79.61-1.13a2.27,2.27,0,0,0-.05-3.17,2,2,0,0,1-.56-1.52c0-2.63,0-5.26,0-7.88a21.83,21.83,0,0,0-1.25-6.85,2.6,2.6,0,0,0-.56-.93,33.52,33.52,0,0,1-2.61-2.85c-.84-1.15-2.17-1.6-3.35-2.27,2.88-1.05,5.61-2.46,8.43-3.65,5.27-2.21,10.69-4.06,15.81-6.63a104.6,104.6,0,0,0,13.43-8.11,24.11,24.11,0,0,1,7.45-3.38,51.84,51.84,0,0,0,8.23-3.4c4.65-2.24,9.21-4.71,14.19-6.15s9.4-4.11,14-6.48a115.67,115.67,0,0,0,11.24-7.24,16.53,16.53,0,0,1,6.81-2.25,10,10,0,0,1,2.88-.25c.32.36.17.75.08,1.14a19.55,19.55,0,0,0-.52,7.54,7,7,0,0,0,1.12,2.9,16.23,16.23,0,0,1,2.23,5.59,2.89,2.89,0,0,1-.34,2.34c-1.54,2.35-3.15,4.56-6.18,5.24-1.62.36-1.95,1.08-1.87,2.77a16,16,0,0,0,.61,3.08,13.82,13.82,0,0,1,.43,2.38,1.61,1.61,0,0,1-.82,1.76c-1.46.56-1.3,1.72-1.13,2.82a20.59,20.59,0,0,1,.16,3.13,1.75,1.75,0,0,1-.13.95c-1.56,2.44-2.65,5.32-5.84,6.23-.82.23-1.61.55-2.43.75a21.17,21.17,0,0,0-8.51,4.7,3.33,3.33,0,0,0-1.29,2.74,3.24,3.24,0,0,1-2.33,3.31,20.6,20.6,0,0,1-3.52.88,8.56,8.56,0,0,0-3.72,1.65,8.49,8.49,0,0,1-2.66,1.65,1.34,1.34,0,0,0-.86.94,22.32,22.32,0,0,0-1.18,6.15c0,.29.14.68-.38.68-1.52-1-3.05-1.95-4.54-3a22.61,22.61,0,0,0-2.67-1.4,30.53,30.53,0,0,0-10.47-3.45c-.75-.08-1-.49-1-1.3,0-2.79,0-2.86-2.86-2.76-2.47.1-4.94.25-7.42.21-1,0-1.2.46-1.09,1.28,0,.12.05.24.07.36.4,1.88.25,2.2-1.68,2.46a35.26,35.26,0,0,0-7.23,1.73,2.71,2.71,0,0,0-1.62,1c-3.05.85-5.43,2.78-7.81,4.75a39,39,0,0,0-7,7.74A1.92,1.92,0,0,1,173.45,504Z" transform="translate(-113.96 -288.54)"/><path class="cls-14" d="M737.58,336.64c-.08,3.52-.37,7.06-.18,10.56.15,2.73-.09,5.43-.06,8.15a6.91,6.91,0,0,0,.23,1.17,5.12,5.12,0,0,1-2.93.47c-2.41,0-4.81-.08-7.23.06-1.55.09-3.13.08-4.69,0a26.1,26.1,0,0,1-4.92-.15,55.05,55.05,0,0,1-6.16-.21,13.7,13.7,0,0,0-3.38.13,4.56,4.56,0,0,1-2.73-.21,4.82,4.82,0,0,1-.46-2.93c.15-2.87-.1-5.73,0-8.59.1-4.47-.12-9,.46-13.41a24.19,24.19,0,0,0,0-4.34c-.13-2.71-.07-5.41,0-8.12,0-1.28.2-1.4,1.5-1.48,2.13-.13,4.24.4,6.39.1.93-.12,1.74-.17,2.18-1.12.06,1.35.91,1.26,2,1.26a55.14,55.14,0,0,1,7.71.15,12.39,12.39,0,0,0,3.2-.44,5.39,5.39,0,0,1,2.43,0,11,11,0,0,0,4.31,0c1.55-.3,2.1.37,2.27,1.88a63.7,63.7,0,0,1,0,6.48c0,2.62.18,5.23.18,7.85A6.72,6.72,0,0,1,737.58,336.64Z" transform="translate(-113.96 -288.54)"/><path class="cls-23" d="M329.05,432.22c-.84.54-1.56,0-2.3-.26A2.32,2.32,0,0,0,324,434a7.6,7.6,0,0,0,.31,2.5,4.33,4.33,0,0,1-1.64,4.83,3.52,3.52,0,0,0-1.59,3,19.17,19.17,0,0,0,.56,5.5,8,8,0,0,1-.33,3.9,1.8,1.8,0,0,0,.1,1.73c.95,1.29.89,2.89,1.33,4.34.29,1-.33,1.53-1.26,1.88-1.58.6-3.27.28-4.88.65-1,.22-2,.28-3,.54a2.39,2.39,0,0,0-1.47,1.52c-1.54,3.48-4.67,4.54-8,5.2-.86.17-1.74-.27-2.64-.24a2.85,2.85,0,0,0-2,.68c-2.09,2.12-4.59,3.76-6.53,6.09a7.32,7.32,0,0,1-5.47,3,6.51,6.51,0,0,1-2.21-.58,2.28,2.28,0,0,0-2.17.31,27.57,27.57,0,0,1-3.52,2.34,2.83,2.83,0,0,1-1.87.33,21.33,21.33,0,0,0-4.14-.79c-.71,0-1.16-.75-.79-1.66.72-1.76,2.22-2.71,3.74-3.64a18.65,18.65,0,0,1,1.68-1,4.73,4.73,0,0,0,2.88-4.14c.2-2.33,1.81-3.79,3.44-5.19a13.47,13.47,0,0,1,4.69-2.66,2.84,2.84,0,0,0,2.33-2.7,10.13,10.13,0,0,1,1.95-5.15,2.87,2.87,0,0,0,.39-2,2.35,2.35,0,0,1,1.47-2.53,2.18,2.18,0,0,0,1.46-2.48,3.74,3.74,0,0,1,1.3-3.23,19.41,19.41,0,0,0,2.82-2.91,9.46,9.46,0,0,0,6.05-2.1,107.22,107.22,0,0,1,14-7.69C323.58,430.34,326.41,430.87,329.05,432.22Z" transform="translate(-113.96 -288.54)"/><path class="cls-14" d="M691.69,368.9c0-4.57,0-9.13,0-13.7,0-1.4-.27-2.79-.41-4.19a2,2,0,0,1,0-.6c.73-3,.41-6.06.46-9.09,0-3.47-.19-6.94-.17-10.4,0-4,.17-8.06.18-12.09v-.73c-.06-1.81,0-1.82,1.7-1.35a13.18,13.18,0,0,0,2.48.33c2.3.35,4.81.28,6.37,2.56a2.43,2.43,0,0,1,.54,2.25,3.93,3.93,0,0,0-.09,2,22.66,22.66,0,0,1,.29,4.58c-.08,3.12.4,6.21.26,9.33a7.06,7.06,0,0,1-.44,2.61,2.72,2.72,0,0,0-.25,1.54c.26,1.64.07,3.31.21,5,.43,4.8.14,9.61.21,14.41,0,2.55.39,5.08.27,7.63a1.46,1.46,0,0,0,.6,1.38c.18.13.39.32.13.59a3,3,0,0,1-1.65.28h-8.72C691.49,371.23,691.36,371.05,691.69,368.9Z" transform="translate(-113.96 -288.54)"/><path class="cls-14" d="M721.31,387.34c-2.91,0-2.84,0-2.93,2.9-.09,2.75.36,5.47.26,8.22,0,.32.1.72,0,1-1.22,1.95-.54,4.1-.65,6.15,0,.79-.19,1.06-1,1.18-3.59.49-7.16-.06-10.74,0-.9,0-.87-.6-.91-1.24-.15-3,.28-6,.25-8.95a2.16,2.16,0,0,1-.28-1.85,28.22,28.22,0,0,0,.1-4.95c0-1.3-.31-1.53-1.63-1.53-3.47,0-6.94,0-10.41,0a2.56,2.56,0,0,1-1.85-.38,41.54,41.54,0,0,0,.24-8.49,1.62,1.62,0,0,1,1.12-.38c3.1,0,6.2,0,9.3,0a1.91,1.91,0,0,1,.82.17c.64.45.5,1.07.29,1.63-.72,1.89-.1,3.81-.21,5.72,0,.48.3.69.77.73a3.81,3.81,0,0,0,1.88-.35,3.25,3.25,0,0,1,1.07-.14c3.88.13,7.75-.08,11.63,0a10.26,10.26,0,0,1,1.92,0C720.69,386.79,721.23,386.7,721.31,387.34Z" transform="translate(-113.96 -288.54)"/><path class="cls-15" d="M562.56,323.78a26,26,0,0,1,5.85.16,18.63,18.63,0,0,0,2.38-.2c1.14,0,1.52.26,1.51,1.46-.07,4.84,0,9.69,0,14.53v34.51a1.32,1.32,0,0,1-.88.35,23.24,23.24,0,0,1-5.4-.18c-.76-.52-.65-1.34-.65-2.09q0-7.38,0-14.77c0-3.59-.52-7.18-.22-10.77.36-4.19.13-8.38.21-12.58,0-2.05-.3-4.09-.21-6.16a2.61,2.61,0,0,0-1.94-2.75c-.74-.24-1.7-.27-2.16-1.14C561.5,323.67,562.11,324.1,562.56,323.78Z" transform="translate(-113.96 -288.54)"/><path class="cls-15" d="M617.42,376.43c3-.12,6-.08,9-.09s6.08.1,9.11-.15c.51,0,1.12-.13,1.07.71a2.66,2.66,0,0,1,.11,1.31q0,13.95,0,27.89c-.08.9-.71.47-1.07.36-1.76-.55-3.53-1.07-5.25-1.71-1.32-.49-2.65-.94-4-1.43a2.46,2.46,0,0,1-1.12-.68,1.14,1.14,0,0,1-.16-.38,24.91,24.91,0,0,1,.07-8.78,12.06,12.06,0,0,0,0-4.11c-.35-2.64-.07-5.32-.46-8-.16-1.1.19-2.24-.95-3a2.53,2.53,0,0,0-1.3-.59c-1.34-.05-2.59-.63-3.95-.59C618.08,377.23,617.5,377.13,617.42,376.43Z" transform="translate(-113.96 -288.54)"/><path class="cls-14" d="M562.56,323.78c-.32.44-.86.09-1.36.42.75.44,1.57.5,2.27.84,1,.48,2.37,1.95,2.17,3.1a21.3,21.3,0,0,0,0,4.3c.12,4.16.2,8.33,0,12.47a62.76,62.76,0,0,0-.14,7.12c.41,7,.08,14,.2,21a2.38,2.38,0,0,0,.25,1.17c-.91.68-2,.37-2.94.38-3,0-3,0-3-3,0-4,0-8,0-12a2.16,2.16,0,0,0-.12-1.18c0-3-.12-5.9.05-8.84a42.44,42.44,0,0,0,.13-5.85c-.29-3.63,0-7.25-.19-10.87-.1-2.34.2-4.66.29-7,0-.73-.76-1.64,0-2.12.52-.31,1.4,0,2.13,0Z" transform="translate(-113.96 -288.54)"/><path class="cls-16" d="M718.4,387.09H705.54c-.47-.48-.3-1-.24-1.6a20.16,20.16,0,0,0,0-4.46c-.1-.91-.4-1.43-1.39-1.38a1.06,1.06,0,0,1-.76-.31H691.7a90.49,90.49,0,0,1-.24-9.17c0-.43-.16-.9.23-1.26,0,2.18-.28,1.93,1.91,1.94,3.49,0,7,0,10.48,0a1.16,1.16,0,0,1,1.52,0,4,4,0,0,1,.32,2.11c.09,1.2-.52,2.7.29,3.52s2.39.28,3.62.32c2.3.08,4.59-.27,6.89,0a6.36,6.36,0,0,1,1.44.16.85.85,0,0,1,.37.28,2.16,2.16,0,0,1,.25,1.17c0,2.45,0,4.91,0,7.36A1.85,1.85,0,0,1,718.4,387.09Z" transform="translate(-113.96 -288.54)"/><path class="cls-14" d="M617.42,376.43a1.05,1.05,0,0,0,.94.45c1.49-.25,2.82.6,4.28.53,1-.05,1.46.75,2.06,1.32a1.47,1.47,0,0,1,.35,2.13c-.15.21,0,.46,0,.7a14.51,14.51,0,0,1,.36,3.94,36.47,36.47,0,0,0,.28,5.53c.15,2.22-.72,4.32-.57,6.55.11,1.59.18,3.2.29,4.8a.94.94,0,0,1-1,0,61.65,61.65,0,0,1-8.44-4.14V396.8c-.09-2.78-.12-5.57-.15-8.34,0-3.82.15-7.66.16-11.49C616,375.59,616.87,376.44,617.42,376.43Z" transform="translate(-113.96 -288.54)"/><path class="cls-24" d="M717.91,356.53c2.26.21,4.53,0,6.77.11,2.07.1,4.14-.1,6.21-.05a49.66,49.66,0,0,0,6.68-.07v12.14c-.08,0-.21,0-.22,0-.43-1.45-1.58-1.42-2.72-1.29-3,.33-5.93,0-8.91.15-2,.12-4-.07-6,0-.54-.21-1.17-.08-1.65-.49a.81.81,0,0,1-.19-.56c.45-2.61-.48-5.24.11-7.85C718.15,357.89,717.75,357.22,717.91,356.53Z" transform="translate(-113.96 -288.54)"/><path class="cls-15" d="M719.61,367.2c2.63-.57,5.28,0,7.92-.14,2.84-.13,5.7-.12,8.56-.12.89,0,1.4.17,1.26,1.19,0,.16.14.35.22.53v7.52c0,1.09-.65,1.36-1.65,1.36-2.81,0-5.62.17-8.44-.13a19.5,19.5,0,0,0-3.73.17c-1.46.11-2.9-.13-4.35-.08a1.33,1.33,0,0,1-1-.35h-.24c-.67-1.34-.47-2.81-.6-4.23a17.8,17.8,0,0,1,.19-4.43C718,367,718,367,719.61,367.2Z" transform="translate(-113.96 -288.54)"/><path class="cls-15" d="M705.53,370.84h-1.45c-1-.26-1.21-.9-1.25-1.93-.25-6.56-.06-13.14-.28-19.7a39.18,39.18,0,0,0-.39-7.09,2.52,2.52,0,0,1,.12-1.43c1.08-2.73.54-5.53.41-8.32,0-.44-.06-.88-.07-1.33,0-2.65.18-5.31-.46-7.93a1.28,1.28,0,0,1,.1-.93c.74-1.06.2-1.79-.51-2.55a6.35,6.35,0,0,0-3.47-1.81c-1.62-.41-3.47.15-4.88-1.07a150.78,150.78,0,0,1,16.74,0c1.45-.33,2.93.1,4.37-.23.34,0,.72-.12,1,.23.19,1.16-.26,1.6-1.45,1.47-1.9-.2-3.81.58-5.74-.19-.59-.23-1.38.32-2.13.07-.41-.13-.4.3-.39.57.13,3.3-.27,6.61.22,9.91a18,18,0,0,1-.28,4.81,43.41,43.41,0,0,0-.18,4.83c0,2.19-.27,4.39-.18,6.57.1,2.44.18,4.88.14,7.32,0,1.48,0,3,0,4.43a1.89,1.89,0,0,1,.38,1.36c0,3.16.05,6.33,0,9.5C705.82,368.54,706.23,369.75,705.53,370.84Z" transform="translate(-113.96 -288.54)"/><path class="cls-24" d="M718.4,377.15c2.32,0,4.64.09,7,0,2-.11,4,.19,6,.19,1.79,0,3.6-.16,5.4-.15.76,0,.49-.74.86-1-.34,3.63-.23,7.27-.24,10.91H722.84a2.7,2.7,0,0,0-1.53.25c-.93-.51-1.94-.12-2.91-.25Z" transform="translate(-113.96 -288.54)"/><path class="cls-14" d="M702.86,396.56v14.26c0,1.43-.1,1.39-1.52,1.32a33.56,33.56,0,0,0-5.3.1c-2,.21-4,.07-6,.08,1.08-.15,1.17-.83,1.26-1.81.43-4.65.06-9.3.2-13.95a2,2,0,0,1,1.47-.4q4.23,0,8.46,0A1.86,1.86,0,0,1,702.86,396.56Z" transform="translate(-113.96 -288.54)"/><path class="cls-23" d="M399.2,466.42c1.26,1.26,3,1.45,4.57,1.9a5.77,5.77,0,0,1,2.83,1.5,25.43,25.43,0,0,0,4.46,4,5,5,0,0,0,2.72.84c2.78.1,5.57-.33,8.32.38a39.06,39.06,0,0,1,9.92,4.42,35.18,35.18,0,0,0,14.9,4.77c4.84.44,9.22-.95,13.78-1.86,2.19-.43,4.44-.63,6.67-.93,2-.26,4.05-.53,6.09-.76,1.34-.15,2.7-.1,4-.15a65.08,65.08,0,0,0,11.8-1.63,25.12,25.12,0,0,1,4.17-.63c3.19-.18,5.19-2.8,6.21-5.82a46,46,0,0,1,1.58-4.82,4.4,4.4,0,0,1,3-2.67c2.83-.7,5.3-2.36,8.09-3.21a3,3,0,0,0,1.09-.75,102.26,102.26,0,0,0,8.07-8.83,8.81,8.81,0,0,0,1.78-3.29,17.73,17.73,0,0,1,3.84-6.88c2-2.3,3.76-4.73,6.45-6.3a16.48,16.48,0,0,1,4.83-1.8c2.63-.61,3.71-2,3.72-4.72a16.79,16.79,0,0,0-1.55-7.38,2.75,2.75,0,0,1-.18-2.33,3.67,3.67,0,0,0-.37-3.12,33.72,33.72,0,0,1-1.54-3.28c-.61-1.6-.21-2.59,1.09-3.7a46.34,46.34,0,0,1,8.85-5.59,3.12,3.12,0,0,0,1.69-2.88,21.55,21.55,0,0,0-.2-5.07c-.3-1.31.54-2,1.59-2.52,2.09-1.05,4.18-2.11,6.28-3.13.67-.33,1.2-1,2.06-.92a.5.5,0,0,1,0,.73,20.65,20.65,0,0,0-3.5,1.64c-1.62.8-3.22,1.66-4.81,2.52a1.51,1.51,0,0,0-.88,1.81,16.84,16.84,0,0,1,.16,5.06,4,4,0,0,1-2.38,3.53,44.69,44.69,0,0,0-8,5c-1.54,1.21-1.74,2-1.1,3.87.53,1.53,1.6,2.82,1.91,4.44a1.45,1.45,0,0,1,0,.94c-.64,1.34-.16,2.54.34,3.8a17,17,0,0,1,1.2,7.57,5.1,5.1,0,0,1-4.31,4.47,14.86,14.86,0,0,0-6.69,3.16,41.94,41.94,0,0,0-4.26,4.77A18.25,18.25,0,0,0,524,449c-.9,2.73-2.87,4.82-4.74,6.93-1.1,1.24-2.3,2.38-3.37,3.64a13,13,0,0,1-5.86,3.88c-2.13.74-4.12,1.84-6.3,2.48-1,.29-1.45,1.22-1.87,2.09-1,2.11-1.22,4.5-2.37,6.58a7.9,7.9,0,0,1-6.67,4.48,74.78,74.78,0,0,0-8.05,1.47,41.19,41.19,0,0,1-5.86.64c-3.63.21-7.25.38-10.86.9a85.67,85.67,0,0,0-10.8,1.8,27.76,27.76,0,0,1-7.95,1.22,35.14,35.14,0,0,1-18.19-5.32,28.26,28.26,0,0,0-10.44-4.28,23.46,23.46,0,0,0-5.68-.08c-2.5.23-4.38-.86-6.11-2.39a17.67,17.67,0,0,1-2.15-2.09A5.19,5.19,0,0,0,403.5,469a20.71,20.71,0,0,1-3.33-1c-.74-.28-1.53-.6-1.7-1.55Z" transform="translate(-113.96 -288.54)"/><path class="cls-16" d="M702.86,396.56h-11.4a40.53,40.53,0,0,1,0-8.74c4.28,0,8.56,0,12.84,0,.93,0,1.38.32,1.4,1.16,0,1.82.11,3.64,0,5.44,0,.71-.11,1.43-.15,2.15Z" transform="translate(-113.96 -288.54)"/><path class="cls-25" d="M559.89,358.47c.39.36.23.83.24,1.26,0,4.39,0,8.79,0,13.19,0,1.1.32,1.4,1.37,1.34,1.49-.09,3,0,4.48,0h6.31v8a1.84,1.84,0,0,1-1.35.38c-1.6,0-3.2.05-4.79,0-1.37-.07-2.73.19-4.09,0-1-.11-1.67.1-1.59,1.3a.86.86,0,0,1-.32.75c-.51-1-.16-2-.23-3.06s0-2,0-3Z" transform="translate(-113.96 -288.54)"/><path class="cls-23" d="M229.28,496a26,26,0,0,1,1.18-6.77c.23-.74.54-1.23,1.3-1.38a3.13,3.13,0,0,0,1.47-.81,10.47,10.47,0,0,1,6-2.67,11.31,11.31,0,0,0,2.54-.72,2.62,2.62,0,0,0,1.87-2.78c-.11-1.61.78-2.6,1.91-3.55a25,25,0,0,1,9.64-4.82c2.13-.57,4.18-1.38,4.85-3.86a.57.57,0,0,1,.23-.28c2.06-1.57,1.7-3.75,1.44-5.87a8.94,8.94,0,0,1-.07-1.93,1.16,1.16,0,0,1,1-1.21,1.31,1.31,0,0,0,1-1.74c-.27-1.54-.62-3.06-.95-4.59-.5-2.28,0-3.48,2.29-4,3-.7,4.4-3.05,5.91-5.32a2,2,0,0,0,.15-1.65,16.2,16.2,0,0,0-2.07-5.38c-1.59-2.19-1.66-4.68-1.4-7.27a41.62,41.62,0,0,1,.84-4.72h.73a27.19,27.19,0,0,0-1,6.65,9,9,0,0,0,1.53,5.23,16.65,16.65,0,0,1,2.08,5.51,2.64,2.64,0,0,1-.38,2.1c-1.61,2.42-3.12,4.87-6.34,5.55-1.7.37-2,1.37-1.66,3.29.32,1.69,1,3.31.89,5.09,0,.69-.21,1.39-.83,1.63-1.44.55-1.15,1.63-1,2.71.19,1.64.47,3.28-.4,4.84-1.83,3.3-4.3,5.68-8.2,6.43-3.25.63-5.9,2.52-8.38,4.61a2.84,2.84,0,0,0-1.07,2.22,3.78,3.78,0,0,1-3.09,4.05c-1.34.41-2.73.66-4.1,1a8.3,8.3,0,0,0-3.15,1.72,3.13,3.13,0,0,1-.78.56c-2.64.92-2.54,3.32-3,5.43-.16.82-.18,1.67-.26,2.51a.49.49,0,0,1-.48.45Z" transform="translate(-113.96 -288.54)"/><path class="cls-23" d="M397.74,466.42c-.24.5-.64.53-1.12.41a10.53,10.53,0,0,1-3.71-1.67,25.67,25.67,0,0,0-5.84-3.58c-1.47-.58-3-1.13-4.43-1.76-2.44-1.05-5.06-1.62-7.46-2.84a28.27,28.27,0,0,1-4.37-2.18c-1.17-.87-2.5-1.45-3.46-2.68a5,5,0,0,0-2.17-1.39c-1.06-.37-1.8-1.34-3-1.43a1.11,1.11,0,0,1-.84-1.07,21.24,21.24,0,0,1,7.45,4.35,23.06,23.06,0,0,0,7.47,4.13c3.64,1.41,7.3,2.79,10.93,4.22a17.78,17.78,0,0,1,3.59,2C392.94,464.41,395.1,465.88,397.74,466.42Z" transform="translate(-113.96 -288.54)"/><path class="cls-23" d="M355.5,445.32a5.43,5.43,0,0,1-3.23-.75c-2-1-4-1.93-5.94-3-3.12-1.72-6.24-3.44-9.23-5.43a19.19,19.19,0,0,0-5.75-2.48c-.85-.22-1.76-.41-2.06-1.43A46.85,46.85,0,0,1,341,437.69a116.19,116.19,0,0,0,13.53,7A2.31,2.31,0,0,1,355.5,445.32Z" transform="translate(-113.96 -288.54)"/><path class="cls-26" d="M636.59,406.5q0-14.81,0-29.6c.41.41.23.92.23,1.38q0,14.12,0,28.22v43.66c-.4-.35-.24-.82-.24-1.25q0-5.19,0-10.39c-.27-.18-.6-.32-.56-.75a32.35,32.35,0,0,0,.12-6.6c.15-2.14,0-4.29.09-6.43,0-1.16,0-2.32,0-3.48a7.93,7.93,0,0,0-.41-3.17,3.91,3.91,0,0,0,.39-2c0-2.63,0-5.25,0-7.88C636.22,407.63,636.11,407,636.59,406.5Z" transform="translate(-113.96 -288.54)"/><path class="cls-23" d="M300.4,441.43a.79.79,0,0,1-1.12.4,11.19,11.19,0,0,1-3.1-1.53A8.6,8.6,0,0,0,293.7,439a5,5,0,0,1-2.28-1.32c-.47-.56-1.16-.21-1.69-.49a23.1,23.1,0,0,1-6.06-3.88c-1.14-1.15-1.85-2.7-3.2-3.69-.32-.24-.2-.68-.22-1,1.26.34,1.77,1.5,2.45,2.39a18.3,18.3,0,0,0,7.38,5.51,51.82,51.82,0,0,1,6,3.08A19.45,19.45,0,0,0,300.4,441.43Z" transform="translate(-113.96 -288.54)"/><path class="cls-23" d="M280.25,428.58a16.53,16.53,0,0,1-4.58-1.13,27.52,27.52,0,0,1-2.68-1.17c-.58-.26-1.06-.6-1-1.34a27.45,27.45,0,0,0,7,2.86A1.69,1.69,0,0,1,280.25,428.58Z" transform="translate(-113.96 -288.54)"/><path class="cls-23" d="M359.39,447.26c-1.22,0-2.4-.06-2.92-1.46A10,10,0,0,1,359.39,447.26Z" transform="translate(-113.96 -288.54)"/><path class="cls-23" d="M271.52,424.94c-.69.94-1.12.88-1.7-.24A3,3,0,0,1,271.52,424.94Z" transform="translate(-113.96 -288.54)"/><path class="cls-14" d="M714.51,316.51c-1.43.53-2.91.1-4.37.23C711.58,316.22,713.06,316.63,714.51,316.51Z" transform="translate(-113.96 -288.54)"/><path class="cls-14" d="M690,412.32V415A3.22,3.22,0,0,1,690,412.32Z" transform="translate(-113.96 -288.54)"/><path class="cls-27" d="M737.58,336.64V334A3.29,3.29,0,0,1,737.58,336.64Z" transform="translate(-113.96 -288.54)"/><path class="cls-27" d="M730.78,317.71h-2.43A2.8,2.8,0,0,1,730.78,317.71Z" transform="translate(-113.96 -288.54)"/><path class="cls-28" d="M138,523.43c0,6,.41,12,.25,18a4.3,4.3,0,0,0,.71,2.38,2.47,2.47,0,0,1-.23,3.39c0-2.2-.64-2.71-2.8-2.28a6,6,0,0,1-1.2.08c-3.56,0-7.11.11-10.66,0a34.75,34.75,0,0,1-5.49-.18,1.92,1.92,0,0,1-1.14-.57.78.78,0,0,1-.24-.87c.14-.34.46-.28.73-.28,2.06,0,4.12,0,6.18,0,.93,0,1.36-.28,1.27-1.25-.31-3.22.22-6.46-.42-9.69-.35-1.75.6-3.55.45-5.38,0-.42.42-.43.69-.55,1.66-.75,3.54-.77,5.18-1.57a9.05,9.05,0,0,1,5.56-1.19C137.27,523.53,137.63,522.75,138,523.43Z" transform="translate(-113.96 -288.54)"/><path class="cls-29" d="M716.46,411.35c.33.54,1.3-.12,1.39.64a9.78,9.78,0,0,1-.06,3.37c-.1.43-.66.45-1,.53A71.66,71.66,0,0,0,707,418.5c-.81.32-1-.07-1-.8s.26-1.37-.22-2c0-.93.05-1.86,0-2.78-.09-1.09.39-1.41,1.41-1.36,1.37.07,2.75-.05,4.12,0C713,411.72,714.72,411.27,716.46,411.35Z" transform="translate(-113.96 -288.54)"/><path class="cls-18" d="M565.72,561.27a18.13,18.13,0,0,1-.13-6,10.2,10.2,0,0,0,0-3.12,3.1,3.1,0,0,1-.08-1c.6-7.54-.35-15.07,0-22.61a39.3,39.3,0,0,1,.21-5.31c.27-1.48-.26-3-.18-4.45.25-4.8.21-9.6.21-14.4a6.86,6.86,0,0,0-.19-2.16,1.62,1.62,0,0,1,.8-1.85,13.47,13.47,0,0,1,4.38-1.9l0-.34H560.13c-.7.08-1-.17-1-.93a17.19,17.19,0,0,0,0-2.27c0-.75.28-1,1-.93,1.63,0,3.27-.09,4.9-.11.34,0,.42-.15.44-.42s0-.24,0-.36c-.18-3.91.4-7.81.21-11.72a5.84,5.84,0,0,1,1.36-4.3,41,41,0,0,0,3.74-6.32,19.39,19.39,0,0,1,1.49-2.48c0,7.92,0,15.84,0,23.76,0,1.64.71,3.16.53,4.84-1.15,10.48-.33,21-.48,31.5s0,21.09,0,31.63v1.13a4.14,4.14,0,0,0-3.8-.5A5.87,5.87,0,0,1,565.72,561.27Z" transform="translate(-113.96 -288.54)"/><path class="cls-17" d="M565.72,398.25c0,4.44,0,8.88,0,13.32,0,.91-.18,1.32-1.2,1.26-1.54-.08-3.09,0-4.64,0V398.5c1-.52,2-.17,3.05-.23S564.79,398.25,565.72,398.25Z" transform="translate(-113.96 -288.54)"/><path class="cls-17" d="M560.13,384.67c0-2.65,0-2.6,2.61-2.35a26.67,26.67,0,0,0,3.22-.07,1.43,1.43,0,0,1,.16,1.37,25.69,25.69,0,0,0-.28,4.8c-.06.85.29,1.26,1.18,1.23a17.5,17.5,0,0,1,2.29,0c.4,0,.94-.07,1,.58H559.89v-1.46c.34-1-.08-2,.24-2.91Z" transform="translate(-113.96 -288.54)"/><path class="cls-17" d="M565.72,420.57a10.1,10.1,0,0,1-4.78,3.21,4.3,4.3,0,0,1-1.05.19v-6.79c.86-.48,1.72,0,2.59,0,2.33,0,4.66,0,7,0a1.7,1.7,0,0,1,1.31.27,9.51,9.51,0,0,0-3,1C566.93,419,565.6,419.09,565.72,420.57Z" transform="translate(-113.96 -288.54)"/><path class="cls-17" d="M559.89,455.75c1,.24,1.34.84.67,1.53a1.74,1.74,0,0,0-.42,1.43q0,9.92,0,19.84c-.39-.36-.23-.83-.23-1.26Q559.89,466.52,559.89,455.75Z" transform="translate(-113.96 -288.54)"/><path class="cls-17" d="M559.89,430.76c1,.25,1.34.83.67,1.53a1.68,1.68,0,0,0-.43,1.3v7.6c-.39-.36-.23-.83-.23-1.25Q559.89,435.35,559.89,430.76Z" transform="translate(-113.96 -288.54)"/><path class="cls-17" d="M559.89,425.91c.41,0,.88.33.66.64-.56.79-.08,1.22.24,1.86s-.06,1.18-.9,1.14Z" transform="translate(-113.96 -288.54)"/><path class="cls-17" d="M560.13,447c.1.87-.2,1.74.57,2.57.5.53.21,1.32-.81,1.31C560,449.6,559.62,448.28,560.13,447Z" transform="translate(-113.96 -288.54)"/><path class="cls-17" d="M560.13,482.43v6.31c-.51-.85-.23-1.79-.21-2.68C559.94,484.85,559.6,483.61,560.13,482.43Z" transform="translate(-113.96 -288.54)"/><path class="cls-17" d="M616,398.25c1.56.23,2.76,1.27,4.15,1.88a36.11,36.11,0,0,0,5.32,2.25v.24a2,2,0,0,1,.39,1.37c0,4.11-.08,8.23.24,12.34a2.68,2.68,0,0,1-.33,1.87,2.18,2.18,0,0,1-1.38.34c-2.32,0-4.65,0-7,0-1.51,0-1.66-.25-1.41-1.84C616.22,410.54,615.49,404.4,616,398.25Z" transform="translate(-113.96 -288.54)"/><path class="cls-25" d="M636.35,431.25c.51,2.06.16,4.15.19,6.23,0,.19-.28.37-.43.56a2.82,2.82,0,0,1-2.91,0h-1a1.28,1.28,0,0,1-1.7,0h-1.95a1.58,1.58,0,0,1-1.94,0h-.24a1.38,1.38,0,0,1-.87.33c-2.85.12-5.71,0-8.57.05a1.74,1.74,0,0,1-1.24-.38v-6.55c.76-.61,1.74-.15,2.54-.53,4.9-.16,9.8-.18,14.69,0a7.34,7.34,0,0,0,2.84.09A.64.64,0,0,1,636.35,431.25Z" transform="translate(-113.96 -288.54)"/><path class="cls-30" d="M616,416.69c-.19,1.13.23,1.52,1.42,1.48,2.76-.08,5.53,0,8.29,0a1.91,1.91,0,0,1,1.36-.38c2.5,0,5,0,7.49,0a1.67,1.67,0,0,1,1.35.39,1.26,1.26,0,0,1,.75,1.3c-.07,1.75,0,3.5,0,5.25a2.43,2.43,0,0,1-1.72.39c-2.94,0-5.88,0-8.82,0a24.48,24.48,0,0,0-2.71,0,2.5,2.5,0,0,1-.67,0c-1.11,0-2.23,0-3.34,0s-2.31.29-3.37-.37a47.55,47.55,0,0,1-.23-6.75C615.73,417.52,615.57,417.05,616,416.69Z" transform="translate(-113.96 -288.54)"/><path class="cls-18" d="M616,424.7h3.4a9.71,9.71,0,0,0,3.4,0h.48a6.37,6.37,0,0,0,2.68,0h10.67c0,1.8,0,3.61,0,5.42,0,.38.13.81-.24,1.13h-.48a6.67,6.67,0,0,1-2.67,0H618.15a3.59,3.59,0,0,1-1.42.11c-.9.09-1.05-.34-.77-1.09v-.72a8.4,8.4,0,0,0,0-3.16Z" transform="translate(-113.96 -288.54)"/><path class="cls-20" d="M615.72,438h9.95a1.85,1.85,0,0,1,.36,1.36c0,3.06,0,6.12,0,9.17,0,1.59-.33,1.9-1.95,1.82-2.13-.11-4.26.16-6.39.14a2.08,2.08,0,0,1-1.49-.36h-.73C615.9,446.13,615.66,442.08,615.72,438Z" transform="translate(-113.96 -288.54)"/><path class="cls-18" d="M570.33,390.25c-1.19-.54-2.45-.21-3.67-.21-1,0-1.23-.32-1.21-1.25a33.3,33.3,0,0,1,.51-6.54h6.31c0,2,0,4.08,0,6.12S572.54,390.23,570.33,390.25Z" transform="translate(-113.96 -288.54)"/><path class="cls-26" d="M616,430.27c-.07.67.14,1.06.9,1a11.1,11.1,0,0,1,1.29,0c-.77.49-1.62.13-2.43.24C615.78,431.08,615.56,430.61,616,430.27Z" transform="translate(-113.96 -288.54)"/><path class="cls-26" d="M616,426.39a4.31,4.31,0,0,1,0,3.16Z" transform="translate(-113.96 -288.54)"/><path class="cls-17" d="M593.63,469.57c2,.05,3.52,2.58,2.67,4.61A9.11,9.11,0,0,0,593.63,469.57Z" transform="translate(-113.96 -288.54)"/><path class="cls-20" d="M582.46,467.63a.66.66,0,0,1,.77-.43,14.33,14.33,0,0,0,4.8.06c.54-.07.56.34.74.61h-3.15C584.59,467.52,583.5,468,582.46,467.63Z" transform="translate(-113.96 -288.54)"/><path class="cls-17" d="M572.27,468.12c-.25-.22-.51-.48-.23-.8a.7.7,0,0,1,.89-.12c1.26,1.17,2.79.49,4.2.68C575.53,468.42,573.89,468,572.27,468.12Z" transform="translate(-113.96 -288.54)"/><path class="cls-17" d="M582.46,467.63c1,.14,2.14-.28,3.16.24-1.29-.12-2.62.27-3.88-.24Z" transform="translate(-113.96 -288.54)"/><path class="cls-20" d="M578.82,467.63a1.14,1.14,0,0,1,1.94,0Z" transform="translate(-113.96 -288.54)"/><path class="cls-17" d="M589,467.87c.16-.23.18-.66.57-.61s.38.33.4.62Z" transform="translate(-113.96 -288.54)"/><path class="cls-20" d="M596.3,470.3a18.2,18.2,0,0,1-2.91-2.91A4.65,4.65,0,0,1,596.3,470.3Z" transform="translate(-113.96 -288.54)"/><path class="cls-20" d="M584.16,465.45c-.7,1-1,1-1.7,0Z" transform="translate(-113.96 -288.54)"/><path class="cls-20" d="M591.45,466.18a1.88,1.88,0,0,1-2.19-.73Z" transform="translate(-113.96 -288.54)"/><path class="cls-20" d="M593.39,467.39a1.16,1.16,0,0,1-1.22-.73A1.53,1.53,0,0,1,593.39,467.39Z" transform="translate(-113.96 -288.54)"/><path class="cls-18" d="M516.85,546.94c3.41-3.25,5.5-7.39,8.81-10.69q0,4.26,0,8.52c0,.63-.51.86-1,1.11C522.3,547.16,519.86,548,516.85,546.94Z" transform="translate(-113.96 -288.54)"/><path class="cls-15" d="M221.27,537.6c-.14,1.81.34,3.76.28,5.74,0,1-.33,1.29-1.27,1.2-2-.19-3.89.61-5.88.48a5.86,5.86,0,0,1-.84,0c-.47-.09-1.17-.12-1.32-.41-.25-.49.48-.72.73-1.1a69.6,69.6,0,0,1,4.38-5.45,18.11,18.11,0,0,1,3.2-3.11c.5-.38.71-.31.72.32Z" transform="translate(-113.96 -288.54)"/><path class="cls-15" d="M236.56,534.1c0,2.76,0,5.52,0,8.28a1.19,1.19,0,0,1-.71,1.16c-2.41,1.22-4.86,2.14-7.88,1,3.26-3.22,5.42-7.18,8.29-10.59Z" transform="translate(-113.96 -288.54)"/><path class="cls-15" d="M706,491.89c-.3.54-.77.67-1.2.29a1,1,0,0,1-.1-1.44c.76-.84.36-1.62.26-2.54-.17-1.75-.93-3.54-.08-5.31.17-.34-.08-.62-.09-.93-.06-2.54.11-5.09-.19-7.64-.09-.75-.31-1.92.91-2.32.45,2.59.24,5.21.44,7.82.1,1.32-.49,2.68-.52,4-.05,2.57.06,5.14.12,7.71C705.58,491.78,705.81,491.86,706,491.89Z" transform="translate(-113.96 -288.54)"/><path class="cls-15" d="M703.11,464.48c.84-.06.8.56.71,1.06-.23,1.26-.51,2.51-.82,3.74a1.69,1.69,0,0,0,.27,1.8,1.42,1.42,0,0,1,.21,1.7,4.11,4.11,0,0,0-.37,2.22c0,3.84,0,7.68,0,11.52a18.15,18.15,0,0,0,.56,3.06c.12.77.14,1.58-1,1.58.5-5.62.11-11.25.26-16.87,0-1.1-.27-2.15-.26-3.24A22.68,22.68,0,0,1,703.11,464.48Z" transform="translate(-113.96 -288.54)"/><path class="cls-15" d="M705.53,471.51c-.55,0-1-.15-.95-.78a15.42,15.42,0,0,1,0-2.37,14.35,14.35,0,0,0,.17-3.92,4,4,0,0,1,.53-2.3c.41-.58,0-1-.27-1.42-.81-1.42-.65-2.44.48-3a33.43,33.43,0,0,1-.21,11.2C705.13,469.79,705.55,470.63,705.53,471.51Z" transform="translate(-113.96 -288.54)"/><path class="cls-15" d="M705.53,438c-1.17-1.46-.78-3.17-.68-4.78a8.93,8.93,0,0,0-.2-2.59c-.33-1.51-.07-2.15,1.13-2.82C705.14,431.23,706.06,434.65,705.53,438Z" transform="translate(-113.96 -288.54)"/><path class="cls-15" d="M703.35,433.43a1,1,0,0,1,.71,1.32c-.25.86,0,1.85-.78,2.59-.33.32-.21.81,0,1.24.73,1.41-.08,2.81-.08,4.22,0,.23-.34.31-.59.33-.32-2.95.34-5.84.62-8.75C703.27,434.06,703.31,433.74,703.35,433.43Z" transform="translate(-113.96 -288.54)"/><path class="cls-15" d="M698.25,499.17c0,.42-.06.95-.54.92-1.83-.11-3.64.66-5.48.07-.43-.13-.75-.26-.78-.75C693.71,499,696,499.44,698.25,499.17Z" transform="translate(-113.96 -288.54)"/><path class="cls-15" d="M702.62,491.89c.5.78.15,1.64.24,2.46.17,1.57-.31,3.17.43,4.73.37.76-.54,1.41-1.53,1.11a2.45,2.45,0,0,0-1.77-.1c-.64.24-1.32,0-1.25-.92,1,0,1.92,0,2.88,0,.81.05,1-.28,1-1.05C702.59,496.05,702.62,494,702.62,491.89Z" transform="translate(-113.96 -288.54)"/><path class="cls-15" d="M705.78,427.61c-.49-.7-.21-1.48-.23-2.22,0-1.4,0-2.81,0-4.22,0-.51.36-1.37-.69-1.3-.81.06-1.48.43-1.48,1.41,0,1.17,0,2.33,0,3.5,0,.38.13.81-.23,1.13,0-1.82,0-3.63,0-5.44,0-.88,1.53-2.05,2.34-1.78.47.16.32.6.32.93C705.78,422.28,705.78,425,705.78,427.61Z" transform="translate(-113.96 -288.54)"/><path class="cls-15" d="M702.86,450.65c.37.32.24.74.24,1.13,0,1.32.09,2.65,0,4a24,24,0,0,0,.67,5.91c.12.76.17,1.44-.65,1.85C702.59,459.23,703,454.94,702.86,450.65Z" transform="translate(-113.96 -288.54)"/><path class="cls-15" d="M702.62,444.1c.33,1.29,1.1,2.43,1.27,3.76.1.77.13,1.58-1,1.58Z" transform="translate(-113.96 -288.54)"/><path class="cls-15" d="M703.11,429.55c1.11.81,1.26,2.83.24,3.39A12.86,12.86,0,0,1,703.11,429.55Z" transform="translate(-113.96 -288.54)"/><path class="cls-15" d="M705.29,447c-1.2-.25-.62-1.21-.7-1.88s.39-.81.94-.79A16,16,0,0,0,705.29,447Z" transform="translate(-113.96 -288.54)"/><path class="cls-15" d="M711.12,492.13c-.18,1.08-1,.67-1.64.72s-.81-.4-.79-1C709.51,491.86,710.28,492.28,711.12,492.13Z" transform="translate(-113.96 -288.54)"/><path class="cls-15" d="M705.53,452.84c-.48,0-.9-.09-.95-.68s-.08-1.39.71-1.75Z" transform="translate(-113.96 -288.54)"/><path class="cls-29" d="M718.64,500.38c-2.25,1-4.71,1.32-7.08,1.92a19.82,19.82,0,0,0-4.12,1.33c-1.19.6-1.41.43-1.42-.93,0-1.6-.44-3.19,0-4.79a4.39,4.39,0,0,1,.26-1.17,97.14,97.14,0,0,0,10-.24,1,1,0,0,0,.34.12c.67.14,1.67-.41,2,.38A3.79,3.79,0,0,1,718.64,500.38Z" transform="translate(-113.96 -288.54)"/><path class="cls-29" d="M691.7,515.18v-11.4a4.22,4.22,0,0,1,3.64,0h.24a1.79,1.79,0,0,1,2.19,0h.72a4.93,4.93,0,0,1,4.13,0v2.91c-2.18.79-4.26,1.83-6.48,2.55-1,.31-2,.35-2.93.57s-1.32.56-1.31,1.59C691.92,512.65,692.24,514,691.7,515.18Z" transform="translate(-113.96 -288.54)"/><path class="cls-14" d="M718.64,500.38c.15-1-.3-2-.25-3,0-.56-.35-.62-.8-.64s-1,.18-1.38-.24c5.73.3,11.46.32,17.2.2-.45.57-1.07.41-1.59.57a80.18,80.18,0,0,1-11,2.35A6.81,6.81,0,0,0,718.64,500.38Z" transform="translate(-113.96 -288.54)"/><path class="cls-15" d="M702.62,503.78h-4.13c.11-.74.59-1,1.28-1s1.45,0,2.17,0c1.41,0,2.73-.16,3.59-1.46.38,2.43.38,2.43-2.07,2.43Z" transform="translate(-113.96 -288.54)"/><path class="cls-15" d="M695.34,503.78H691.7c-.57-.1-1.19.22-1.71-.24.52,0,1,.08,1.4-.47a9.72,9.72,0,0,1,3.62-.15C695.33,503.12,695.34,503.45,695.34,503.78Z" transform="translate(-113.96 -288.54)"/><path class="cls-15" d="M697.77,503.78h-2.19a1.1,1.1,0,0,1,2.19,0Z" transform="translate(-113.96 -288.54)"/><path class="cls-15" d="M706.26,496.74c-.54-.05-.78.19-.73.73-.45-.26-.69-.62-.23-1S706.11,496.08,706.26,496.74Z" transform="translate(-113.96 -288.54)"/><path class="cls-15" d="M690,502.08a3.19,3.19,0,0,1,0-2.67Z" transform="translate(-113.96 -288.54)"/><path class="cls-15" d="M271.6,549c2.53-2.79,4.36-6.07,7.51-8.25a1.61,1.61,0,0,1,.17,1.12,53.29,53.29,0,0,0,.25,5.79c.05,1-.29,1.63-1.46,1.49-1.53-.19-3,.29-4.57.24A4,4,0,0,1,271.6,549Z" transform="translate(-113.96 -288.54)"/><path class="cls-15" d="M291.92,540.41a62.53,62.53,0,0,0,.23,6.55,1.12,1.12,0,0,1-.63,1.06,8.59,8.59,0,0,1-5.64,1.35c-.48,0-1-.25-.51-.81,2.24-2.44,3.94-5.27,5.93-7.89A.54.54,0,0,1,291.92,540.41Z" transform="translate(-113.96 -288.54)"/><path class="cls-15" d="M324,552.42c0,2.06,0,2.09-1.64,2.05s-3.15.67-4.76.26c-.27-.07-.62,0-.72-.32s.22-.41.37-.59c1.32-1.62,2.65-3.23,3.94-4.87a13.21,13.21,0,0,1,2-1.74c.55-.46.56.12.56.47A23.18,23.18,0,0,0,324,552.42Z" transform="translate(-113.96 -288.54)"/><path class="cls-13" d="M149.42,478.55c-3.63,1.68-7.41,3-11.16,4.36a22,22,0,0,0-3-7.45,3.24,3.24,0,0,0-1.25-1.12c-1.94-1.06-3.68-2.5-5.88-3-.43-.11-.28-.35-.3-.62a16.31,16.31,0,0,1,.32-3.49,6.74,6.74,0,0,1,6.54-5.38c3.48.05,7,0,10.43,0,3,0,5.93.14,8.89.24,1.34,0,1.89,1.27,2.8,1.94,1.54,1.14,1.77,3,2.1,4.74a5.12,5.12,0,0,1,.24,2.47c-.29.76-1.49.34-2.18.71-1.15.62-2.53.89-3.39,2-1.59.81-2.42,2.32-3.4,3.68C149.91,477.93,149.84,478.37,149.42,478.55Z" transform="translate(-113.96 -288.54)"/><path class="cls-18" d="M646.79,471.27a1.41,1.41,0,0,1-2.18,0A2.6,2.6,0,0,1,646.79,471.27Z" transform="translate(-113.96 -288.54)"/><path class="cls-20" d="M640,471h-2.91a5.09,5.09,0,0,1,3.4,0A.34.34,0,0,1,640,471Z" transform="translate(-113.96 -288.54)"/><path class="cls-18" d="M640,471h.49l1,.24C640.78,472.3,640.38,471.72,640,471Z" transform="translate(-113.96 -288.54)"/><path class="cls-18" d="M625.19,453.56c.25-1.2,1.23-.71,1.88-.68a15.27,15.27,0,0,0,1.79,0c2-.11,4.11,0,6.17,0a.72.72,0,0,1,.83.69.84.84,0,0,1-.75,1c-1.84.31-3.68.67-5.53.91a14.28,14.28,0,0,0-2,.47,1.18,1.18,0,0,0-1,1.34c.13,2.81-.19,5.63.21,8.45.27,1.88-.38,3.74-.57,5.61a28.52,28.52,0,0,0-.08,4.52c.16,3,.19,5.93.2,8.89,0,.33,0,.65,0,1s-.16.75.16.89.77-.23,1-.52c.74-1,1.45-2,2.09-3.11,1.2-2,3.05-3.37,4.74-4.91a8,8,0,0,0,.82-.7,2.6,2.6,0,0,1,2.46-1,29.77,29.77,0,0,0,4.1.19c.87,0,1.9.41,2.53.11.92-.44,1.83-.11,2.7-.46.54-.21,1.34-.35,1.5.64a13.14,13.14,0,0,1-4.53.47c-2.29-.42-4.57.22-6.85,0a1.61,1.61,0,0,0-1.32.42,30,30,0,0,0-6.65,7.59c-.78,1.39-2.12,2.31-3.23,3.52a2.58,2.58,0,0,1-.46-2.15,63.66,63.66,0,0,0,0-10.24,28,28,0,0,1,0-5.86,21.3,21.3,0,0,0,.27-5.83,75,75,0,0,1-.1-8.35c0-.64.42-.78.9-.95A21.6,21.6,0,0,1,633.5,454c.19,0,.39,0,.67-.48Z" transform="translate(-113.96 -288.54)"/><path class="cls-18" d="M616,453.56c.24-.43.37-1,1-.95a1,1,0,0,1,.89.95Z" transform="translate(-113.96 -288.54)"/><path class="cls-18" d="M616.2,450.17l7.53-.24c1.94-.07,1.94-.08,1.94-2.1V438h.73v11.14c0,1.52-.19,1.71-1.65,1.71h-7.39C616.82,450.9,616.27,450.92,616.2,450.17Z" transform="translate(-113.96 -288.54)"/><path class="cls-18" d="M633.2,438h2.91a.44.44,0,0,1,.48.48c-.65.16-1.3.34-2,.48S633.44,438.71,633.2,438Z" transform="translate(-113.96 -288.54)"/><path class="cls-18" d="M626.64,438h1.94a1,1,0,0,1-.89.95C627,439.07,626.88,438.48,626.64,438Z" transform="translate(-113.96 -288.54)"/><path class="cls-18" d="M630.53,438h1.7a.8.8,0,0,1-.85.82A.79.79,0,0,1,630.53,438Z" transform="translate(-113.96 -288.54)"/><path class="cls-19" d="M501.26,546.85c2.39-2.83,4.48-5.82,7.07-8.4.54-.54,1.24-1.41,1.78-1.22s.26,1.3.24,2c0,2.22.39,4.41.29,6.62,0,.79-.17,1.2-1.07,1.14a17.44,17.44,0,0,0-4.66.41A5.19,5.19,0,0,1,501.26,546.85Z" transform="translate(-113.96 -288.54)"/><path class="cls-16" d="M560.13,385.88c-.12,1,.26,2-.24,2.91C560,387.83,559.63,386.82,560.13,385.88Z" transform="translate(-113.96 -288.54)"/><path class="cls-16" d="M705.54,367.44V356.53c4.12-.39,8.25,0,12.37,0a2.29,2.29,0,0,1,.46,2.16,12.23,12.23,0,0,0,0,4.67,16.76,16.76,0,0,1-.22,3.6,1.59,1.59,0,0,1-1.19.52c-2.16,0-4.31.56-6.48.2a9.16,9.16,0,0,0-2,.08C707.47,367.8,706.45,368.07,705.54,367.44Z" transform="translate(-113.96 -288.54)"/><path class="cls-15" d="M703.11,379.34c2.14,0,2.21,0,2.55,2a12.69,12.69,0,0,1,0,4.43,9.65,9.65,0,0,0-.07,1.32c-.68,1-1.69.44-2.5.41s-.44-.86-.4-1.31c.15-1.6-.42-3.19,0-4.77A4.83,4.83,0,0,0,703.11,379.34Z" transform="translate(-113.96 -288.54)"/><path class="cls-18" d="M635.87,418.15h-10.2c-.25-5.17-.27-10.34-.24-15.52l11.16,3.88v10.59C636.59,417.61,636.7,418.2,635.87,418.15Z" transform="translate(-113.96 -288.54)"/><path class="cls-14" d="M705.54,367.44c4.2-.16,8.42.11,12.62-.48.48.08,1-.19,1.45.24-1-.12-1.35.11-1.52,1.3-.42,2.91.12,5.77.07,8.64-3.78,0-7.55,0-11.32,0-1.1,0-1.38-.33-1.33-1.37.08-1.65,0-3.31,0-5C705.53,369.71,705.53,368.57,705.54,367.44Z" transform="translate(-113.96 -288.54)"/><path class="cls-26" d="M633.2,431.25h2.67A3.19,3.19,0,0,1,633.2,431.25Z" transform="translate(-113.96 -288.54)"/><path class="cls-26" d="M622.76,424.7a5.09,5.09,0,0,1-3.4,0Z" transform="translate(-113.96 -288.54)"/><path class="cls-26" d="M625.92,424.7a3.22,3.22,0,0,1-2.68,0Z" transform="translate(-113.96 -288.54)"/></g></svg>