<svg id="Layer_1" data-name="Layer 1" xmlns="http://www.w3.org/2000/svg" viewBox="0 0 119.75 40.46"><defs><style>.cls-1{fill:#fff;fill-rule:evenodd;}</style></defs><path class="cls-1" d="M332.32,428.39a2.77,2.77,0,0,1-2.77-2.78V415.5c0-3.1-1.46-4.7-3.95-4.7s-4.08,1.6-4.08,4.7v12.89H315V405.28h6.52v3.28c1.5-1.94,3.43-3.71,6.74-3.71,4.93,0,7.81,3.28,7.81,8.58v15Z" transform="translate(-237 -400.89)"/><path class="cls-1" d="M290.43,428.39l-7.69-12.11,7-10.95h-5.2a2.79,2.79,0,0,0-2.35,1.29L279.38,411l-3.6-5.65h-6.73l7,10.95-7.69,12.11h5.2a2.79,2.79,0,0,0,2.35-1.29l3.51-5.52,4.32,6.81Z" transform="translate(-237 -400.89)"/><path class="cls-1" d="M347.86,428.78a16.33,16.33,0,0,1-9.94-3.48l1.32-2a2.82,2.82,0,0,1,3.65-.94,11.43,11.43,0,0,0,5.14,1.42c1.9,0,2.76-.69,2.76-1.72v-.09c0-1.41-2.24-1.89-4.79-2.66-3.24-.95-6.91-2.45-6.91-6.92v-.09c0-4.68,3.8-7.3,8.46-7.3a16.11,16.11,0,0,1,8.64,2.66L355,409.8a2.87,2.87,0,0,1-3.56,1.2,10.63,10.63,0,0,0-4-1c-1.59,0-2.42.68-2.42,1.59v.08c0,1.29,2.21,1.89,4.71,2.75,3.24,1.08,7,2.62,7,6.84v.08c0,5.12-3.84,7.44-8.85,7.44" transform="translate(-237 -400.89)"/><path class="cls-1" d="M311.75,419.11h-16a5.33,5.33,0,0,0,5.61,4.52,7,7,0,0,0,4-1.11,2.73,2.73,0,0,1,3.3.28l2,1.78a11.46,11.46,0,0,1-9.38,4.31c-6.89,0-12-4.87-12-11.93v-.09c0-6.59,4.67-12,11.34-12,7.66,0,11.17,6,11.17,12.54v.08c0,.65,0,1-.08,1.64m-11.09-9c-2.7,0-4.45,1.93-5,4.91h9.8c-.39-2.93-2.1-4.91-4.84-4.91" transform="translate(-237 -400.89)"/><path class="cls-1" d="M237,439.4v-6.47h2.47a2.06,2.06,0,1,1,0,4.12h-1.13v2.35Zm3.18-4.4a.85.85,0,0,0-.87-.93h-1v1.85h1a.85.85,0,0,0,.87-.92" transform="translate(-237 -400.89)"/><path class="cls-1" d="M241.92,437.08a2.19,2.19,0,1,1,2.17,2.48,2.22,2.22,0,0,1-2.17-2.48m3.1,0c0-.77-.28-1.44-.93-1.44s-.94.67-.94,1.44.3,1.44.94,1.44.93-.66.93-1.44" transform="translate(-237 -400.89)"/><polygon class="cls-1" points="13.93 38.59 13.09 35.37 12.23 38.59 11 38.59 9.72 33.84 10.94 33.84 11.69 37.06 12.53 33.84 13.61 33.84 14.47 37.06 15.23 33.84 16.46 33.84 15.18 38.59 13.93 38.59 13.93 38.59"/><path class="cls-1" d="M253.92,437.08a2.22,2.22,0,0,1,2.11-2.47c1.29,0,2,1.05,2,2.52v.34h-3a1.12,1.12,0,0,0,1.14,1.13,1.38,1.38,0,0,0,1-.47l.55.73a2.34,2.34,0,0,1-1.69.7,2.22,2.22,0,0,1-2.19-2.48m2.09-1.51c-.66,0-.9.59-.92,1.08h1.84c0-.49-.25-1.08-.92-1.08" transform="translate(-237 -400.89)"/><path class="cls-1" d="M259,439.44v-4.71h1.23v.64a1.74,1.74,0,0,1,1.35-.76v1.15a1.18,1.18,0,0,0-.28,0,1.4,1.4,0,0,0-1.07.58v3.14Z" transform="translate(-237 -400.89)"/><path class="cls-1" d="M262.2,433.53a.69.69,0,0,1,.66-.72.7.7,0,0,1,.67.72.69.69,0,0,1-.67.7.68.68,0,0,1-.66-.7m.11,1.23h1.1v4.75h-1.1v-4.75Z" transform="translate(-237 -400.89)"/><path class="cls-1" d="M267.29,439.44v-3.09c0-.51-.23-.71-.63-.71a1.12,1.12,0,0,0-.88.59v3.21H264.6v-4.71h1.18v.61a1.8,1.8,0,0,1,1.41-.73,1.16,1.16,0,0,1,1.29,1.3v3.53Z" transform="translate(-237 -400.89)"/><path class="cls-1" d="M269.61,440.74l.47-.9a1.7,1.7,0,0,0,1.25.52,1,1,0,0,0,1.09-1.07v-.62a1.48,1.48,0,0,1-1.23.73c-1.08,0-1.79-.85-1.79-2.39s.7-2.4,1.79-2.4a1.4,1.4,0,0,1,1.23.72v-.6h1.19v4.56a2,2,0,0,1-2.22,2.06,2.48,2.48,0,0,1-1.78-.61m2.81-2.92v-1.63a1,1,0,0,0-.84-.55c-.63,0-.95.55-.95,1.37s.32,1.36.95,1.36a1,1,0,0,0,.84-.55" transform="translate(-237 -400.89)"/><path class="cls-1" d="M276.84,433.53a.73.73,0,1,1,.72.7.71.71,0,0,1-.72-.7m.12,1.23h1.21v4.75H277v-4.75Z" transform="translate(-237 -400.89)"/><path class="cls-1" d="M282.05,439.44v-3.09c0-.51-.23-.71-.63-.71a1.12,1.12,0,0,0-.88.59v3.21h-1.18v-4.71h1.18v.61a1.8,1.8,0,0,1,1.41-.73,1.16,1.16,0,0,1,1.29,1.3v3.53Z" transform="translate(-237 -400.89)"/><path class="cls-1" d="M284.54,438.31v-2.57h-.62v-1h.62v-1.3h1.22v1.3h.8v1h-.8V438c0,.3.11.49.35.49a.5.5,0,0,0,.37-.14l.24.9a1.39,1.39,0,0,1-.93.28,1.1,1.1,0,0,1-1.25-1.26" transform="translate(-237 -400.89)"/><path class="cls-1" d="M287.16,437.08a2.24,2.24,0,0,1,2.17-2.47c1.33,0,2.07,1.05,2.07,2.52v.34h-3a1.14,1.14,0,0,0,1.18,1.13,1.42,1.42,0,0,0,1-.47l.56.73a2.42,2.42,0,0,1-1.73.7,2.25,2.25,0,0,1-2.26-2.48m2.15-1.51a1,1,0,0,0-.95,1.08h1.9a1,1,0,0,0-.95-1.08" transform="translate(-237 -400.89)"/><path class="cls-1" d="M292.28,440.74l.46-.9a1.63,1.63,0,0,0,1.21.52,1,1,0,0,0,1.06-1.07v-.62a1.43,1.43,0,0,1-1.19.73c-1.05,0-1.74-.85-1.74-2.39s.68-2.4,1.74-2.4a1.35,1.35,0,0,1,1.19.72v-.6h1.16v4.56a1.91,1.91,0,0,1-2.16,2.06,2.39,2.39,0,0,1-1.73-.61m2.73-2.92v-1.63a1,1,0,0,0-.81-.55c-.61,0-.92.55-.92,1.37s.31,1.36.92,1.36a1,1,0,0,0,.81-.55" transform="translate(-237 -400.89)"/><path class="cls-1" d="M297.36,439.44v-4.71h1.17v.64a1.64,1.64,0,0,1,1.29-.76v1.15a1.17,1.17,0,0,0-.27,0,1.33,1.33,0,0,0-1,.58v3.14Z" transform="translate(-237 -400.89)"/><path class="cls-1" d="M303.38,439.44v-.59a1.48,1.48,0,0,1-1.23.71c-1.08,0-1.79-.93-1.79-2.48s.71-2.47,1.79-2.47a1.39,1.39,0,0,1,1.23.72v-.6h1.19v4.71Zm0-1.47V436.2a1,1,0,0,0-.84-.55c-.63,0-1,.61-1,1.43s.32,1.44,1,1.44a1,1,0,0,0,.84-.55" transform="translate(-237 -400.89)"/><path class="cls-1" d="M306,438.31v-2.57h-.6v-1h.6v-1.3h1.16v1.3h.76v1h-.76V438c0,.3.1.49.33.49a.47.47,0,0,0,.35-.14l.23.9a1.28,1.28,0,0,1-.88.28c-.82,0-1.19-.42-1.19-1.26" transform="translate(-237 -400.89)"/><path class="cls-1" d="M308.52,437.08a2.24,2.24,0,0,1,2.17-2.47c1.33,0,2.07,1.05,2.07,2.52v.34h-3a1.14,1.14,0,0,0,1.18,1.13,1.42,1.42,0,0,0,1.05-.47l.56.73a2.42,2.42,0,0,1-1.73.7,2.25,2.25,0,0,1-2.26-2.48m2.15-1.51a1,1,0,0,0-.95,1.08h1.9a1,1,0,0,0-.95-1.08" transform="translate(-237 -400.89)"/><path class="cls-1" d="M316.37,439.48v-.6a1.42,1.42,0,0,1-1.19.72c-1.05,0-1.74-.94-1.74-2.5s.69-2.48,1.74-2.48a1.33,1.33,0,0,1,1.19.73v-2.42h1.16v6.55Zm0-1.48v-1.79a1,1,0,0,0-.81-.55c-.61,0-.92.62-.92,1.44s.31,1.46.92,1.46a1,1,0,0,0,.81-.56" transform="translate(-237 -400.89)"/><path class="cls-1" d="M320.64,438.89l.49-.83a2,2,0,0,0,1.29.57c.45,0,.69-.19.69-.5,0-.78-2.31-.35-2.31-2.1,0-.77.6-1.42,1.7-1.42a2.37,2.37,0,0,1,1.63.61l-.46.81a1.6,1.6,0,0,0-1.15-.49c-.37,0-.63.19-.63.45,0,.7,2.34.33,2.34,2.1,0,.85-.69,1.47-1.79,1.47a2.49,2.49,0,0,1-1.8-.67" transform="translate(-237 -400.89)"/><path class="cls-1" d="M325,437.08a2.13,2.13,0,1,1,2.11,2.48,2.2,2.2,0,0,1-2.11-2.48m3,0c0-.77-.28-1.44-.91-1.44s-.91.67-.91,1.44.28,1.44.91,1.44.91-.66.91-1.44" transform="translate(-237 -400.89)"/><path class="cls-1" d="M330.12,438.34v-5.41h1.22v5.14c0,.3.12.49.36.49a.5.5,0,0,0,.36-.14l.25.9a1.42,1.42,0,0,1-.94.28,1.1,1.1,0,0,1-1.25-1.26" transform="translate(-237 -400.89)"/><path class="cls-1" d="M335.56,439.44v-.59a1.76,1.76,0,0,1-1.4.71,1.14,1.14,0,0,1-1.28-1.28v-3.55h1.18v3.11c0,.5.24.69.64.69a1,1,0,0,0,.86-.57v-3.23h1.2v4.71Z" transform="translate(-237 -400.89)"/><path class="cls-1" d="M338.16,438.31v-2.57h-.6v-1h.6v-1.3h1.16v1.3h.76v1h-.76V438c0,.3.1.49.33.49a.47.47,0,0,0,.35-.14l.23.9a1.28,1.28,0,0,1-.88.28c-.82,0-1.19-.42-1.19-1.26" transform="translate(-237 -400.89)"/><path class="cls-1" d="M340.92,433.53a.69.69,0,0,1,.66-.72.7.7,0,0,1,.67.72.69.69,0,0,1-.67.7.68.68,0,0,1-.66-.7m.11,1.23h1.1v4.75H341v-4.75Z" transform="translate(-237 -400.89)"/><path class="cls-1" d="M343.08,437.08a2.19,2.19,0,1,1,2.17,2.48,2.22,2.22,0,0,1-2.17-2.48m3.1,0c0-.77-.28-1.44-.93-1.44s-.94.67-.94,1.44.3,1.44.94,1.44.93-.66.93-1.44" transform="translate(-237 -400.89)"/><path class="cls-1" d="M351.05,439.44v-3.09c0-.51-.23-.71-.63-.71a1.12,1.12,0,0,0-.88.59v3.21h-1.18v-4.71h1.18v.61a1.81,1.81,0,0,1,1.42-.73,1.16,1.16,0,0,1,1.28,1.3v3.53Z" transform="translate(-237 -400.89)"/><path class="cls-1" d="M353,438.89l.51-.83a2.05,2.05,0,0,0,1.33.57c.47,0,.72-.19.72-.5,0-.78-2.39-.35-2.39-2.1,0-.77.62-1.42,1.76-1.42a2.5,2.5,0,0,1,1.68.61l-.48.81a1.65,1.65,0,0,0-1.18-.49c-.39,0-.65.19-.65.45,0,.7,2.41.33,2.41,2.1,0,.85-.71,1.47-1.84,1.47a2.64,2.64,0,0,1-1.87-.67" transform="translate(-237 -400.89)"/><path class="cls-1" d="M269.59,418.36H250.44l10,4.79h0a7.83,7.83,0,0,0,3.07.62,8,8,0,0,0,7.82-6.8,1.81,1.81,0,0,1-1.77,1.39" transform="translate(-237 -400.89)"/><path class="cls-1" d="M270.8,415l-8.1-12.8a2.78,2.78,0,0,0-2.35-1.3H255a1,1,0,0,0-.85.47L237,428.42h5.47a2.87,2.87,0,0,0,2.42-1.34l13.17-20.84a.09.09,0,0,1,.16,0l6.68,10.59h4.89a1.2,1.2,0,0,0,1-1.84" transform="translate(-237 -400.89)"/></svg>